<svg width="4172" height="1148" xmlns="http://www.w3.org/2000/svg" xmlns:xlink="http://www.w3.org/1999/xlink" xml:space="preserve" overflow="hidden"><defs><clipPath id="clip0"><rect x="140" y="619" width="4172" height="1148"/></clipPath></defs><g clip-path="url(#clip0)" transform="translate(-140 -619)"><path d="M140.804 1016.25 876.857 1016.25 876.857 1764.44 140.804 1764.44Z" fill="#F2F2F2" fill-rule="evenodd"/><path d="M876.857 1016.25 1665.67 1016.25 1665.67 1265.65 876.857 1265.65Z" fill="#F2F2F2" fill-rule="evenodd"/><path d="M1665.67 1016.25 2752.14 1016.25 2752.14 1265.65 1665.67 1265.65Z" fill="#F2F2F2" fill-rule="evenodd"/><path d="M2752.14 1016.25 4308.86 1016.25 4308.86 1265.65 2752.14 1265.65Z" fill="#F2F2F2" fill-rule="evenodd"/><path d="M876.857 1265.65 1665.67 1265.65 1665.67 1515.04 876.857 1515.04Z" fill="#F2F2F2" fill-rule="evenodd"/><path d="M1665.67 1265.65 2752.14 1265.65 2752.14 1515.04 1665.67 1515.04Z" fill="#F2F2F2" fill-rule="evenodd"/><path d="M2752.14 1265.65 4308.86 1265.65 4308.86 1515.04 2752.14 1515.04Z" fill="#F2F2F2" fill-rule="evenodd"/><path d="M876.857 1515.04 1665.67 1515.04 1665.67 1764.44 876.857 1764.44Z" fill="#F2F2F2" fill-rule="evenodd"/><path d="M1665.67 1515.04 2752.14 1515.04 2752.14 1764.44 1665.67 1764.44Z" fill="#F2F2F2" fill-rule="evenodd"/><path d="M2752.14 1515.04 4308.86 1515.04 4308.86 1764.44 2752.14 1764.44Z" fill="#F2F2F2" fill-rule="evenodd"/><path d="M140.804 766.857 4308.86 766.857" stroke="#A5A5A5" stroke-width="4.58333" stroke-linejoin="round" stroke-miterlimit="10" fill="none" fill-rule="evenodd"/><path d="M140.804 622.286 4308.86 622.286" stroke="#A5A5A5" stroke-width="4.58333" stroke-linejoin="round" stroke-miterlimit="10" fill="none" fill-rule="evenodd"/><path d="M140.804 1764.44 4308.86 1764.44" stroke="#A5A5A5" stroke-width="4.58333" stroke-linejoin="round" stroke-miterlimit="10" fill="none" fill-rule="evenodd"/><text fill="#404040" font-family="Montserrat,Montserrat_MSFontService,sans-serif" font-weight="700" font-size="64" transform="matrix(1 0 0 1 3319.95 717)">Applications</text><text fill="#404040" font-family="Montserrat,Montserrat_MSFontService,sans-serif" font-weight="700" font-size="64" transform="matrix(1 0 0 1 2013.83 717)">Description</text><text fill="#404040" font-family="Montserrat,Montserrat_MSFontService,sans-serif" font-weight="700" font-size="64" transform="matrix(1 0 0 1 1058.71 717)">Model Name</text><text fill="#404040" font-family="Montserrat,Montserrat_MSFontService,sans-serif" font-weight="700" font-size="64" transform="matrix(1 0 0 1 278.518 717)">Solution Type</text><text font-family="Montserrat,Montserrat_MSFontService,sans-serif" font-weight="400" font-size="55" transform="matrix(1 0 0 1 2785.14 922)">High</text><text font-family="Montserrat,Montserrat_MSFontService,sans-serif" font-weight="400" font-size="55" transform="matrix(1 0 0 1 2919.78 922)">-</text><text font-family="Montserrat,Montserrat_MSFontService,sans-serif" font-weight="400" font-size="55" transform="matrix(1 0 0 1 2940.98 922)">end Access Control/Time Attendance, Kiosk</text><text font-family="Montserrat,Montserrat_MSFontService,sans-serif" font-weight="400" font-size="55" transform="matrix(1 0 0 1 1698.67 922)">High</text><text font-family="Montserrat,Montserrat_MSFontService,sans-serif" font-weight="400" font-size="55" transform="matrix(1 0 0 1 1833.31 922)">-</text><text font-family="Montserrat,Montserrat_MSFontService,sans-serif" font-weight="400" font-size="55" transform="matrix(1 0 0 1 1854.51 922)">end Standalone module</text><text font-family="Montserrat,Montserrat_MSFontService,sans-serif" font-weight="700" font-size="55" transform="matrix(1 0 0 1 1074.86 922)">Q</text><text font-family="Montserrat,Montserrat_MSFontService,sans-serif" font-weight="700" font-size="55" transform="matrix(1 0 0 1 1121.26 922)">-</text><text font-family="Montserrat,Montserrat_MSFontService,sans-serif" font-weight="700" font-size="55" transform="matrix(1 0 0 1 1142.46 922)">Face PRO</text><text font-family="Montserrat,Montserrat_MSFontService,sans-serif" font-weight="700" font-size="55" transform="matrix(1 0 0 1 338.804 872)">Face OEM </text><text font-family="Montserrat,Montserrat_MSFontService,sans-serif" font-weight="700" font-size="55" transform="matrix(1 0 0 1 338.804 971)">Modules </text><text font-family="Montserrat,Montserrat_MSFontService,sans-serif" font-weight="400" font-size="55" transform="matrix(1 0 0 1 2785.14 1171)">Access Control/Time Attendance, CCTV</text><text font-family="Montserrat,Montserrat_MSFontService,sans-serif" font-weight="400" font-size="55" transform="matrix(1 0 0 1 1698.67 1171)">Algorithm for Edge Device</text><text font-family="Montserrat,Montserrat_MSFontService,sans-serif" font-weight="700" font-size="55" transform="matrix(1 0 0 1 1074.86 1171)">Q</text><text font-family="Montserrat,Montserrat_MSFontService,sans-serif" font-weight="700" font-size="55" transform="matrix(1 0 0 1 1121.26 1171)">-</text><text font-family="Montserrat,Montserrat_MSFontService,sans-serif" font-weight="700" font-size="55" transform="matrix(1 0 0 1 1142.46 1171)">Face Engine</text><text font-family="Montserrat,Montserrat_MSFontService,sans-serif" font-weight="700" font-size="55" transform="matrix(1 0 0 1 338.804 1371)">Face SDK </text><text font-family="Montserrat,Montserrat_MSFontService,sans-serif" font-weight="700" font-size="55" transform="matrix(1 0 0 1 338.804 1470)">(License based) </text><text font-family="Montserrat,Montserrat_MSFontService,sans-serif" font-weight="400" font-size="55" transform="matrix(1 0 0 1 2785.14 1420)">Smartphones</text><text font-family="Montserrat,Montserrat_MSFontService,sans-serif" font-weight="400" font-size="55" transform="matrix(1 0 0 1 3174.73 1420)">for</text><text font-family="Montserrat,Montserrat_MSFontService,sans-serif" font-weight="400" font-size="55" transform="matrix(1 0 0 1 3264.1 1420)">eID</text><text font-family="Montserrat,Montserrat_MSFontService,sans-serif" font-weight="400" font-size="55" transform="matrix(1 0 0 1 3373.53 1420)">and</text><text font-family="Montserrat,Montserrat_MSFontService,sans-serif" font-weight="400" font-size="55" transform="matrix(1 0 0 1 3494.99 1420)">NID</text><text font-family="Montserrat,Montserrat_MSFontService,sans-serif" font-weight="400" font-size="55" transform="matrix(1 0 0 1 3615.87 1420)">demands </text><text font-family="Montserrat,Montserrat_MSFontService,sans-serif" font-weight="400" font-size="55" transform="matrix(1 0 0 1 1698.67 1420)">Algorithm for Smartphones </text><text font-family="Montserrat,Montserrat_MSFontService,sans-serif" font-weight="700" font-size="55" transform="matrix(1 0 0 1 1074.86 1420)">Q</text><text font-family="Montserrat,Montserrat_MSFontService,sans-serif" font-weight="700" font-size="55" transform="matrix(1 0 0 1 1121.26 1420)">-</text><text font-family="Montserrat,Montserrat_MSFontService,sans-serif" font-weight="700" font-size="55" transform="matrix(1 0 0 1 1142.46 1420)">Face Mobile</text><text font-family="Montserrat,Montserrat_MSFontService,sans-serif" font-weight="400" font-size="55" transform="matrix(1 0 0 1 2785.14 1670)">Authentication server</text><text font-family="Montserrat,Montserrat_MSFontService,sans-serif" font-weight="400" font-size="55" transform="matrix(1 0 0 1 1698.67 1670)">Algorithm for Server and Cloud</text><text font-family="Montserrat,Montserrat_MSFontService,sans-serif" font-weight="700" font-size="55" transform="matrix(1 0 0 1 1074.86 1670)">Q</text><text font-family="Montserrat,Montserrat_MSFontService,sans-serif" font-weight="700" font-size="55" transform="matrix(1 0 0 1 1121.26 1670)">-</text><text font-family="Montserrat,Montserrat_MSFontService,sans-serif" font-weight="700" font-size="55" transform="matrix(1 0 0 1 1142.46 1670)">Face Cloud</text></g></svg>