<svg width="2252" height="905" xmlns="http://www.w3.org/2000/svg" xmlns:xlink="http://www.w3.org/1999/xlink" xml:space="preserve" overflow="hidden"><defs><clipPath id="clip0"><rect x="1074" y="1130" width="2252" height="905"/></clipPath></defs><g clip-path="url(#clip0)" transform="translate(-1074 -1130)"><path d="M0 150.501 168.145 0 168.145 72.3099 1030.86 72.3099 1030.86 0 1199 150.501 1030.86 301 1030.86 228.69 168.145 228.69 168.145 301Z" fill="#F2F2F2" fill-rule="evenodd" transform="matrix(-1 0 0 1 2799 1271)"/><path d="M1918.5 1417.5C1918.5 1260.1 2046.32 1132.5 2204 1132.5 2361.68 1132.5 2489.5 1260.1 2489.5 1417.5 2489.5 1574.9 2361.68 1702.5 2204 1702.5 2046.32 1702.5 1918.5 1574.9 1918.5 1417.5Z" stroke="#D9D9D9" stroke-width="4.58333" stroke-miterlimit="8" fill="#FFFFFF" fill-rule="evenodd"/><path d="M1954 1417C1954 1277.27 2067.27 1164 2207 1164 2346.73 1164 2460 1277.27 2460 1417 2460 1556.73 2346.73 1670 2207 1670 2067.27 1670 1954 1556.73 1954 1417Z" fill="#AD3757" fill-rule="evenodd"/><path d="M2252.78 1391.91C2248.65 1391.91 2246.57 1393.35 2246.57 1396.23 2246.57 1397.65 2247.11 1398.76 2248.19 1399.57 2249.26 1400.38 2250.76 1400.79 2252.69 1400.79 2254.53 1400.79 2256.11 1400.37 2257.43 1399.52 2258.75 1398.68 2259.73 1397.46 2260.38 1395.87L2260.38 1391.91ZM2194.78 1391.91C2190.65 1391.91 2188.57 1393.35 2188.57 1396.23 2188.57 1397.65 2189.11 1398.76 2190.19 1399.57 2191.26 1400.38 2192.76 1400.79 2194.69 1400.79 2196.53 1400.79 2198.11 1400.37 2199.43 1399.52 2200.75 1398.68 2201.73 1397.46 2202.38 1395.87L2202.38 1391.91ZM2149.78 1391.91C2145.65 1391.91 2143.57 1393.35 2143.57 1396.23 2143.57 1397.65 2144.11 1398.76 2145.19 1399.57 2146.26 1400.38 2147.76 1400.79 2149.69 1400.79 2151.53 1400.79 2153.11 1400.37 2154.43 1399.52 2155.75 1398.68 2156.73 1397.46 2157.38 1395.87L2157.38 1391.91ZM2226.61 1381.61C2224.9 1381.61 2223.36 1382 2221.99 1382.78 2220.63 1383.56 2219.55 1384.67 2218.77 1386.11 2217.99 1387.56 2217.6 1389.2 2217.6 1391.04 2217.6 1392.88 2217.99 1394.52 2218.77 1395.96 2219.55 1397.4 2220.63 1398.51 2221.99 1399.29 2223.36 1400.08 2224.9 1400.47 2226.61 1400.47 2228.3 1400.47 2229.83 1400.08 2231.21 1399.29 2232.59 1398.51 2233.68 1397.4 2234.46 1395.96 2235.24 1394.52 2235.63 1392.88 2235.63 1391.04 2235.63 1389.2 2235.24 1387.56 2234.46 1386.11 2233.68 1384.67 2232.59 1383.56 2231.21 1382.78 2229.83 1382 2228.3 1381.61 2226.61 1381.61ZM2303.76 1381.56C2301.43 1381.56 2299.48 1382.3 2297.9 1383.79 2296.32 1385.28 2295.42 1387.22 2295.21 1389.61L2312.36 1389.61C2312.15 1387.22 2311.25 1385.28 2309.67 1383.79 2308.09 1382.3 2306.12 1381.56 2303.76 1381.56ZM2303.76 1378.75C2306 1378.75 2308.01 1379.28 2309.79 1380.32 2311.57 1381.36 2312.96 1382.81 2313.97 1384.67 2314.99 1386.52 2315.49 1388.64 2315.49 1391.04L2315.45 1392.05 2295.21 1392.05C2295.39 1394.56 2296.36 1396.6 2298.1 1398.14 2299.85 1399.69 2302.06 1400.47 2304.73 1400.47 2306.23 1400.47 2307.61 1400.2 2308.87 1399.66 2310.13 1399.13 2311.21 1398.34 2312.14 1397.29L2313.97 1399.41C2312.9 1400.7 2311.56 1401.68 2309.95 1402.35 2308.34 1403.03 2306.57 1403.36 2304.64 1403.36 2302.15 1403.36 2299.95 1402.84 2298.04 1401.78 2296.12 1400.72 2294.62 1399.26 2293.55 1397.38 2292.48 1395.51 2291.94 1393.4 2291.94 1391.04 2291.94 1388.68 2292.45 1386.56 2293.48 1384.69 2294.51 1382.82 2295.92 1381.36 2297.71 1380.32 2299.51 1379.28 2301.52 1378.75 2303.76 1378.75ZM2279.46 1378.75C2281.03 1378.75 2282.59 1378.96 2284.16 1379.38 2285.72 1379.79 2287.01 1380.33 2288.02 1381.01L2286.59 1383.63C2284.6 1382.25 2282.22 1381.56 2279.46 1381.56 2277.38 1381.56 2275.81 1381.93 2274.75 1382.66 2273.69 1383.4 2273.16 1384.37 2273.16 1385.56 2273.16 1386.48 2273.46 1387.22 2274.06 1387.77 2274.66 1388.32 2275.4 1388.73 2276.29 1388.99 2277.18 1389.25 2278.41 1389.52 2279.97 1389.79 2281.9 1390.16 2283.45 1390.53 2284.61 1390.9 2285.78 1391.27 2286.78 1391.9 2287.6 1392.78 2288.43 1393.67 2288.85 1394.9 2288.85 1396.46 2288.85 1398.58 2287.97 1400.26 2286.2 1401.5 2284.44 1402.74 2281.99 1403.36 2278.86 1403.36 2276.9 1403.36 2275.02 1403.08 2273.23 1402.51 2271.44 1401.95 2270.03 1401.23 2269.02 1400.37L2270.49 1397.8C2271.5 1398.6 2272.78 1399.25 2274.31 1399.75 2275.84 1400.26 2277.44 1400.51 2279.09 1400.51 2281.3 1400.51 2282.94 1400.17 2283.99 1399.48 2285.05 1398.79 2285.58 1397.81 2285.58 1396.56 2285.58 1395.67 2285.29 1394.97 2284.71 1394.46 2284.12 1393.96 2283.39 1393.57 2282.5 1393.31 2281.61 1393.05 2280.43 1392.8 2278.96 1392.55 2276.99 1392.19 2275.42 1391.81 2274.22 1391.43 2273.02 1391.04 2272 1390.39 2271.16 1389.47 2270.32 1388.55 2269.9 1387.28 2269.9 1385.65 2269.9 1383.63 2270.74 1381.97 2272.42 1380.69 2274.11 1379.4 2276.46 1378.75 2279.46 1378.75ZM2253.84 1378.75C2257 1378.75 2259.42 1379.54 2261.11 1381.12 2262.8 1382.7 2263.64 1385.04 2263.64 1388.14L2263.64 1403.13 2260.51 1403.13 2260.51 1399.36C2259.78 1400.62 2258.7 1401.6 2257.27 1402.31 2255.84 1403.01 2254.15 1403.36 2252.19 1403.36 2249.49 1403.36 2247.34 1402.72 2245.75 1401.43 2244.15 1400.14 2243.35 1398.44 2243.35 1396.33 2243.35 1394.27 2244.1 1392.62 2245.59 1391.36 2247.07 1390.1 2249.44 1389.47 2252.69 1389.47L2260.38 1389.47 2260.38 1388C2260.38 1385.92 2259.79 1384.33 2258.63 1383.24 2257.46 1382.15 2255.76 1381.61 2253.52 1381.61 2251.99 1381.61 2250.52 1381.86 2249.1 1382.37 2247.69 1382.87 2246.48 1383.57 2245.47 1384.46L2244 1382.02C2245.23 1380.98 2246.7 1380.17 2248.42 1379.61 2250.13 1379.04 2251.94 1378.75 2253.84 1378.75ZM2195.84 1378.75C2199 1378.75 2201.42 1379.54 2203.11 1381.12 2204.8 1382.7 2205.64 1385.04 2205.64 1388.14L2205.64 1403.13 2202.51 1403.13 2202.51 1399.36C2201.78 1400.62 2200.7 1401.6 2199.27 1402.31 2197.84 1403.01 2196.15 1403.36 2194.19 1403.36 2191.49 1403.36 2189.34 1402.72 2187.75 1401.43 2186.15 1400.14 2185.35 1398.44 2185.35 1396.33 2185.35 1394.27 2186.1 1392.62 2187.59 1391.36 2189.07 1390.1 2191.44 1389.47 2194.69 1389.47L2202.38 1389.47 2202.38 1388C2202.38 1385.92 2201.79 1384.33 2200.63 1383.24 2199.46 1382.15 2197.76 1381.61 2195.52 1381.61 2193.99 1381.61 2192.52 1381.86 2191.1 1382.37 2189.69 1382.87 2188.48 1383.57 2187.47 1384.46L2186 1382.02C2187.23 1380.98 2188.7 1380.17 2190.42 1379.61 2192.13 1379.04 2193.94 1378.75 2195.84 1378.75ZM2150.84 1378.75C2154 1378.75 2156.42 1379.54 2158.11 1381.12 2159.8 1382.7 2160.64 1385.04 2160.64 1388.14L2160.64 1403.13 2157.51 1403.13 2157.51 1399.36C2156.78 1400.62 2155.7 1401.6 2154.27 1402.31 2152.84 1403.01 2151.15 1403.36 2149.19 1403.36 2146.49 1403.36 2144.34 1402.72 2142.75 1401.43 2141.15 1400.14 2140.35 1398.44 2140.35 1396.33 2140.35 1394.27 2141.1 1392.62 2142.59 1391.36 2144.07 1390.1 2146.44 1389.47 2149.69 1389.47L2157.38 1389.47 2157.38 1388C2157.38 1385.92 2156.79 1384.33 2155.63 1383.24 2154.46 1382.15 2152.76 1381.61 2150.52 1381.61 2148.99 1381.61 2147.52 1381.86 2146.1 1382.37 2144.69 1382.87 2143.48 1383.57 2142.47 1384.46L2141 1382.02C2142.23 1380.98 2143.7 1380.17 2145.42 1379.61 2147.13 1379.04 2148.94 1378.75 2150.84 1378.75ZM2108.47 1373.88 2108.47 1400.19 2117.99 1400.19C2120.82 1400.19 2123.28 1399.63 2125.4 1398.51 2127.52 1397.39 2129.16 1395.84 2130.32 1393.87 2131.49 1391.89 2132.07 1389.61 2132.07 1387.03 2132.07 1384.46 2131.49 1382.18 2130.32 1380.2 2129.16 1378.23 2127.52 1376.68 2125.4 1375.56 2123.28 1374.44 2120.82 1373.88 2117.99 1373.88ZM2169.93 1373.65 2173.2 1373.65 2173.2 1378.94 2180.56 1378.94 2180.56 1381.7 2173.2 1381.7 2173.2 1396.14C2173.2 1397.58 2173.56 1398.68 2174.28 1399.43 2175 1400.18 2176.03 1400.56 2177.38 1400.56 2178.06 1400.56 2178.71 1400.45 2179.34 1400.24 2179.97 1400.02 2180.51 1399.72 2180.97 1399.32L2182.12 1401.66C2181.51 1402.21 2180.75 1402.64 2179.84 1402.93 2178.94 1403.22 2178 1403.36 2177.01 1403.36 2174.75 1403.36 2173 1402.75 2171.77 1401.52 2170.54 1400.3 2169.93 1398.57 2169.93 1396.33L2169.93 1381.7 2165.61 1381.7 2165.61 1378.94 2169.93 1378.94ZM2105.07 1370.93 2118.18 1370.93C2121.58 1370.93 2124.59 1371.62 2127.2 1372.98 2129.8 1374.35 2131.83 1376.25 2133.27 1378.69 2134.71 1381.12 2135.43 1383.91 2135.43 1387.03 2135.43 1390.16 2134.71 1392.95 2133.27 1395.38 2131.83 1397.82 2129.8 1399.72 2127.2 1401.09 2124.59 1402.45 2121.58 1403.13 2118.18 1403.13L2105.07 1403.13ZM2214.38 1369 2217.65 1369 2217.65 1383.54C2218.66 1381.97 2219.95 1380.79 2221.53 1379.97 2223.11 1379.16 2224.88 1378.75 2226.84 1378.75 2229.11 1378.75 2231.17 1379.27 2233.01 1380.3 2234.85 1381.32 2236.29 1382.77 2237.33 1384.64 2238.38 1386.51 2238.9 1388.64 2238.9 1391.04 2238.9 1393.43 2238.38 1395.56 2237.33 1397.43 2236.29 1399.3 2234.85 1400.76 2233.01 1401.8 2231.17 1402.84 2229.11 1403.36 2226.84 1403.36 2224.82 1403.36 2223 1402.94 2221.39 1402.08 2219.78 1401.22 2218.49 1399.98 2217.51 1398.35L2217.51 1403.13 2214.38 1403.13Z" stroke="#4472C4" stroke-width="3" stroke-linejoin="round" stroke-miterlimit="10" stroke-opacity="0" fill="#FFFFFF" fill-rule="evenodd"/><text fill="#000000" fill-opacity="0" font-family="Arial,Arial_MSFontService,sans-serif" font-size="34.3619" x="2105.07" y="1399.07">Database</text><path d="M2278.69 1436.61C2276.97 1436.61 2275.43 1437 2274.07 1437.78 2272.7 1438.56 2271.63 1439.67 2270.85 1441.11 2270.07 1442.56 2269.68 1444.2 2269.68 1446.04 2269.68 1447.88 2270.07 1449.52 2270.85 1450.96 2271.63 1452.4 2272.7 1453.51 2274.07 1454.29 2275.43 1455.08 2276.97 1455.47 2278.69 1455.47 2280.41 1455.47 2281.95 1455.08 2283.31 1454.29 2284.68 1453.51 2285.75 1452.4 2286.51 1450.96 2287.28 1449.52 2287.66 1447.88 2287.66 1446.04 2287.66 1444.2 2287.28 1442.56 2286.51 1441.11 2285.75 1439.67 2284.68 1438.56 2283.31 1437.78 2281.95 1437 2280.41 1436.61 2278.69 1436.61ZM2140.69 1436.61C2138.97 1436.61 2137.43 1437 2136.07 1437.78 2134.7 1438.56 2133.63 1439.67 2132.85 1441.11 2132.07 1442.56 2131.68 1444.2 2131.68 1446.04 2131.68 1447.88 2132.07 1449.52 2132.85 1450.96 2133.63 1452.4 2134.7 1453.51 2136.07 1454.29 2137.43 1455.08 2138.97 1455.47 2140.69 1455.47 2142.41 1455.47 2143.95 1455.08 2145.31 1454.29 2146.68 1453.51 2147.75 1452.4 2148.51 1450.96 2149.28 1449.52 2149.66 1447.88 2149.66 1446.04 2149.66 1444.2 2149.28 1442.56 2148.51 1441.11 2147.75 1439.67 2146.68 1438.56 2145.31 1437.78 2143.95 1437 2142.41 1436.61 2140.69 1436.61ZM2194.19 1436.56C2191.86 1436.56 2189.9 1437.3 2188.32 1438.79 2186.74 1440.28 2185.84 1442.22 2185.63 1444.61L2202.79 1444.61C2202.57 1442.22 2201.68 1440.28 2200.1 1438.79 2198.52 1437.3 2196.55 1436.56 2194.19 1436.56ZM2256.8 1433.94 2260.07 1433.94 2260.07 1458.13 2256.8 1458.13ZM2310.13 1433.75C2313.17 1433.75 2315.58 1434.64 2317.37 1436.4 2319.17 1438.16 2320.07 1440.73 2320.07 1444.1L2320.07 1458.13 2316.8 1458.13 2316.8 1444.43C2316.8 1441.91 2316.17 1440 2314.91 1438.68 2313.66 1437.36 2311.86 1436.7 2309.53 1436.7 2306.93 1436.7 2304.86 1437.47 2303.34 1439.02 2301.83 1440.57 2301.07 1442.71 2301.07 1445.44L2301.07 1458.13 2297.8 1458.13 2297.8 1433.94 2300.93 1433.94 2300.93 1438.4C2301.82 1436.93 2303.05 1435.79 2304.63 1434.97 2306.21 1434.16 2308.04 1433.75 2310.13 1433.75ZM2278.69 1433.75C2281.02 1433.75 2283.12 1434.28 2284.99 1435.32 2286.86 1436.36 2288.33 1437.82 2289.39 1439.69 2290.44 1441.56 2290.97 1443.68 2290.97 1446.04 2290.97 1448.4 2290.44 1450.51 2289.39 1452.38 2288.33 1454.26 2286.86 1455.72 2284.99 1456.78 2283.12 1457.84 2281.02 1458.36 2278.69 1458.36 2276.36 1458.36 2274.26 1457.84 2272.39 1456.78 2270.52 1455.72 2269.05 1454.26 2267.97 1452.38 2266.9 1450.51 2266.36 1448.4 2266.36 1446.04 2266.36 1443.68 2266.9 1441.56 2267.97 1439.69 2269.05 1437.82 2270.52 1436.36 2272.39 1435.32 2274.26 1434.28 2276.36 1433.75 2278.69 1433.75ZM2222.83 1433.75C2224.92 1433.75 2226.78 1434.16 2228.42 1434.97 2230.06 1435.79 2231.36 1436.97 2232.31 1438.54L2229.87 1440.19C2229.07 1439 2228.06 1438.1 2226.83 1437.5 2225.61 1436.91 2224.27 1436.61 2222.83 1436.61 2221.08 1436.61 2219.51 1437 2218.11 1437.78 2216.72 1438.56 2215.63 1439.67 2214.85 1441.11 2214.07 1442.56 2213.68 1444.2 2213.68 1446.04 2213.68 1447.91 2214.07 1449.56 2214.85 1450.98 2215.63 1452.41 2216.72 1453.51 2218.11 1454.29 2219.51 1455.08 2221.08 1455.47 2222.83 1455.47 2224.27 1455.47 2225.61 1455.18 2226.83 1454.59 2228.06 1454.01 2229.07 1453.12 2229.87 1451.92L2232.31 1453.58C2231.36 1455.14 2230.05 1456.33 2228.4 1457.15 2226.74 1457.96 2224.88 1458.36 2222.83 1458.36 2220.44 1458.36 2218.3 1457.84 2216.41 1456.8 2214.53 1455.76 2213.05 1454.29 2211.97 1452.41 2210.9 1450.52 2210.36 1448.4 2210.36 1446.04 2210.36 1443.68 2210.9 1441.56 2211.97 1439.69 2213.05 1437.82 2214.53 1436.36 2216.41 1435.32 2218.3 1434.28 2220.44 1433.75 2222.83 1433.75ZM2194.19 1433.75C2196.42 1433.75 2198.43 1434.28 2200.21 1435.32 2201.99 1436.36 2203.39 1437.81 2204.4 1439.67 2205.41 1441.52 2205.92 1443.64 2205.92 1446.04L2205.87 1447.05 2185.63 1447.05C2185.81 1449.56 2186.78 1451.6 2188.53 1453.14 2190.28 1454.69 2192.48 1455.47 2195.15 1455.47 2196.65 1455.47 2198.03 1455.2 2199.29 1454.66 2200.55 1454.13 2201.64 1453.34 2202.56 1452.29L2204.4 1454.41C2203.32 1455.7 2201.98 1456.68 2200.37 1457.35 2198.76 1458.03 2196.99 1458.36 2195.06 1458.36 2192.58 1458.36 2190.38 1457.84 2188.46 1456.78 2186.54 1455.72 2185.05 1454.26 2183.97 1452.38 2182.9 1450.51 2182.36 1448.4 2182.36 1446.04 2182.36 1443.68 2182.88 1441.56 2183.9 1439.69 2184.93 1437.82 2186.34 1436.36 2188.14 1435.32 2189.93 1434.28 2191.95 1433.75 2194.19 1433.75ZM2140.69 1433.75C2143.02 1433.75 2145.12 1434.28 2146.99 1435.32 2148.86 1436.36 2150.33 1437.82 2151.39 1439.69 2152.44 1441.56 2152.97 1443.68 2152.97 1446.04 2152.97 1448.4 2152.44 1450.51 2151.39 1452.38 2150.33 1454.26 2148.86 1455.72 2146.99 1456.78 2145.12 1457.84 2143.02 1458.36 2140.69 1458.36 2138.36 1458.36 2136.26 1457.84 2134.39 1456.78 2132.52 1455.72 2131.05 1454.26 2129.97 1452.38 2128.9 1450.51 2128.36 1448.4 2128.36 1446.04 2128.36 1443.68 2128.9 1441.56 2129.97 1439.69 2131.05 1437.82 2132.52 1436.36 2134.39 1435.32 2136.26 1434.28 2138.36 1433.75 2140.69 1433.75ZM2238.35 1428.65 2241.62 1428.65 2241.62 1433.94 2248.98 1433.94 2248.98 1436.7 2241.62 1436.7 2241.62 1451.14C2241.62 1452.58 2241.98 1453.68 2242.7 1454.43 2243.42 1455.18 2244.46 1455.56 2245.81 1455.56 2246.48 1455.56 2247.13 1455.45 2247.76 1455.24 2248.39 1455.02 2248.93 1454.72 2249.39 1454.32L2250.54 1456.66C2249.93 1457.21 2249.17 1457.64 2248.27 1457.93 2247.36 1458.22 2246.42 1458.36 2245.44 1458.36 2243.17 1458.36 2241.42 1457.75 2240.19 1456.52 2238.97 1455.3 2238.35 1453.57 2238.35 1451.33L2238.35 1436.7 2234.03 1436.7 2234.03 1433.94 2238.35 1433.94ZM2112.52 1425.66C2114.91 1425.66 2117.12 1426.06 2119.15 1426.85 2121.17 1427.65 2122.89 1428.82 2124.3 1430.35L2122.14 1432.51C2119.62 1429.97 2116.45 1428.69 2112.61 1428.69 2110.07 1428.69 2107.75 1429.28 2105.67 1430.44 2103.58 1431.61 2101.95 1433.2 2100.77 1435.23 2099.59 1437.25 2099 1439.52 2099 1442.03 2099 1444.55 2099.59 1446.82 2100.77 1448.84 2101.95 1450.87 2103.58 1452.46 2105.67 1453.63 2107.75 1454.79 2110.07 1455.37 2112.61 1455.37 2116.48 1455.37 2119.65 1454.09 2122.14 1451.51L2124.3 1453.67C2122.89 1455.21 2121.16 1456.38 2119.12 1457.19 2117.08 1458 2114.87 1458.41 2112.48 1458.41 2109.29 1458.41 2106.41 1457.71 2103.85 1456.29 2101.29 1454.88 2099.28 1452.93 2097.82 1450.43 2096.37 1447.93 2095.64 1445.13 2095.64 1442.03 2095.64 1438.94 2096.37 1436.14 2097.82 1433.64 2099.28 1431.14 2101.3 1429.19 2103.87 1427.77 2106.45 1426.36 2109.33 1425.66 2112.52 1425.66ZM2258.46 1424C2259.13 1424 2259.7 1424.23 2260.16 1424.67 2260.62 1425.11 2260.85 1425.64 2260.85 1426.26 2260.85 1426.93 2260.62 1427.5 2260.16 1427.96 2259.7 1428.42 2259.13 1428.65 2258.46 1428.65 2257.78 1428.65 2257.22 1428.42 2256.76 1427.96 2256.3 1427.5 2256.07 1426.95 2256.07 1426.3 2256.07 1425.69 2256.3 1425.15 2256.76 1424.69 2257.22 1424.23 2257.78 1424 2258.46 1424ZM2171.8 1424 2175.07 1424 2175.07 1458.13 2171.8 1458.13ZM2159.8 1424 2163.07 1424 2163.07 1458.13 2159.8 1458.13Z" stroke="#4472C4" stroke-width="3" stroke-linejoin="round" stroke-miterlimit="10" stroke-opacity="0" fill="#FFFFFF" fill-rule="evenodd"/><text fill="#000000" fill-opacity="0" font-family="Arial,Arial_MSFontService,sans-serif" font-size="34.408" x="2095.64" y="1454.11">Collection</text><path d="M1076.5 1420.5C1076.5 1295.13 1178.36 1193.5 1304 1193.5 1429.64 1193.5 1531.5 1295.13 1531.5 1420.5 1531.5 1545.87 1429.64 1647.5 1304 1647.5 1178.36 1647.5 1076.5 1545.87 1076.5 1420.5Z" stroke="#D9D9D9" stroke-width="4.58333" stroke-miterlimit="8" fill="#FFFFFF" fill-rule="evenodd"/><path d="M1105 1419.5C1105 1308.21 1195.21 1218 1306.5 1218 1417.79 1218 1508 1308.21 1508 1419.5 1508 1530.79 1417.79 1621 1306.5 1621 1195.21 1621 1105 1530.79 1105 1419.5Z" fill="#7F7F7F" fill-rule="evenodd"/><path d="M1346.52 1402.88C1342.38 1402.88 1340.31 1404.32 1340.31 1407.2 1340.31 1408.61 1340.84 1409.72 1341.92 1410.54 1342.99 1411.35 1344.49 1411.76 1346.42 1411.76 1348.26 1411.76 1349.84 1411.33 1351.16 1410.49 1352.48 1409.65 1353.46 1408.43 1354.11 1406.83L1354.11 1402.88ZM1301.52 1402.88C1297.38 1402.88 1295.31 1404.32 1295.31 1407.2 1295.31 1408.61 1295.84 1409.72 1296.92 1410.54 1297.99 1411.35 1299.49 1411.76 1301.42 1411.76 1303.26 1411.76 1304.84 1411.33 1306.16 1410.49 1307.48 1409.65 1308.46 1408.43 1309.11 1406.83L1309.11 1402.88ZM1347.57 1389.72C1350.73 1389.72 1353.16 1390.51 1354.84 1392.09 1356.53 1393.67 1357.37 1396.01 1357.37 1399.11L1357.37 1414.1 1354.24 1414.1 1354.24 1410.33C1353.51 1411.59 1352.43 1412.57 1351 1413.27 1349.58 1413.98 1347.88 1414.33 1345.92 1414.33 1343.22 1414.33 1341.07 1413.69 1339.48 1412.4 1337.88 1411.11 1337.09 1409.41 1337.09 1407.29 1337.09 1405.24 1337.83 1403.58 1339.32 1402.33 1340.8 1401.07 1343.17 1400.44 1346.42 1400.44L1354.11 1400.44 1354.11 1398.97C1354.11 1396.88 1353.52 1395.3 1352.36 1394.21 1351.19 1393.12 1349.49 1392.57 1347.25 1392.57 1345.72 1392.57 1344.25 1392.83 1342.84 1393.33 1341.43 1393.84 1340.21 1394.54 1339.2 1395.43L1337.73 1392.99C1338.96 1391.94 1340.43 1391.14 1342.15 1390.57 1343.86 1390.01 1345.67 1389.72 1347.57 1389.72ZM1302.57 1389.72C1305.73 1389.72 1308.16 1390.51 1309.84 1392.09 1311.53 1393.67 1312.37 1396.01 1312.37 1399.11L1312.37 1414.1 1309.24 1414.1 1309.24 1410.33C1308.51 1411.59 1307.43 1412.57 1306 1413.27 1304.58 1413.98 1302.88 1414.33 1300.92 1414.33 1298.22 1414.33 1296.07 1413.69 1294.48 1412.4 1292.88 1411.11 1292.09 1409.41 1292.09 1407.29 1292.09 1405.24 1292.83 1403.58 1294.32 1402.33 1295.8 1401.07 1298.17 1400.44 1301.42 1400.44L1309.11 1400.44 1309.11 1398.97C1309.11 1396.88 1308.52 1395.3 1307.36 1394.21 1306.19 1393.12 1304.49 1392.57 1302.25 1392.57 1300.72 1392.57 1299.25 1392.83 1297.84 1393.33 1296.43 1393.84 1295.21 1394.54 1294.2 1395.43L1292.73 1392.99C1293.96 1391.94 1295.43 1391.14 1297.15 1390.57 1298.86 1390.01 1300.67 1389.72 1302.57 1389.72ZM1260.2 1384.85 1260.2 1411.16 1269.73 1411.16C1272.55 1411.16 1275.02 1410.6 1277.13 1409.48 1279.25 1408.36 1280.89 1406.81 1282.05 1404.83 1283.22 1402.85 1283.8 1400.58 1283.8 1398 1283.8 1395.43 1283.22 1393.15 1282.05 1391.17 1280.89 1389.19 1279.25 1387.64 1277.13 1386.52 1275.02 1385.41 1272.55 1384.85 1269.73 1384.85ZM1321.66 1384.62 1324.93 1384.62 1324.93 1389.91 1332.29 1389.91 1332.29 1392.67 1324.93 1392.67 1324.93 1407.11C1324.93 1408.55 1325.29 1409.65 1326.01 1410.4 1326.73 1411.15 1327.76 1411.53 1329.11 1411.53 1329.79 1411.53 1330.44 1411.42 1331.07 1411.2 1331.7 1410.99 1332.24 1410.68 1332.7 1410.28L1333.85 1412.63C1333.24 1413.18 1332.48 1413.6 1331.58 1413.89 1330.67 1414.19 1329.73 1414.33 1328.75 1414.33 1326.48 1414.33 1324.73 1413.72 1323.5 1412.49 1322.28 1411.26 1321.66 1409.53 1321.66 1407.29L1321.66 1392.67 1317.34 1392.67 1317.34 1389.91 1321.66 1389.91ZM1256.8 1381.9 1269.91 1381.9C1273.31 1381.9 1276.32 1382.58 1278.93 1383.95 1281.53 1385.31 1283.56 1387.21 1285 1389.65 1286.44 1392.09 1287.16 1394.87 1287.16 1398 1287.16 1401.13 1286.44 1403.91 1285 1406.35 1283.56 1408.79 1281.53 1410.69 1278.93 1412.05 1276.32 1413.42 1273.31 1414.1 1269.91 1414.1L1256.8 1414.1Z" stroke="#4472C4" stroke-width="3" stroke-linejoin="round" stroke-miterlimit="10" stroke-opacity="0" fill="#FFFFFF" fill-rule="evenodd"/><text fill="#000000" fill-opacity="0" font-family="Arial,Arial_MSFontService,sans-serif" font-size="32.4299" x="1256.8" y="1410.28">Data</text><path d="M1277.21 1457.88C1273.07 1457.88 1271 1459.32 1271 1462.2 1271 1463.61 1271.53 1464.72 1272.61 1465.54 1273.68 1466.35 1275.18 1466.76 1277.12 1466.76 1278.96 1466.76 1280.54 1466.33 1281.85 1465.49 1283.17 1464.65 1284.15 1463.43 1284.8 1461.83L1284.8 1457.88ZM1403.83 1447.57C1402.08 1447.57 1400.51 1447.94 1399.11 1448.68 1397.72 1449.41 1396.63 1450.46 1395.85 1451.81 1395.07 1453.15 1394.68 1454.69 1394.68 1456.41 1394.68 1458.12 1395.07 1459.66 1395.85 1461.01 1396.63 1462.35 1397.72 1463.41 1399.11 1464.16 1400.51 1464.91 1402.08 1465.28 1403.83 1465.28 1405.58 1465.28 1407.16 1464.91 1408.57 1464.16 1409.98 1463.41 1411.08 1462.35 1411.86 1461.01 1412.64 1459.66 1413.03 1458.12 1413.03 1456.41 1413.03 1454.69 1412.64 1453.16 1411.86 1451.83 1411.08 1450.49 1409.99 1449.45 1408.59 1448.7 1407.2 1447.95 1405.61 1447.57 1403.83 1447.57ZM1252.19 1447.53C1249.86 1447.53 1247.9 1448.27 1246.32 1449.76 1244.74 1451.25 1243.84 1453.19 1243.63 1455.58L1260.79 1455.58C1260.57 1453.19 1259.68 1451.25 1258.1 1449.76 1256.52 1448.27 1254.55 1447.53 1252.19 1447.53ZM1350.8 1444.91 1354.07 1444.91 1354.07 1469.1 1350.8 1469.1ZM1403.51 1444.72C1405.56 1444.72 1407.42 1445.14 1409.07 1445.96 1410.73 1446.79 1412.06 1447.99 1413.08 1449.55L1413.08 1444.91 1416.2 1444.91 1416.2 1466.16C1416.2 1470.27 1415.2 1473.31 1413.19 1475.29 1411.18 1477.27 1408.15 1478.26 1404.11 1478.26 1401.87 1478.26 1399.74 1477.93 1397.74 1477.27 1395.73 1476.61 1394.09 1475.69 1392.84 1474.53L1394.49 1472.05C1395.66 1473.09 1397.08 1473.9 1398.75 1474.48 1400.42 1475.07 1402.17 1475.36 1404.01 1475.36 1407.08 1475.36 1409.33 1474.64 1410.78 1473.22 1412.22 1471.79 1412.94 1469.58 1412.94 1466.57L1412.94 1463.49C1411.93 1465.02 1410.6 1466.19 1408.96 1466.99 1407.32 1467.78 1405.5 1468.18 1403.51 1468.18 1401.24 1468.18 1399.18 1467.68 1397.32 1466.69 1395.47 1465.69 1394.01 1464.29 1392.95 1462.5 1391.89 1460.71 1391.36 1458.67 1391.36 1456.41 1391.36 1454.14 1391.89 1452.11 1392.95 1450.33 1394.01 1448.55 1395.46 1447.17 1397.3 1446.19 1399.14 1445.21 1401.21 1444.72 1403.51 1444.72ZM1375.13 1444.72C1378.17 1444.72 1380.58 1445.6 1382.38 1447.37 1384.17 1449.13 1385.07 1451.7 1385.07 1455.07L1385.07 1469.1 1381.8 1469.1 1381.8 1455.39C1381.8 1452.88 1381.17 1450.96 1379.91 1449.64 1378.66 1448.32 1376.86 1447.67 1374.53 1447.67 1371.93 1447.67 1369.86 1448.44 1368.34 1449.99 1366.83 1451.54 1366.07 1453.68 1366.07 1456.41L1366.07 1469.1 1362.8 1469.1 1362.8 1444.91 1365.93 1444.91 1365.93 1449.37C1366.82 1447.9 1368.05 1446.75 1369.63 1445.94 1371.21 1445.13 1373.04 1444.72 1375.13 1444.72ZM1334.89 1444.72C1336.45 1444.72 1338.01 1444.93 1339.58 1445.34 1341.14 1445.76 1342.43 1446.3 1343.44 1446.98L1342.02 1449.6C1340.02 1448.22 1337.65 1447.53 1334.89 1447.53 1332.8 1447.53 1331.23 1447.9 1330.17 1448.63 1329.11 1449.37 1328.58 1450.33 1328.58 1451.53 1328.58 1452.45 1328.88 1453.19 1329.48 1453.74 1330.08 1454.29 1330.82 1454.7 1331.71 1454.96 1332.6 1455.22 1333.83 1455.49 1335.39 1455.76 1337.32 1456.13 1338.87 1456.5 1340.04 1456.87 1341.2 1457.23 1342.2 1457.86 1343.03 1458.75 1343.86 1459.64 1344.27 1460.87 1344.27 1462.43 1344.27 1464.55 1343.39 1466.23 1341.62 1467.47 1339.86 1468.71 1337.42 1469.33 1334.29 1469.33 1332.33 1469.33 1330.45 1469.05 1328.65 1468.48 1326.86 1467.91 1325.46 1467.2 1324.44 1466.34L1325.92 1463.77C1326.93 1464.56 1328.2 1465.21 1329.73 1465.72 1331.27 1466.23 1332.86 1466.48 1334.52 1466.48 1336.73 1466.48 1338.36 1466.13 1339.42 1465.44 1340.48 1464.75 1341 1463.78 1341 1462.52 1341 1461.63 1340.71 1460.94 1340.13 1460.43 1339.55 1459.92 1338.81 1459.54 1337.92 1459.28 1337.03 1459.02 1335.85 1458.77 1334.38 1458.52 1332.42 1458.15 1330.84 1457.78 1329.64 1457.39 1328.45 1457.01 1327.43 1456.36 1326.58 1455.44 1325.74 1454.52 1325.32 1453.25 1325.32 1451.62 1325.32 1449.6 1326.16 1447.94 1327.85 1446.65 1329.53 1445.37 1331.88 1444.72 1334.89 1444.72ZM1309.13 1444.72C1312.17 1444.72 1314.58 1445.6 1316.38 1447.37 1318.17 1449.13 1319.07 1451.7 1319.07 1455.07L1319.07 1469.1 1315.8 1469.1 1315.8 1455.39C1315.8 1452.88 1315.17 1450.96 1313.91 1449.64 1312.66 1448.32 1310.86 1447.67 1308.53 1447.67 1305.93 1447.67 1303.86 1448.44 1302.35 1449.99 1300.83 1451.54 1300.07 1453.68 1300.07 1456.41L1300.07 1469.1 1296.8 1469.1 1296.8 1444.91 1299.93 1444.91 1299.93 1449.37C1300.82 1447.9 1302.05 1446.75 1303.63 1445.94 1305.21 1445.13 1307.04 1444.72 1309.13 1444.72ZM1278.27 1444.72C1281.42 1444.72 1283.85 1445.51 1285.53 1447.09 1287.22 1448.67 1288.06 1451.01 1288.06 1454.11L1288.06 1469.1 1284.94 1469.1 1284.94 1465.33C1284.2 1466.59 1283.12 1467.57 1281.69 1468.27 1280.27 1468.98 1278.57 1469.33 1276.61 1469.33 1273.91 1469.33 1271.76 1468.69 1270.17 1467.4 1268.58 1466.11 1267.78 1464.41 1267.78 1462.29 1267.78 1460.24 1268.52 1458.58 1270.01 1457.33 1271.5 1456.07 1273.87 1455.44 1277.12 1455.44L1284.8 1455.44 1284.8 1453.97C1284.8 1451.88 1284.22 1450.3 1283.05 1449.21 1281.88 1448.12 1280.18 1447.57 1277.94 1447.57 1276.41 1447.57 1274.94 1447.83 1273.53 1448.33 1272.12 1448.84 1270.91 1449.54 1269.89 1450.43L1268.42 1447.99C1269.65 1446.94 1271.12 1446.14 1272.84 1445.57 1274.56 1445.01 1276.36 1444.72 1278.27 1444.72ZM1252.19 1444.72C1254.42 1444.72 1256.43 1445.24 1258.21 1446.29 1259.99 1447.33 1261.39 1448.78 1262.4 1450.63 1263.41 1452.49 1263.92 1454.61 1263.92 1457L1263.87 1458.02 1243.63 1458.02C1243.81 1460.53 1244.78 1462.56 1246.53 1464.11 1248.28 1465.66 1250.48 1466.43 1253.15 1466.43 1254.65 1466.43 1256.03 1466.17 1257.29 1465.63 1258.55 1465.09 1259.64 1464.3 1260.56 1463.26L1262.4 1465.38C1261.32 1466.66 1259.98 1467.64 1258.37 1468.32 1256.76 1468.99 1254.99 1469.33 1253.06 1469.33 1250.58 1469.33 1248.38 1468.8 1246.46 1467.74 1244.54 1466.69 1243.05 1465.22 1241.97 1463.35 1240.9 1461.48 1240.36 1459.36 1240.36 1457 1240.36 1454.64 1240.88 1452.53 1241.91 1450.66 1242.93 1448.78 1244.34 1447.33 1246.14 1446.29 1247.93 1445.24 1249.95 1444.72 1252.19 1444.72ZM1211.52 1436.63C1213.91 1436.63 1216.12 1437.02 1218.15 1437.82 1220.17 1438.62 1221.89 1439.78 1223.3 1441.32L1221.14 1443.48C1218.62 1440.93 1215.45 1439.66 1211.61 1439.66 1209.07 1439.66 1206.75 1440.24 1204.67 1441.41 1202.58 1442.57 1200.95 1444.17 1199.77 1446.19 1198.59 1448.22 1198 1450.49 1198 1453 1198 1455.52 1198.59 1457.79 1199.77 1459.81 1200.95 1461.83 1202.58 1463.43 1204.67 1464.59 1206.75 1465.76 1209.07 1466.34 1211.61 1466.34 1215.48 1466.34 1218.65 1465.05 1221.14 1462.48L1223.3 1464.64C1221.89 1466.17 1220.16 1467.35 1218.12 1468.16 1216.08 1468.97 1213.87 1469.38 1211.48 1469.38 1208.29 1469.38 1205.41 1468.67 1202.85 1467.26 1200.29 1465.85 1198.28 1463.9 1196.83 1461.4 1195.37 1458.9 1194.64 1456.1 1194.64 1453 1194.64 1449.9 1195.37 1447.11 1196.83 1444.61 1198.28 1442.11 1200.3 1440.15 1202.87 1438.74 1205.45 1437.33 1208.33 1436.63 1211.52 1436.63ZM1352.46 1434.97C1353.13 1434.97 1353.7 1435.19 1354.16 1435.64 1354.62 1436.08 1354.85 1436.61 1354.85 1437.22 1354.85 1437.9 1354.62 1438.47 1354.16 1438.93 1353.7 1439.39 1353.13 1439.62 1352.46 1439.62 1351.78 1439.62 1351.22 1439.39 1350.76 1438.93 1350.3 1438.47 1350.07 1437.91 1350.07 1437.27 1350.07 1436.66 1350.3 1436.12 1350.76 1435.66 1351.22 1435.2 1351.78 1434.97 1352.46 1434.97ZM1229.8 1434.97 1233.07 1434.97 1233.07 1469.1 1229.8 1469.1Z" stroke="#4472C4" stroke-width="3" stroke-linejoin="round" stroke-miterlimit="10" stroke-opacity="0" fill="#FFFFFF" fill-rule="evenodd"/><text fill="#000000" fill-opacity="0" font-family="Arial,Arial_MSFontService,sans-serif" font-size="43.286" x="1194.64" y="1472.84">Cleansing</text><path d="M2868.5 1420.5C2868.5 1295.13 2970.36 1193.5 3096 1193.5 3221.64 1193.5 3323.5 1295.13 3323.5 1420.5 3323.5 1545.87 3221.64 1647.5 3096 1647.5 2970.36 1647.5 2868.5 1545.87 2868.5 1420.5Z" stroke="#D9D9D9" stroke-width="4.58333" stroke-miterlimit="8" fill="#FFFFFF" fill-rule="evenodd"/><path d="M2897 1419.5C2897 1308.21 2987.21 1218 3098.5 1218 3209.79 1218 3300 1308.21 3300 1419.5 3300 1530.79 3209.79 1621 3098.5 1621 2987.21 1621 2897 1530.79 2897 1419.5Z" fill="#7F7F7F" fill-rule="evenodd"/><path d="M3143.55 1392.57C3141.83 1392.57 3140.29 1392.97 3138.93 1393.77 3137.56 1394.57 3136.49 1395.68 3135.71 1397.1 3134.93 1398.53 3134.54 1400.16 3134.54 1402 3134.54 1403.84 3134.93 1405.48 3135.71 1406.93 3136.49 1408.37 3137.56 1409.48 3138.93 1410.26 3140.29 1411.04 3141.83 1411.43 3143.55 1411.43 3145.24 1411.43 3146.77 1411.04 3148.15 1410.26 3149.53 1409.48 3150.61 1408.37 3151.39 1406.93 3152.18 1405.48 3152.57 1403.84 3152.57 1402 3152.57 1400.16 3152.18 1398.53 3151.39 1397.1 3150.61 1395.68 3149.53 1394.57 3148.15 1393.77 3146.77 1392.97 3145.24 1392.57 3143.55 1392.57ZM3112.7 1392.53C3110.37 1392.53 3108.41 1393.27 3106.83 1394.76 3105.26 1396.25 3104.36 1398.19 3104.14 1400.58L3121.3 1400.58C3121.09 1398.19 3120.19 1396.25 3118.61 1394.76 3117.03 1393.27 3115.06 1392.53 3112.7 1392.53ZM3085.7 1392.53C3083.37 1392.53 3081.41 1393.27 3079.83 1394.76 3078.26 1396.25 3077.36 1398.19 3077.14 1400.58L3094.3 1400.58C3094.09 1398.19 3093.19 1396.25 3091.61 1394.76 3090.03 1393.27 3088.06 1392.53 3085.7 1392.53ZM3143.78 1389.72C3146.05 1389.72 3148.11 1390.23 3149.95 1391.26 3151.79 1392.29 3153.23 1393.74 3154.27 1395.61 3155.31 1397.48 3155.83 1399.61 3155.83 1402 3155.83 1404.43 3155.31 1406.57 3154.27 1408.44 3153.23 1410.31 3151.79 1411.76 3149.97 1412.79 3148.14 1413.82 3146.08 1414.33 3143.78 1414.33 3141.82 1414.33 3140.05 1413.92 3138.47 1413.11 3136.89 1412.3 3135.59 1411.11 3134.58 1409.55L3134.58 1423.03 3131.32 1423.03 3131.32 1389.91 3134.44 1389.91 3134.44 1394.69C3135.42 1393.09 3136.72 1391.87 3138.33 1391.01 3139.94 1390.15 3141.76 1389.72 3143.78 1389.72ZM3112.7 1389.72C3114.94 1389.72 3116.95 1390.24 3118.73 1391.29 3120.5 1392.33 3121.9 1393.78 3122.91 1395.63 3123.92 1397.49 3124.43 1399.61 3124.43 1402L3124.38 1403.02 3104.14 1403.02C3104.33 1405.53 3105.29 1407.56 3107.04 1409.11 3108.79 1410.66 3111 1411.43 3113.67 1411.43 3115.17 1411.43 3116.55 1411.16 3117.81 1410.63 3119.06 1410.09 3120.15 1409.3 3121.07 1408.26L3122.91 1410.38C3121.84 1411.66 3120.5 1412.64 3118.89 1413.32 3117.28 1413.99 3115.51 1414.33 3113.57 1414.33 3111.09 1414.33 3108.89 1413.8 3106.97 1412.74 3105.06 1411.69 3103.56 1410.22 3102.49 1408.35 3101.41 1406.48 3100.88 1404.36 3100.88 1402 3100.88 1399.64 3101.39 1397.53 3102.42 1395.66 3103.45 1393.78 3104.86 1392.33 3106.65 1391.29 3108.44 1390.24 3110.46 1389.72 3112.7 1389.72ZM3085.7 1389.72C3087.94 1389.72 3089.95 1390.24 3091.73 1391.29 3093.5 1392.33 3094.9 1393.78 3095.91 1395.63 3096.92 1397.49 3097.43 1399.61 3097.43 1402L3097.38 1403.02 3077.14 1403.02C3077.33 1405.53 3078.29 1407.56 3080.04 1409.11 3081.79 1410.66 3084 1411.43 3086.67 1411.43 3088.17 1411.43 3089.55 1411.16 3090.81 1410.63 3092.06 1410.09 3093.15 1409.3 3094.07 1408.26L3095.91 1410.38C3094.84 1411.66 3093.5 1412.64 3091.89 1413.32 3090.28 1413.99 3088.51 1414.33 3086.57 1414.33 3084.09 1414.33 3081.89 1413.8 3079.97 1412.74 3078.06 1411.69 3076.56 1410.22 3075.49 1408.35 3074.41 1406.48 3073.88 1404.36 3073.88 1402 3073.88 1399.64 3074.39 1397.53 3075.42 1395.66 3076.45 1393.78 3077.86 1392.33 3079.65 1391.29 3081.44 1390.24 3083.46 1389.72 3085.7 1389.72ZM3042.41 1384.85 3042.41 1411.16 3051.93 1411.16C3054.75 1411.16 3057.22 1410.6 3059.34 1409.48 3061.45 1408.36 3063.09 1406.81 3064.26 1404.83 3065.42 1402.85 3066.01 1400.58 3066.01 1398 3066.01 1395.43 3065.42 1393.15 3064.26 1391.17 3063.09 1389.19 3061.45 1387.64 3059.34 1386.52 3057.22 1385.4 3054.75 1384.85 3051.93 1384.85ZM3039.01 1381.9 3052.12 1381.9C3055.52 1381.9 3058.52 1382.58 3061.13 1383.95 3063.74 1385.31 3065.76 1387.21 3067.2 1389.65 3068.64 1392.09 3069.37 1394.87 3069.37 1398 3069.37 1401.13 3068.64 1403.91 3067.2 1406.35 3065.76 1408.79 3063.74 1410.69 3061.13 1412.05 3058.52 1413.42 3055.52 1414.1 3052.12 1414.1L3039.01 1414.1Z" stroke="#4472C4" stroke-width="3" stroke-linejoin="round" stroke-miterlimit="10" stroke-opacity="0" fill="#FFFFFF" fill-rule="evenodd"/><text fill="#000000" fill-opacity="0" font-family="Arial,Arial_MSFontService,sans-serif" font-size="41.1239" x="3039.01" y="1417.88">Deep</text><path d="M3058.75 1457.88C3054.61 1457.88 3052.54 1459.32 3052.54 1462.2 3052.54 1463.61 3053.07 1464.72 3054.15 1465.54 3055.22 1466.35 3056.72 1466.76 3058.65 1466.76 3060.49 1466.76 3062.07 1466.33 3063.39 1465.49 3064.71 1464.65 3065.69 1463.43 3066.34 1461.83L3066.34 1457.88ZM3181.37 1447.57C3179.62 1447.57 3178.05 1447.94 3176.65 1448.68 3175.26 1449.41 3174.17 1450.46 3173.39 1451.81 3172.61 1453.15 3172.21 1454.69 3172.21 1456.41 3172.21 1458.12 3172.61 1459.66 3173.39 1461.01 3174.17 1462.35 3175.26 1463.4 3176.65 1464.16 3178.05 1464.91 3179.62 1465.28 3181.37 1465.28 3183.12 1465.28 3184.7 1464.91 3186.11 1464.16 3187.52 1463.4 3188.61 1462.35 3189.4 1461.01 3190.18 1459.66 3190.57 1458.12 3190.57 1456.41 3190.57 1454.69 3190.18 1453.16 3189.4 1451.83 3188.61 1450.49 3187.52 1449.45 3186.13 1448.7 3184.73 1447.95 3183.15 1447.57 3181.37 1447.57ZM3033.72 1447.53C3031.39 1447.53 3029.44 1448.27 3027.86 1449.76 3026.28 1451.25 3025.38 1453.19 3025.17 1455.58L3042.33 1455.58C3042.11 1453.19 3041.21 1451.25 3039.64 1449.76 3038.06 1448.27 3036.09 1447.53 3033.72 1447.53ZM3128.34 1444.91 3131.61 1444.91 3131.61 1469.1 3128.34 1469.1ZM3181.05 1444.72C3183.1 1444.72 3184.96 1445.14 3186.61 1445.96 3188.27 1446.79 3189.6 1447.99 3190.61 1449.55L3190.61 1444.91 3193.74 1444.91 3193.74 1466.16C3193.74 1470.27 3192.74 1473.31 3190.73 1475.29 3188.72 1477.27 3185.69 1478.26 3181.64 1478.26 3179.41 1478.26 3177.28 1477.93 3175.27 1477.27 3173.26 1476.61 3171.63 1475.69 3170.37 1474.53L3172.03 1472.05C3173.2 1473.09 3174.61 1473.9 3176.29 1474.48 3177.96 1475.07 3179.71 1475.36 3181.55 1475.36 3184.62 1475.36 3186.87 1474.64 3188.31 1473.22 3189.76 1471.79 3190.48 1469.58 3190.48 1466.57L3190.48 1463.49C3189.46 1465.02 3188.14 1466.19 3186.5 1466.99 3184.86 1467.78 3183.04 1468.18 3181.05 1468.18 3178.78 1468.18 3176.71 1467.68 3174.86 1466.69 3173 1465.69 3171.55 1464.29 3170.49 1462.5 3169.43 1460.71 3168.9 1458.67 3168.9 1456.41 3168.9 1454.14 3169.43 1452.11 3170.49 1450.33 3171.55 1448.55 3173 1447.17 3174.84 1446.19 3176.68 1445.21 3178.75 1444.72 3181.05 1444.72ZM3152.67 1444.72C3155.7 1444.72 3158.12 1445.6 3159.91 1447.37 3161.71 1449.13 3162.6 1451.7 3162.6 1455.07L3162.6 1469.1 3159.34 1469.1 3159.34 1455.39C3159.34 1452.88 3158.71 1450.96 3157.45 1449.64 3156.2 1448.32 3154.4 1447.67 3152.07 1447.67 3149.46 1447.67 3147.4 1448.44 3145.88 1449.99 3144.37 1451.54 3143.61 1453.68 3143.61 1456.41L3143.61 1469.1 3140.34 1469.1 3140.34 1444.91 3143.47 1444.91 3143.47 1449.37C3144.36 1447.9 3145.59 1446.75 3147.17 1445.94 3148.75 1445.13 3150.58 1444.72 3152.67 1444.72ZM3109.67 1444.72C3112.7 1444.72 3115.12 1445.6 3116.91 1447.37 3118.71 1449.13 3119.6 1451.7 3119.6 1455.07L3119.6 1469.1 3116.34 1469.1 3116.34 1455.39C3116.34 1452.88 3115.71 1450.96 3114.45 1449.64 3113.2 1448.32 3111.4 1447.67 3109.07 1447.67 3106.46 1447.67 3104.4 1448.44 3102.88 1449.99 3101.37 1451.54 3100.61 1453.68 3100.61 1456.41L3100.61 1469.1 3097.34 1469.1 3097.34 1444.91 3100.47 1444.91 3100.47 1449.37C3101.36 1447.9 3102.59 1446.75 3104.17 1445.94 3105.75 1445.13 3107.58 1444.72 3109.67 1444.72ZM3090.53 1444.72 3090.53 1447.9 3089.75 1447.85C3087.2 1447.85 3085.21 1448.63 3083.77 1450.2 3082.33 1451.76 3081.61 1453.95 3081.61 1456.77L3081.61 1469.1 3078.34 1469.1 3078.34 1444.91 3081.47 1444.91 3081.47 1449.64C3082.24 1448.02 3083.38 1446.79 3084.9 1445.96 3086.41 1445.14 3088.29 1444.72 3090.53 1444.72ZM3059.8 1444.72C3062.96 1444.72 3065.39 1445.51 3067.07 1447.09 3068.76 1448.67 3069.6 1451.01 3069.6 1454.11L3069.6 1469.1 3066.47 1469.1 3066.47 1465.33C3065.74 1466.59 3064.66 1467.57 3063.23 1468.27 3061.81 1468.98 3060.11 1469.33 3058.15 1469.33 3055.45 1469.33 3053.3 1468.69 3051.71 1467.4 3050.11 1466.11 3049.32 1464.41 3049.32 1462.29 3049.32 1460.24 3050.06 1458.58 3051.55 1457.33 3053.03 1456.07 3055.4 1455.44 3058.65 1455.44L3066.34 1455.44 3066.34 1453.97C3066.34 1451.88 3065.75 1450.29 3064.59 1449.21 3063.42 1448.12 3061.72 1447.57 3059.48 1447.57 3057.95 1447.57 3056.48 1447.83 3055.07 1448.33 3053.66 1448.84 3052.44 1449.54 3051.43 1450.43L3049.96 1447.99C3051.19 1446.94 3052.66 1446.14 3054.38 1445.57 3056.09 1445 3057.9 1444.72 3059.8 1444.72ZM3033.72 1444.72C3035.96 1444.72 3037.97 1445.24 3039.75 1446.29 3041.53 1447.33 3042.92 1448.78 3043.94 1450.63 3044.95 1452.49 3045.45 1454.61 3045.45 1457L3045.41 1458.02 3025.17 1458.02C3025.35 1460.53 3026.32 1462.56 3028.07 1464.11 3029.81 1465.66 3032.02 1466.43 3034.69 1466.43 3036.19 1466.43 3037.57 1466.16 3038.83 1465.63 3040.09 1465.09 3041.18 1464.3 3042.1 1463.26L3043.94 1465.38C3042.86 1466.66 3041.52 1467.64 3039.91 1468.32 3038.3 1468.99 3036.53 1469.33 3034.6 1469.33 3032.11 1469.33 3029.91 1468.8 3028 1467.74 3026.08 1466.69 3024.59 1465.22 3023.51 1463.35 3022.44 1461.48 3021.9 1459.36 3021.9 1457 3021.9 1454.64 3022.42 1452.53 3023.44 1450.66 3024.47 1448.78 3025.88 1447.33 3027.68 1446.29 3029.47 1445.24 3031.49 1444.72 3033.72 1444.72ZM2998.03 1436.9 3001.43 1436.9 3001.43 1466.16 3019.47 1466.16 3019.47 1469.1 2998.03 1469.1ZM3130 1434.97C3130.67 1434.97 3131.24 1435.19 3131.7 1435.64 3132.16 1436.08 3132.39 1436.61 3132.39 1437.22 3132.39 1437.9 3132.16 1438.47 3131.7 1438.93 3131.24 1439.39 3130.67 1439.62 3130 1439.62 3129.32 1439.62 3128.75 1439.39 3128.29 1438.93 3127.83 1438.47 3127.6 1437.91 3127.6 1437.27 3127.6 1436.66 3127.83 1436.12 3128.29 1435.66 3128.75 1435.2 3129.32 1434.97 3130 1434.97Z" stroke="#4472C4" stroke-width="3" stroke-linejoin="round" stroke-miterlimit="10" stroke-opacity="0" fill="#FFFFFF" fill-rule="evenodd"/><text fill="#000000" fill-opacity="0" font-family="Arial,Arial_MSFontService,sans-serif" font-size="43.286" x="2998.03" y="1472.84">Learning</text><path d="M2095.81 1825.36C2090.86 1825.36 2088.38 1827.09 2088.38 1830.53 2088.38 1832.22 2089.03 1833.55 2090.31 1834.52 2091.59 1835.49 2093.39 1835.98 2095.7 1835.98 2097.9 1835.98 2099.79 1835.47 2101.36 1834.46 2102.94 1833.46 2104.11 1832 2104.88 1830.09L2104.88 1825.36ZM2366.58 1813.04C2364.53 1813.04 2362.69 1813.52 2361.06 1814.47 2359.42 1815.43 2358.14 1816.76 2357.21 1818.46 2356.27 1820.16 2355.8 1822.12 2355.8 1824.32 2355.8 1826.52 2356.27 1828.48 2357.21 1830.2 2358.14 1831.93 2359.42 1833.26 2361.06 1834.19 2362.69 1835.12 2364.53 1835.59 2366.58 1835.59 2368.6 1835.59 2370.43 1835.12 2372.08 1834.19 2373.73 1833.26 2375.03 1831.93 2375.96 1830.2 2376.9 1828.48 2377.36 1826.52 2377.36 1824.32 2377.36 1822.12 2376.9 1820.16 2375.96 1818.46 2375.03 1816.76 2373.73 1815.43 2372.08 1814.47 2370.43 1813.52 2368.6 1813.04 2366.58 1813.04ZM2186.78 1813.04C2184.73 1813.04 2182.88 1813.51 2181.25 1814.44 2179.62 1815.38 2178.34 1816.71 2177.4 1818.43 2176.47 1820.16 2176 1822.12 2176 1824.32 2176 1826.52 2176.47 1828.48 2177.4 1830.2 2178.34 1831.93 2179.62 1833.26 2181.25 1834.19 2182.88 1835.12 2184.73 1835.59 2186.78 1835.59 2188.79 1835.59 2190.62 1835.12 2192.25 1834.19 2193.88 1833.26 2195.17 1831.93 2196.1 1830.2 2197.04 1828.48 2197.5 1826.52 2197.5 1824.32 2197.5 1822.12 2197.04 1820.16 2196.1 1818.43 2195.17 1816.71 2193.88 1815.38 2192.25 1814.44 2190.62 1813.51 2188.79 1813.04 2186.78 1813.04ZM2005.78 1813.04C2003.73 1813.04 2001.88 1813.51 2000.25 1814.44 1998.62 1815.38 1997.34 1816.71 1996.4 1818.43 1995.47 1820.16 1995 1822.12 1995 1824.32 1995 1826.52 1995.47 1828.48 1996.4 1830.2 1997.34 1831.93 1998.62 1833.26 2000.25 1834.19 2001.88 1835.12 2003.73 1835.59 2005.78 1835.59 2007.83 1835.59 2009.67 1835.12 2011.31 1834.19 2012.94 1833.26 2014.21 1831.93 2015.13 1830.2 2016.05 1828.48 2016.5 1826.52 2016.5 1824.32 2016.5 1822.12 2016.05 1820.16 2015.13 1818.43 2014.21 1816.71 2012.94 1815.38 2011.31 1814.44 2009.67 1813.51 2007.83 1813.04 2005.78 1813.04ZM2500.17 1812.99C2497.39 1812.99 2495.05 1813.88 2493.16 1815.66 2491.27 1817.43 2490.2 1819.75 2489.94 1822.61L2510.46 1822.61C2510.2 1819.75 2509.13 1817.43 2507.24 1815.66 2505.35 1813.88 2503 1812.99 2500.17 1812.99ZM2400.17 1812.99C2397.39 1812.99 2395.05 1813.88 2393.16 1815.66 2391.27 1817.43 2390.2 1819.75 2389.94 1822.61L2410.46 1822.61C2410.2 1819.75 2409.13 1817.43 2407.24 1815.66 2405.35 1813.88 2403 1812.99 2400.17 1812.99ZM2153.17 1812.99C2150.39 1812.99 2148.05 1813.88 2146.16 1815.66 2144.27 1817.43 2143.2 1819.75 2142.94 1822.61L2163.46 1822.61C2163.2 1819.75 2162.13 1817.43 2160.24 1815.66 2158.35 1813.88 2156 1812.99 2153.17 1812.99ZM2436.95 1809.85 2440.86 1809.85 2440.86 1838.78 2436.95 1838.78ZM2336.95 1809.85 2340.86 1809.85 2340.86 1838.78 2336.95 1838.78ZM1934.68 1809.85 1938.58 1809.85 1938.58 1826.24C1938.58 1829.29 1939.34 1831.6 1940.84 1833.17 1942.34 1834.75 1944.49 1835.54 1947.27 1835.54 1950.32 1835.54 1952.72 1834.61 1954.48 1832.76 1956.24 1830.91 1957.12 1828.33 1957.12 1825.03L1957.12 1809.85 1961.02 1809.85 1961.02 1838.78 1957.28 1838.78 1957.28 1833.5C1956.26 1835.26 1954.85 1836.63 1953.05 1837.6 1951.25 1838.57 1949.2 1839.06 1946.89 1839.06 1943.11 1839.06 1940.13 1838 1937.95 1835.9 1935.77 1833.79 1934.68 1830.7 1934.68 1826.63ZM2500.17 1809.63C2502.85 1809.63 2505.25 1810.26 2507.38 1811.5 2509.51 1812.75 2511.17 1814.48 2512.38 1816.7 2513.59 1818.92 2514.2 1821.46 2514.2 1824.32L2514.14 1825.53 2489.94 1825.53C2490.16 1828.53 2491.32 1830.96 2493.41 1832.81 2495.5 1834.67 2498.14 1835.59 2501.33 1835.59 2503.12 1835.59 2504.77 1835.27 2506.28 1834.63 2507.78 1833.99 2509.08 1833.04 2510.18 1831.8L2512.38 1834.33C2511.1 1835.87 2509.5 1837.04 2507.57 1837.85 2505.65 1838.65 2503.53 1839.06 2501.22 1839.06 2498.25 1839.06 2495.62 1838.42 2493.33 1837.16 2491.03 1835.9 2489.25 1834.14 2487.96 1831.91 2486.68 1829.67 2486.04 1827.14 2486.04 1824.32 2486.04 1821.49 2486.65 1818.96 2487.88 1816.73 2489.11 1814.49 2490.8 1812.75 2492.94 1811.5 2495.09 1810.26 2497.5 1809.63 2500.17 1809.63ZM2466.69 1809.63C2470.32 1809.63 2473.21 1810.69 2475.36 1812.79 2477.5 1814.9 2478.57 1817.97 2478.57 1822.01L2478.57 1838.78 2474.67 1838.78 2474.67 1822.39C2474.67 1819.39 2473.92 1817.09 2472.41 1815.52 2470.91 1813.94 2468.77 1813.15 2465.98 1813.15 2462.86 1813.15 2460.4 1814.08 2458.58 1815.93 2456.77 1817.78 2455.86 1820.34 2455.86 1823.6L2455.86 1838.78 2451.95 1838.78 2451.95 1809.85 2455.69 1809.85 2455.69 1815.19C2456.76 1813.43 2458.23 1812.06 2460.12 1811.09 2462.01 1810.12 2464.2 1809.63 2466.69 1809.63ZM2400.17 1809.63C2402.85 1809.63 2405.25 1810.26 2407.38 1811.5 2409.51 1812.75 2411.17 1814.48 2412.38 1816.7 2413.59 1818.92 2414.2 1821.46 2414.2 1824.32L2414.14 1825.53 2389.94 1825.53C2390.16 1828.53 2391.32 1830.96 2393.41 1832.81 2395.5 1834.67 2398.14 1835.59 2401.33 1835.59 2403.12 1835.59 2404.77 1835.27 2406.28 1834.63 2407.78 1833.99 2409.08 1833.04 2410.18 1831.8L2412.38 1834.33C2411.1 1835.87 2409.5 1837.04 2407.57 1837.85 2405.65 1838.65 2403.53 1839.06 2401.22 1839.06 2398.25 1839.06 2395.62 1838.42 2393.33 1837.16 2391.03 1835.9 2389.25 1834.14 2387.96 1831.91 2386.68 1829.67 2386.04 1827.14 2386.04 1824.32 2386.04 1821.49 2386.65 1818.96 2387.88 1816.73 2389.11 1814.49 2390.8 1812.75 2392.94 1811.5 2395.09 1810.26 2397.5 1809.63 2400.17 1809.63ZM2366.86 1809.63C2369.57 1809.63 2372.03 1810.25 2374.23 1811.47 2376.43 1812.7 2378.15 1814.44 2379.4 1816.67 2380.65 1818.91 2381.27 1821.46 2381.27 1824.32 2381.27 1827.21 2380.65 1829.78 2379.4 1832.02 2378.15 1834.25 2376.44 1835.99 2374.26 1837.21 2372.07 1838.44 2369.61 1839.06 2366.86 1839.06 2364.51 1839.06 2362.39 1838.57 2360.51 1837.6 2358.62 1836.63 2357.07 1835.21 2355.86 1833.34L2355.86 1849.45 2351.95 1849.45 2351.95 1809.85 2355.69 1809.85 2355.69 1815.57C2356.87 1813.67 2358.42 1812.2 2360.34 1811.17 2362.27 1810.15 2364.44 1809.63 2366.86 1809.63ZM2153.17 1809.63C2155.85 1809.63 2158.25 1810.26 2160.38 1811.5 2162.51 1812.75 2164.17 1814.48 2165.38 1816.7 2166.59 1818.92 2167.2 1821.46 2167.2 1824.32L2167.14 1825.53 2142.94 1825.53C2143.16 1828.53 2144.32 1830.96 2146.41 1832.81 2148.5 1834.67 2151.14 1835.59 2154.33 1835.59 2156.12 1835.59 2157.78 1835.27 2159.28 1834.63 2160.78 1833.99 2162.08 1833.04 2163.18 1831.8L2165.38 1834.33C2164.1 1835.87 2162.5 1837.04 2160.57 1837.85 2158.65 1838.65 2156.53 1839.06 2154.22 1839.06 2151.25 1839.06 2148.62 1838.42 2146.33 1837.16 2144.03 1835.9 2142.25 1834.14 2140.96 1831.91 2139.68 1829.67 2139.04 1827.14 2139.04 1824.32 2139.04 1821.49 2139.65 1818.96 2140.88 1816.73 2142.11 1814.49 2143.8 1812.75 2145.94 1811.5 2148.09 1810.26 2150.5 1809.63 2153.17 1809.63ZM2097.07 1809.63C2100.85 1809.63 2103.75 1810.58 2105.76 1812.46 2107.78 1814.35 2108.79 1817.15 2108.79 1820.85L2108.79 1838.78 2105.05 1838.78 2105.05 1834.27C2104.17 1835.78 2102.88 1836.95 2101.17 1837.79 2099.47 1838.64 2097.44 1839.06 2095.09 1839.06 2091.87 1839.06 2089.3 1838.29 2087.39 1836.75 2085.49 1835.21 2084.53 1833.17 2084.53 1830.64 2084.53 1828.19 2085.42 1826.21 2087.2 1824.7 2088.98 1823.2 2091.81 1822.45 2095.7 1822.45L2104.88 1822.45 2104.88 1820.69C2104.88 1818.19 2104.19 1816.3 2102.79 1814.99 2101.4 1813.69 2099.36 1813.04 2096.69 1813.04 2094.85 1813.04 2093.1 1813.34 2091.41 1813.95 2089.72 1814.55 2088.27 1815.39 2087.06 1816.45L2085.3 1813.54C2086.77 1812.29 2088.53 1811.33 2090.58 1810.65 2092.64 1809.97 2094.8 1809.63 2097.07 1809.63ZM2042.31 1809.63C2044.73 1809.63 2046.83 1810.15 2048.61 1811.17 2050.38 1812.2 2051.71 1813.72 2052.59 1815.74 2053.66 1813.83 2055.19 1812.34 2057.19 1811.26 2059.18 1810.17 2061.47 1809.63 2064.03 1809.63 2067.66 1809.63 2070.51 1810.68 2072.59 1812.77 2074.66 1814.86 2075.69 1817.94 2075.69 1822.01L2075.69 1838.78 2071.79 1838.78 2071.79 1822.39C2071.79 1819.39 2071.06 1817.09 2069.62 1815.52 2068.17 1813.94 2066.12 1813.15 2063.48 1813.15 2060.48 1813.15 2058.11 1814.08 2056.39 1815.93 2054.67 1817.78 2053.8 1820.34 2053.8 1823.6L2053.8 1838.78 2049.9 1838.78 2049.9 1822.39C2049.9 1819.39 2049.17 1817.09 2047.73 1815.52 2046.28 1813.94 2044.22 1813.15 2041.54 1813.15 2038.57 1813.15 2036.21 1814.08 2034.47 1815.93 2032.73 1817.78 2031.86 1820.34 2031.86 1823.6L2031.86 1838.78 2027.95 1838.78 2027.95 1809.85 2031.69 1809.85 2031.69 1815.13C2032.72 1813.37 2034.15 1812.02 2035.98 1811.06 2037.82 1810.11 2039.93 1809.63 2042.31 1809.63ZM2005.78 1809.63C2008.57 1809.63 2011.08 1810.26 2013.31 1811.5 2015.55 1812.75 2017.3 1814.49 2018.57 1816.73 2019.83 1818.96 2020.46 1821.49 2020.46 1824.32 2020.46 1827.14 2019.83 1829.67 2018.57 1831.91 2017.3 1834.14 2015.55 1835.9 2013.31 1837.16 2011.08 1838.42 2008.57 1839.06 2005.78 1839.06 2002.99 1839.06 2000.48 1838.42 1998.24 1837.16 1996.01 1835.9 1994.25 1834.14 1992.96 1831.91 1991.68 1829.67 1991.04 1827.14 1991.04 1824.32 1991.04 1821.49 1991.68 1818.96 1992.96 1816.73 1994.25 1814.49 1996.01 1812.75 1998.24 1811.5 2000.48 1810.26 2002.99 1809.63 2005.78 1809.63ZM2241.2 1804.52 2231.96 1825.2 2250.44 1825.2ZM1909.2 1804.52 1899.96 1825.2 1918.44 1825.2ZM2301.85 1803.8 2301.85 1823.05 2312.08 1823.05C2315.89 1823.05 2318.81 1822.22 2320.82 1820.55 2322.84 1818.88 2323.85 1816.53 2323.85 1813.48 2323.85 1810.37 2322.84 1807.97 2320.82 1806.3 2318.81 1804.64 2315.89 1803.8 2312.08 1803.8ZM2120.61 1803.53 2124.52 1803.53 2124.52 1809.85 2133.32 1809.85 2133.32 1813.15 2124.52 1813.15 2124.52 1830.42C2124.52 1832.15 2124.95 1833.46 2125.81 1834.35 2126.67 1835.25 2127.91 1835.7 2129.52 1835.7 2130.33 1835.7 2131.11 1835.57 2131.86 1835.32 2132.61 1835.06 2133.26 1834.69 2133.81 1834.22L2135.19 1837.02C2134.46 1837.68 2133.55 1838.19 2132.47 1838.53 2131.38 1838.88 2130.26 1839.06 2129.08 1839.06 2126.37 1839.06 2124.28 1838.32 2122.81 1836.86 2121.35 1835.39 2120.61 1833.32 2120.61 1830.64L2120.61 1813.15 2115.44 1813.15 2115.44 1809.85 2120.61 1809.85ZM1972.61 1803.53 1976.52 1803.53 1976.52 1809.85 1985.32 1809.85 1985.32 1813.15 1976.52 1813.15 1976.52 1830.42C1976.52 1832.15 1976.95 1833.46 1977.81 1834.35 1978.67 1835.25 1979.91 1835.7 1981.52 1835.7 1982.33 1835.7 1983.11 1835.57 1983.86 1835.32 1984.61 1835.06 1985.26 1834.69 1985.81 1834.22L1987.19 1837.02C1986.46 1837.68 1985.55 1838.19 1984.47 1838.53 1983.38 1838.88 1982.26 1839.06 1981.08 1839.06 1978.37 1839.06 1976.28 1838.32 1974.81 1836.86 1973.35 1835.39 1972.61 1833.32 1972.61 1830.64L1972.61 1813.15 1967.44 1813.15 1967.44 1809.85 1972.61 1809.85ZM2297.78 1800.28 2312.19 1800.28C2317.1 1800.28 2320.95 1801.46 2323.74 1803.8 2326.53 1806.15 2327.92 1809.38 2327.92 1813.48 2327.92 1817.59 2326.53 1820.81 2323.74 1823.14 2320.95 1825.46 2317.1 1826.63 2312.19 1826.63L2301.85 1826.63 2301.85 1838.78 2297.78 1838.78ZM2266.78 1800.28 2270.85 1800.28 2270.85 1838.78 2266.78 1838.78ZM2239.22 1800.28 2243.23 1800.28 2260.83 1838.78 2256.54 1838.78 2251.92 1828.5 2230.47 1828.5 2225.85 1838.78 2221.62 1838.78ZM1907.22 1800.28 1911.23 1800.28 1928.83 1838.78 1924.54 1838.78 1919.92 1828.5 1898.47 1828.5 1893.85 1838.78 1889.62 1838.78ZM2438.93 1797.97C2439.74 1797.97 2440.42 1798.24 2440.97 1798.77 2441.52 1799.3 2441.79 1799.93 2441.79 1800.67 2441.79 1801.47 2441.52 1802.15 2440.97 1802.7 2440.42 1803.25 2439.74 1803.53 2438.93 1803.53 2438.13 1803.53 2437.45 1803.25 2436.9 1802.7 2436.35 1802.15 2436.07 1801.49 2436.07 1800.72 2436.07 1799.99 2436.35 1799.35 2436.9 1798.8 2437.45 1798.25 2438.13 1797.97 2438.93 1797.97ZM2421.95 1797.97 2425.86 1797.97 2425.86 1838.78 2421.95 1838.78ZM2338.93 1797.97C2339.74 1797.97 2340.42 1798.24 2340.97 1798.77 2341.52 1799.3 2341.79 1799.93 2341.79 1800.67 2341.79 1801.47 2341.52 1802.15 2340.97 1802.7 2340.42 1803.25 2339.74 1803.53 2338.93 1803.53 2338.13 1803.53 2337.45 1803.25 2336.9 1802.7 2336.35 1802.15 2336.07 1801.49 2336.07 1800.72 2336.07 1799.99 2336.35 1799.35 2336.9 1798.8 2337.45 1798.25 2338.13 1797.97 2338.93 1797.97ZM2197.45 1797.97 2201.35 1797.97 2201.35 1838.78 2197.61 1838.78 2197.61 1833.06C2196.44 1835.01 2194.89 1836.49 2192.97 1837.52 2191.04 1838.54 2188.87 1839.06 2186.45 1839.06 2183.74 1839.06 2181.28 1838.43 2179.08 1837.19 2176.88 1835.94 2175.16 1834.2 2173.91 1831.96 2172.66 1829.73 2172.04 1827.18 2172.04 1824.32 2172.04 1821.46 2172.66 1818.91 2173.91 1816.67 2175.16 1814.44 2176.88 1812.7 2179.08 1811.47 2181.28 1810.25 2183.74 1809.63 2186.45 1809.63 2188.79 1809.63 2190.91 1810.12 2192.8 1811.09 2194.69 1812.06 2196.24 1813.48 2197.45 1815.35Z" stroke="#4472C4" stroke-width="3" stroke-linejoin="round" stroke-miterlimit="10" stroke-opacity="0" fill-rule="evenodd"/><text fill="#000000" fill-opacity="0" font-family="Arial,Arial_MSFontService,sans-serif" font-size="51.4801" x="1889.62" y="1843.02">Automated AI Pipeline</text><path d="M1764 1877C1754.61 1877 1747 1869.39 1747 1860L1747 1792C1747 1782.61 1754.61 1775 1764 1775M2650 1775C2659.39 1775 2667 1782.61 2667 1792L2667 1860C2667 1869.39 2659.39 1877 2650 1877" stroke="#BFBFBF" stroke-width="2.29167" stroke-miterlimit="8" fill="none" fill-rule="evenodd"/><path d="M3188 1807C3188 1905.31 3149.02 1985 3100.95 1985L1312.05 1985C1263.98 1985 1225 1905.31 1225 1807" stroke="#BFBFBF" stroke-width="2.29167" stroke-miterlimit="8" fill="none" fill-rule="evenodd"/><rect x="1900" y="1935" width="613" height="100" fill="#FFFFFF"/><path d="M2296.24 1980.22C2294.3 1980.22 2292.67 1980.77 2291.35 1981.87 2290.03 1982.97 2289.22 1984.47 2288.93 1986.38L2303.5 1986.38C2303.21 1984.51 2302.4 1983.01 2301.08 1981.89 2299.76 1980.77 2298.15 1980.22 2296.24 1980.22ZM2205.24 1980.22C2203.3 1980.22 2201.67 1980.77 2200.35 1981.87 2199.03 1982.97 2198.22 1984.47 2197.93 1986.38L2212.5 1986.38C2212.21 1984.51 2211.4 1983.01 2210.08 1981.89 2208.76 1980.77 2207.15 1980.22 2205.24 1980.22ZM2245.2 1974.17 2254.06 1974.17 2262.25 1994.3 2270.72 1974.17 2278.97 1974.17 2266.49 2003.76 2257.63 2003.76ZM2097.65 1974 2091.55 1988.74 2103.76 1988.74ZM2335.97 1973.73 2335.97 1981.65C2335.02 1981.57 2334.38 1981.54 2334.05 1981.54 2331.59 1981.54 2329.67 1982.22 2328.27 1983.6 2326.88 1984.97 2326.18 1987.04 2326.18 1989.79L2326.18 2003.76 2317.6 2003.76 2317.6 1974.17 2325.8 1974.17 2325.8 1978.07C2326.83 1976.64 2328.21 1975.56 2329.95 1974.83 2331.69 1974.09 2333.7 1973.73 2335.97 1973.73ZM2296.19 1973.73C2299.09 1973.73 2301.71 1974.35 2304.05 1975.6 2306.4 1976.84 2308.24 1978.63 2309.58 1980.96 2310.92 1983.29 2311.59 1985.99 2311.59 1989.07 2311.59 1989.18 2311.53 1989.95 2311.42 1991.38L2289.04 1991.38C2289.44 1993.21 2290.4 1994.66 2291.9 1995.73 2293.4 1996.79 2295.27 1997.32 2297.51 1997.32 2299.05 1997.32 2300.42 1997.09 2301.61 1996.63 2302.8 1996.17 2303.91 1995.45 2304.93 1994.46L2309.5 1999.41C2306.71 2002.6 2302.64 2004.2 2297.29 2004.2 2293.95 2004.2 2291 2003.54 2288.43 2002.24 2285.87 2000.94 2283.89 1999.14 2282.49 1996.83 2281.1 1994.52 2280.4 1991.89 2280.4 1988.96 2280.4 1986.06 2281.09 1983.45 2282.47 1981.12 2283.84 1978.79 2285.73 1976.98 2288.13 1975.68 2290.53 1974.38 2293.22 1973.73 2296.19 1973.73ZM2244.97 1973.73 2244.97 1981.65C2244.02 1981.57 2243.38 1981.54 2243.05 1981.54 2240.59 1981.54 2238.67 1982.22 2237.27 1983.6 2235.88 1984.97 2235.18 1987.04 2235.18 1989.79L2235.18 2003.76 2226.6 2003.76 2226.6 1974.17 2234.8 1974.17 2234.8 1978.07C2235.83 1976.64 2237.21 1975.56 2238.95 1974.83 2240.69 1974.09 2242.7 1973.73 2244.97 1973.73ZM2205.19 1973.73C2208.09 1973.73 2210.71 1974.35 2213.05 1975.6 2215.4 1976.84 2217.24 1978.63 2218.58 1980.96 2219.92 1983.29 2220.59 1985.99 2220.59 1989.07 2220.59 1989.18 2220.53 1989.95 2220.42 1991.38L2198.04 1991.38C2198.44 1993.21 2199.4 1994.66 2200.9 1995.73 2202.4 1996.79 2204.27 1997.32 2206.51 1997.32 2208.05 1997.32 2209.42 1997.09 2210.61 1996.63 2211.8 1996.17 2212.91 1995.45 2213.93 1994.46L2218.5 1999.41C2215.71 2002.6 2211.64 2004.2 2206.29 2004.2 2202.95 2004.2 2200 2003.54 2197.43 2002.24 2194.87 2000.94 2192.89 1999.14 2191.49 1996.83 2190.1 1994.52 2189.4 1991.89 2189.4 1988.96 2189.4 1986.06 2190.09 1983.45 2191.47 1981.12 2192.84 1978.79 2194.73 1976.98 2197.13 1975.68 2199.53 1974.38 2202.22 1973.73 2205.19 1973.73ZM2123.21 1965.26 2132.12 1965.26 2132.12 2003.76 2123.21 2003.76ZM2093.31 1965.26 2102.11 1965.26 2119.32 2003.76 2109.97 2003.76 2106.56 1995.51 2088.69 1995.51 2085.28 2003.76 2076.15 2003.76ZM2171.18 1964.6C2173.64 1964.6 2176.04 1964.89 2178.38 1965.48 2180.73 1966.06 2182.78 1966.91 2184.54 1968.01L2181.79 1974.77C2178.24 1972.75 2174.68 1971.75 2171.12 1971.75 2168.63 1971.75 2166.79 1972.15 2165.6 1972.96 2164.41 1973.76 2163.81 1974.83 2163.81 1976.15 2163.81 1977.47 2164.5 1978.45 2165.87 1979.09 2167.25 1979.73 2169.35 1980.36 2172.17 1980.99 2175.1 1981.68 2177.5 1982.38 2179.37 1983.08 2181.24 1983.77 2182.85 1984.87 2184.19 1986.38 2185.53 1987.88 2186.19 1989.91 2186.19 1992.48 2186.19 1994.68 2185.58 1996.69 2184.35 1998.5 2183.12 2000.32 2181.28 2001.76 2178.82 2002.82 2176.37 2003.88 2173.38 2004.42 2169.86 2004.42 2166.82 2004.42 2163.87 2004 2161.03 2003.18 2158.19 2002.35 2155.91 2001.28 2154.18 1999.96L2157.21 1993.25C2158.86 1994.46 2160.82 1995.43 2163.09 1996.17 2165.37 1996.9 2167.64 1997.27 2169.91 1997.27 2172.44 1997.27 2174.31 1996.89 2175.52 1996.14 2176.73 1995.39 2177.34 1994.39 2177.34 1993.14 2177.34 1992.22 2176.98 1991.46 2176.27 1990.86 2175.55 1990.25 2174.64 1989.77 2173.52 1989.4 2172.4 1989.03 2170.89 1988.63 2168.98 1988.19 2166.05 1987.49 2163.64 1986.8 2161.77 1986.1 2159.9 1985.4 2158.3 1984.29 2156.96 1982.75 2155.62 1981.21 2154.95 1979.15 2154.95 1976.59 2154.95 1974.35 2155.56 1972.32 2156.77 1970.51 2157.98 1968.69 2159.8 1967.25 2162.24 1966.19 2164.68 1965.13 2167.66 1964.6 2171.18 1964.6Z" stroke="#4472C4" stroke-width="3" stroke-linejoin="round" stroke-miterlimit="10" stroke-opacity="0" fill-rule="evenodd"/><text fill="#000000" fill-opacity="0" font-family="Arial,Arial_MSFontService,sans-serif" font-size="39.8201" x="2076.15" y="1999.44">AI Server</text></g></svg>