<svg width="2806" height="510" xmlns="http://www.w3.org/2000/svg" xmlns:xlink="http://www.w3.org/1999/xlink" xml:space="preserve" overflow="hidden"><defs><clipPath id="clip0"><rect x="714" y="1665" width="2806" height="510"/></clipPath></defs><g clip-path="url(#clip0)" transform="translate(-714 -1665)"><path d="M0 282.5 88.2501 282.5 88.2501 0 264.75 0 264.75 282.5 353 282.5 176.5 459Z" fill="#F2F2F2" fill-rule="evenodd" transform="matrix(-6.12323e-17 -1 -1 6.12323e-17 1173 2091)"/><path d="M3343.5 2091 3343.5 2002.75 3060 2002.75 3060 1826.25 3343.5 1826.25 3343.5 1738 3520 1914.5Z" fill="#F2F2F2" fill-rule="evenodd"/><path d="M1032.5 1925C1032.5 1788.31 1143.31 1677.5 1280 1677.5 1416.69 1677.5 1527.5 1788.31 1527.5 1925 1527.5 2061.69 1416.69 2172.5 1280 2172.5 1143.31 2172.5 1032.5 2061.69 1032.5 1925Z" stroke="#D9D9D9" stroke-width="4.58333" stroke-miterlimit="8" fill="#FFFFFF" fill-rule="evenodd"/><path d="M1063 1925C1063 1804.05 1161.27 1706 1282.5 1706 1403.73 1706 1502 1804.05 1502 1925 1502 2045.95 1403.73 2144 1282.5 2144 1161.27 2144 1063 2045.95 1063 1925Z" fill="#AD3757" fill-rule="evenodd"/><path d="M1254.13 1899.39C1252.41 1899.39 1250.87 1899.78 1249.51 1900.56 1248.14 1901.34 1247.07 1902.45 1246.29 1903.89 1245.51 1905.33 1245.12 1906.98 1245.12 1908.82 1245.12 1910.66 1245.51 1912.3 1246.29 1913.74 1247.07 1915.18 1248.14 1916.29 1249.51 1917.07 1250.87 1917.85 1252.41 1918.25 1254.13 1918.25 1255.82 1918.25 1257.35 1917.85 1258.73 1917.07 1260.11 1916.29 1261.19 1915.18 1261.97 1913.74 1262.76 1912.3 1263.15 1910.66 1263.15 1908.82 1263.15 1906.98 1262.76 1905.33 1261.97 1903.89 1261.19 1902.45 1260.11 1901.34 1258.73 1900.56 1257.35 1899.78 1255.82 1899.39 1254.13 1899.39ZM1295.28 1899.34C1292.95 1899.34 1290.99 1900.08 1289.41 1901.57 1287.83 1903.06 1286.94 1905 1286.72 1907.39L1303.88 1907.39C1303.67 1905 1302.77 1903.06 1301.19 1901.57 1299.61 1900.08 1297.64 1899.34 1295.28 1899.34ZM1273.13 1896.72 1276.39 1896.72 1276.39 1922.71C1276.39 1924.98 1275.78 1926.77 1274.55 1928.09 1273.32 1929.41 1271.58 1930.07 1269.31 1930.07 1268.3 1930.07 1267.34 1929.94 1266.43 1929.68 1265.53 1929.42 1264.78 1929.02 1264.2 1928.5L1265.35 1926.02C1266.3 1926.85 1267.56 1927.26 1269.12 1927.26 1270.41 1927.26 1271.4 1926.88 1272.09 1926.11 1272.78 1925.34 1273.13 1924.21 1273.13 1922.71ZM1322.92 1896.53C1325.01 1896.53 1326.87 1896.94 1328.51 1897.75 1330.15 1898.56 1331.45 1899.75 1332.4 1901.32L1329.96 1902.97C1329.16 1901.78 1328.15 1900.88 1326.93 1900.28 1325.7 1899.68 1324.36 1899.39 1322.92 1899.39 1321.18 1899.39 1319.6 1899.78 1318.21 1900.56 1316.81 1901.34 1315.72 1902.45 1314.94 1903.89 1314.16 1905.33 1313.77 1906.98 1313.77 1908.82 1313.77 1910.69 1314.16 1912.33 1314.94 1913.76 1315.72 1915.19 1316.81 1916.29 1318.21 1917.07 1319.6 1917.85 1321.18 1918.25 1322.92 1918.25 1324.36 1918.25 1325.7 1917.95 1326.93 1917.37 1328.15 1916.79 1329.16 1915.9 1329.96 1914.7L1332.4 1916.36C1331.45 1917.92 1330.15 1919.11 1328.49 1919.92 1326.83 1920.74 1324.98 1921.14 1322.92 1921.14 1320.53 1921.14 1318.39 1920.62 1316.51 1919.58 1314.62 1918.54 1313.14 1917.07 1312.07 1915.19 1310.99 1913.3 1310.46 1911.18 1310.46 1908.82 1310.46 1906.45 1310.99 1904.34 1312.07 1902.47 1313.14 1900.6 1314.62 1899.14 1316.51 1898.1 1318.39 1897.05 1320.53 1896.53 1322.92 1896.53ZM1295.28 1896.53C1297.52 1896.53 1299.53 1897.05 1301.31 1898.1 1303.08 1899.14 1304.48 1900.59 1305.49 1902.44 1306.5 1904.3 1307.01 1906.42 1307.01 1908.82L1306.96 1909.83 1286.72 1909.83C1286.91 1912.34 1287.87 1914.37 1289.62 1915.92 1291.37 1917.47 1293.58 1918.25 1296.25 1918.25 1297.75 1918.25 1299.13 1917.98 1300.39 1917.44 1301.64 1916.9 1302.73 1916.11 1303.65 1915.07L1305.49 1917.19C1304.42 1918.48 1303.08 1919.46 1301.47 1920.13 1299.86 1920.81 1298.09 1921.14 1296.15 1921.14 1293.67 1921.14 1291.47 1920.61 1289.55 1919.56 1287.64 1918.5 1286.14 1917.03 1285.07 1915.16 1283.99 1913.29 1283.46 1911.18 1283.46 1908.82 1283.46 1906.45 1283.97 1904.34 1285 1902.47 1286.03 1900.6 1287.44 1899.14 1289.23 1898.1 1291.02 1897.05 1293.04 1896.53 1295.28 1896.53ZM1218.66 1891.47C1216.12 1891.47 1213.81 1892.05 1211.74 1893.2 1209.67 1894.35 1208.04 1895.94 1206.86 1897.98 1205.68 1900.02 1205.09 1902.3 1205.09 1904.81 1205.09 1907.33 1205.68 1909.6 1206.86 1911.64 1208.04 1913.68 1209.67 1915.28 1211.74 1916.43 1213.81 1917.58 1216.12 1918.15 1218.66 1918.15 1221.21 1918.15 1223.51 1917.58 1225.56 1916.43 1227.62 1915.28 1229.23 1913.68 1230.39 1911.64 1231.56 1909.6 1232.14 1907.33 1232.14 1904.81 1232.14 1902.3 1231.56 1900.02 1230.39 1897.98 1229.23 1895.94 1227.62 1894.35 1225.56 1893.2 1223.51 1892.05 1221.21 1891.47 1218.66 1891.47ZM1339.45 1891.43 1342.71 1891.43 1342.71 1896.72 1350.07 1896.72 1350.07 1899.48 1342.71 1899.48 1342.71 1913.92C1342.71 1915.36 1343.07 1916.46 1343.79 1917.21 1344.51 1917.96 1345.55 1918.34 1346.9 1918.34 1347.57 1918.34 1348.23 1918.23 1348.85 1918.02 1349.48 1917.8 1350.03 1917.49 1350.49 1917.1L1351.64 1919.44C1351.02 1919.99 1350.26 1920.41 1349.36 1920.71 1348.46 1921 1347.51 1921.14 1346.53 1921.14 1344.26 1921.14 1342.51 1920.53 1341.29 1919.3 1340.06 1918.08 1339.45 1916.34 1339.45 1914.11L1339.45 1899.48 1335.12 1899.48 1335.12 1896.72 1339.45 1896.72ZM1218.66 1888.44C1221.85 1888.44 1224.73 1889.14 1227.29 1890.55 1229.85 1891.96 1231.86 1893.92 1233.34 1896.42 1234.81 1898.92 1235.54 1901.72 1235.54 1904.81 1235.54 1907.91 1234.81 1910.71 1233.34 1913.21 1231.86 1915.71 1229.85 1917.66 1227.29 1919.07 1224.73 1920.48 1221.85 1921.19 1218.66 1921.19 1215.47 1921.19 1212.58 1920.48 1209.99 1919.05 1207.4 1917.62 1205.38 1915.67 1203.92 1913.19 1202.46 1910.7 1201.73 1907.91 1201.73 1904.81 1201.73 1901.72 1202.46 1898.93 1203.92 1896.44 1205.38 1893.96 1207.4 1892 1209.99 1890.58 1212.58 1889.15 1215.47 1888.44 1218.66 1888.44ZM1241.9 1886.78 1245.16 1886.78 1245.16 1901.32C1246.17 1899.75 1247.47 1898.56 1249.05 1897.75 1250.63 1896.94 1252.4 1896.53 1254.36 1896.53 1256.63 1896.53 1258.69 1897.05 1260.53 1898.07 1262.37 1899.1 1263.81 1900.55 1264.85 1902.42 1265.89 1904.29 1266.41 1906.42 1266.41 1908.82 1266.41 1911.21 1265.89 1913.34 1264.85 1915.21 1263.81 1917.08 1262.37 1918.54 1260.53 1919.58 1258.69 1920.62 1256.63 1921.14 1254.36 1921.14 1252.34 1921.14 1250.52 1920.71 1248.91 1919.86 1247.3 1919 1246 1917.75 1245.02 1916.13L1245.02 1920.91 1241.9 1920.91ZM1274.78 1886.74C1275.46 1886.74 1276.02 1886.96 1276.48 1887.4 1276.94 1887.85 1277.17 1888.38 1277.17 1888.99 1277.17 1889.66 1276.94 1890.23 1276.48 1890.69 1276.02 1891.15 1275.46 1891.38 1274.78 1891.38 1274.11 1891.38 1273.54 1891.15 1273.08 1890.69 1272.62 1890.23 1272.39 1889.68 1272.39 1889.04 1272.39 1888.42 1272.62 1887.89 1273.08 1887.43 1273.54 1886.97 1274.11 1886.74 1274.78 1886.74Z" stroke="#4472C4" stroke-width="3" stroke-linejoin="round" stroke-miterlimit="10" stroke-opacity="0" fill="#FFFFFF" fill-rule="evenodd"/><text fill="#000000" fill-opacity="0" font-family="Arial,Arial_MSFontService,sans-serif" font-size="43.332" x="1201.73" y="1924.65">Object</text><path d="M1344.84 1954.39C1343.13 1954.39 1341.59 1954.78 1340.22 1955.56 1338.86 1956.34 1337.78 1957.45 1337 1958.89 1336.22 1960.33 1335.83 1961.98 1335.83 1963.82 1335.83 1965.66 1336.22 1967.3 1337 1968.74 1337.78 1970.18 1338.86 1971.29 1340.22 1972.07 1341.59 1972.85 1343.13 1973.25 1344.84 1973.25 1346.56 1973.25 1348.1 1972.85 1349.47 1972.07 1350.83 1971.29 1351.9 1970.18 1352.66 1968.74 1353.43 1967.3 1353.81 1965.66 1353.81 1963.82 1353.81 1961.98 1353.43 1960.33 1352.66 1958.89 1351.9 1957.45 1350.83 1956.34 1349.47 1955.56 1348.1 1954.78 1346.56 1954.39 1344.84 1954.39ZM1260.34 1954.34C1258.01 1954.34 1256.05 1955.08 1254.47 1956.57 1252.89 1958.06 1252 1960 1251.78 1962.39L1268.94 1962.39C1268.72 1960 1267.83 1958.06 1266.25 1956.57 1264.67 1955.08 1262.7 1954.34 1260.34 1954.34ZM1214.34 1954.34C1212.01 1954.34 1210.05 1955.08 1208.47 1956.57 1206.89 1958.06 1206 1960 1205.78 1962.39L1222.94 1962.39C1222.72 1960 1221.83 1958.06 1220.25 1956.57 1218.67 1955.08 1216.7 1954.34 1214.34 1954.34ZM1321.95 1951.72 1325.22 1951.72 1325.22 1975.91 1321.95 1975.91ZM1376.28 1951.53C1379.32 1951.53 1381.73 1952.41 1383.53 1954.18 1385.32 1955.94 1386.22 1958.51 1386.22 1961.88L1386.22 1975.91 1382.95 1975.91 1382.95 1962.21C1382.95 1959.69 1382.32 1957.77 1381.07 1956.46 1379.81 1955.14 1378.01 1954.48 1375.68 1954.48 1373.08 1954.48 1371.01 1955.25 1369.5 1956.8 1367.98 1958.35 1367.22 1960.49 1367.22 1963.22L1367.22 1975.91 1363.95 1975.91 1363.95 1951.72 1367.08 1951.72 1367.08 1956.18C1367.97 1954.71 1369.21 1953.56 1370.78 1952.75 1372.36 1951.94 1374.2 1951.53 1376.28 1951.53ZM1344.84 1951.53C1347.17 1951.53 1349.28 1952.05 1351.15 1953.1 1353.02 1954.14 1354.48 1955.6 1355.54 1957.47 1356.6 1959.34 1357.13 1961.45 1357.13 1963.82 1357.13 1966.18 1356.6 1968.29 1355.54 1970.16 1354.48 1972.03 1353.02 1973.5 1351.15 1974.56 1349.28 1975.61 1347.17 1976.14 1344.84 1976.14 1342.51 1976.14 1340.41 1975.61 1338.54 1974.56 1336.67 1973.5 1335.2 1972.03 1334.13 1970.16 1333.05 1968.29 1332.52 1966.18 1332.52 1963.82 1332.52 1961.45 1333.05 1959.34 1334.13 1957.47 1335.2 1955.6 1336.67 1954.14 1338.54 1953.1 1340.41 1952.05 1342.51 1951.53 1344.84 1951.53ZM1287.98 1951.53C1290.07 1951.53 1291.93 1951.94 1293.57 1952.75 1295.21 1953.56 1296.51 1954.75 1297.46 1956.32L1295.02 1957.97C1294.22 1956.78 1293.21 1955.88 1291.98 1955.28 1290.76 1954.68 1289.42 1954.39 1287.98 1954.39 1286.23 1954.39 1284.66 1954.78 1283.27 1955.56 1281.87 1956.34 1280.78 1957.45 1280 1958.89 1279.22 1960.33 1278.83 1961.98 1278.83 1963.82 1278.83 1965.69 1279.22 1967.33 1280 1968.76 1280.78 1970.19 1281.87 1971.29 1283.27 1972.07 1284.66 1972.85 1286.23 1973.25 1287.98 1973.25 1289.42 1973.25 1290.76 1972.95 1291.98 1972.37 1293.21 1971.79 1294.22 1970.9 1295.02 1969.7L1297.46 1971.36C1296.51 1972.92 1295.2 1974.11 1293.55 1974.92 1291.89 1975.74 1290.04 1976.14 1287.98 1976.14 1285.59 1976.14 1283.45 1975.62 1281.56 1974.58 1279.68 1973.54 1278.2 1972.07 1277.13 1970.19 1276.05 1968.3 1275.52 1966.18 1275.52 1963.82 1275.52 1961.45 1276.05 1959.34 1277.13 1957.47 1278.2 1955.6 1279.68 1954.14 1281.56 1953.1 1283.45 1952.05 1285.59 1951.53 1287.98 1951.53ZM1260.34 1951.53C1262.58 1951.53 1264.58 1952.05 1266.36 1953.1 1268.14 1954.14 1269.54 1955.59 1270.55 1957.44 1271.56 1959.3 1272.07 1961.42 1272.07 1963.82L1272.02 1964.83 1251.78 1964.83C1251.97 1967.34 1252.93 1969.37 1254.68 1970.92 1256.43 1972.47 1258.64 1973.25 1261.3 1973.25 1262.81 1973.25 1264.19 1972.98 1265.44 1972.44 1266.7 1971.9 1267.79 1971.11 1268.71 1970.07L1270.55 1972.19C1269.48 1973.48 1268.13 1974.46 1266.52 1975.13 1264.91 1975.81 1263.14 1976.14 1261.21 1976.14 1258.73 1976.14 1256.53 1975.61 1254.61 1974.56 1252.69 1973.5 1251.2 1972.03 1250.13 1970.16 1249.05 1968.29 1248.52 1966.18 1248.52 1963.82 1248.52 1961.45 1249.03 1959.34 1250.06 1957.47 1251.08 1955.6 1252.49 1954.14 1254.29 1953.1 1256.08 1952.05 1258.1 1951.53 1260.34 1951.53ZM1214.34 1951.53C1216.58 1951.53 1218.58 1952.05 1220.36 1953.1 1222.14 1954.14 1223.54 1955.59 1224.55 1957.44 1225.56 1959.3 1226.07 1961.42 1226.07 1963.82L1226.02 1964.83 1205.78 1964.83C1205.97 1967.34 1206.93 1969.37 1208.68 1970.92 1210.43 1972.47 1212.64 1973.25 1215.3 1973.25 1216.81 1973.25 1218.19 1972.98 1219.44 1972.44 1220.7 1971.9 1221.79 1971.11 1222.71 1970.07L1224.55 1972.19C1223.48 1973.48 1222.13 1974.46 1220.52 1975.13 1218.91 1975.81 1217.14 1976.14 1215.21 1976.14 1212.73 1976.14 1210.53 1975.61 1208.61 1974.56 1206.69 1973.5 1205.2 1972.03 1204.13 1970.16 1203.05 1968.29 1202.52 1966.18 1202.52 1963.82 1202.52 1961.45 1203.03 1959.34 1204.06 1957.47 1205.08 1955.6 1206.49 1954.14 1208.29 1953.1 1210.08 1952.05 1212.1 1951.53 1214.34 1951.53ZM1171.05 1946.66 1171.05 1972.97 1180.57 1972.97C1183.39 1972.97 1185.86 1972.41 1187.98 1971.29 1190.09 1970.17 1191.73 1968.62 1192.9 1966.64 1194.06 1964.67 1194.65 1962.39 1194.65 1959.81 1194.65 1957.24 1194.06 1954.96 1192.9 1952.98 1191.73 1951 1190.09 1949.46 1187.98 1948.34 1185.86 1947.22 1183.39 1946.66 1180.57 1946.66ZM1304.51 1946.43 1307.77 1946.43 1307.77 1951.72 1315.13 1951.72 1315.13 1954.48 1307.77 1954.48 1307.77 1968.92C1307.77 1970.36 1308.13 1971.46 1308.85 1972.21 1309.57 1972.96 1310.61 1973.34 1311.96 1973.34 1312.63 1973.34 1313.28 1973.23 1313.91 1973.02 1314.54 1972.8 1315.09 1972.49 1315.55 1972.1L1316.7 1974.44C1316.08 1974.99 1315.32 1975.41 1314.42 1975.71 1313.51 1976 1312.57 1976.14 1311.59 1976.14 1309.32 1976.14 1307.57 1975.53 1306.35 1974.3 1305.12 1973.08 1304.51 1971.34 1304.51 1969.11L1304.51 1954.48 1300.18 1954.48 1300.18 1951.72 1304.51 1951.72ZM1232.51 1946.43 1235.77 1946.43 1235.77 1951.72 1243.13 1951.72 1243.13 1954.48 1235.77 1954.48 1235.77 1968.92C1235.77 1970.36 1236.13 1971.46 1236.85 1972.21 1237.57 1972.96 1238.61 1973.34 1239.96 1973.34 1240.63 1973.34 1241.28 1973.23 1241.91 1973.02 1242.54 1972.8 1243.09 1972.49 1243.55 1972.1L1244.7 1974.44C1244.08 1974.99 1243.32 1975.41 1242.42 1975.71 1241.51 1976 1240.57 1976.14 1239.59 1976.14 1237.32 1976.14 1235.57 1975.53 1234.35 1974.3 1233.12 1973.08 1232.51 1971.34 1232.51 1969.11L1232.51 1954.48 1228.18 1954.48 1228.18 1951.72 1232.51 1951.72ZM1167.64 1943.71 1180.75 1943.71C1184.16 1943.71 1187.16 1944.4 1189.77 1945.76 1192.38 1947.12 1194.4 1949.03 1195.84 1951.46 1197.28 1953.9 1198 1956.69 1198 1959.81 1198 1962.94 1197.28 1965.72 1195.84 1968.16 1194.4 1970.6 1192.38 1972.5 1189.77 1973.87 1187.16 1975.23 1184.16 1975.91 1180.75 1975.91L1167.64 1975.91ZM1323.61 1941.78C1324.28 1941.78 1324.85 1942 1325.31 1942.45 1325.77 1942.89 1326 1943.42 1326 1944.04 1326 1944.71 1325.77 1945.28 1325.31 1945.74 1324.85 1946.2 1324.28 1946.43 1323.61 1946.43 1322.93 1946.43 1322.37 1946.2 1321.91 1945.74 1321.45 1945.28 1321.22 1944.73 1321.22 1944.08 1321.22 1943.47 1321.45 1942.93 1321.91 1942.47 1322.37 1942.01 1322.93 1941.78 1323.61 1941.78Z" stroke="#4472C4" stroke-width="3" stroke-linejoin="round" stroke-miterlimit="10" stroke-opacity="0" fill="#FFFFFF" fill-rule="evenodd"/><text fill="#000000" fill-opacity="0" font-family="Arial,Arial_MSFontService,sans-serif" font-size="34.3619" x="1167.64" y="1971.85">Detection</text><path d="M1449.5 1923C1449.5 1786.31 1560.31 1675.5 1697 1675.5 1833.69 1675.5 1944.5 1786.31 1944.5 1923 1944.5 2059.69 1833.69 2170.5 1697 2170.5 1560.31 2170.5 1449.5 2059.69 1449.5 1923Z" stroke="#D9D9D9" stroke-width="4.58333" stroke-miterlimit="8" fill="#FFFFFF" fill-rule="evenodd"/><path d="M1480 1922.5C1480 1801.27 1578.27 1703 1699.5 1703 1820.73 1703 1919 1801.27 1919 1922.5 1919 2043.73 1820.73 2142 1699.5 2142 1578.27 2142 1480 2043.73 1480 1922.5Z" fill="#7F7F7F" fill-rule="evenodd"/><path d="M1733.02 1907.05C1728.88 1907.05 1726.81 1908.49 1726.81 1911.37 1726.81 1912.78 1727.35 1913.89 1728.42 1914.71 1729.49 1915.52 1731 1915.93 1732.93 1915.93 1734.77 1915.93 1736.35 1915.5 1737.67 1914.66 1738.99 1913.82 1739.97 1912.6 1740.61 1911L1740.61 1907.05ZM1667.02 1907.05C1662.88 1907.05 1660.81 1908.49 1660.81 1911.37 1660.81 1912.78 1661.35 1913.89 1662.42 1914.71 1663.49 1915.52 1665 1915.93 1666.93 1915.93 1668.77 1915.93 1670.35 1915.5 1671.67 1914.66 1672.99 1913.82 1673.97 1912.6 1674.61 1911L1674.61 1907.05ZM1712.62 1894.08 1715.88 1894.08 1715.88 1918.27 1712.62 1918.27ZM1734.08 1893.89C1737.24 1893.89 1739.66 1894.68 1741.35 1896.26 1743.03 1897.84 1743.88 1900.18 1743.88 1903.28L1743.88 1918.27 1740.75 1918.27 1740.75 1914.5C1740.01 1915.76 1738.93 1916.74 1737.51 1917.44 1736.08 1918.15 1734.39 1918.5 1732.42 1918.5 1729.72 1918.5 1727.58 1917.86 1725.98 1916.57 1724.39 1915.28 1723.59 1913.58 1723.59 1911.46 1723.59 1909.41 1724.34 1907.75 1725.82 1906.5 1727.31 1905.24 1729.68 1904.61 1732.93 1904.61L1740.61 1904.61 1740.61 1903.14C1740.61 1901.05 1740.03 1899.47 1738.86 1898.38 1737.7 1897.29 1736 1896.74 1733.76 1896.74 1732.22 1896.74 1730.75 1897 1729.34 1897.5 1727.93 1898.01 1726.72 1898.71 1725.71 1899.6L1724.24 1897.16C1725.46 1896.12 1726.93 1895.31 1728.65 1894.74 1730.37 1894.18 1732.18 1893.89 1734.08 1893.89ZM1696.64 1893.89C1698.73 1893.89 1700.59 1894.3 1702.23 1895.11 1703.87 1895.92 1705.17 1897.11 1706.12 1898.68L1703.68 1900.33C1702.88 1899.14 1701.87 1898.24 1700.65 1897.64 1699.42 1897.04 1698.08 1896.74 1696.64 1896.74 1694.9 1896.74 1693.32 1897.14 1691.93 1897.92 1690.53 1898.7 1689.44 1899.81 1688.66 1901.25 1687.88 1902.69 1687.49 1904.33 1687.49 1906.17 1687.49 1908.05 1687.88 1909.69 1688.66 1911.12 1689.44 1912.55 1690.53 1913.65 1691.93 1914.43 1693.32 1915.21 1694.9 1915.6 1696.64 1915.6 1698.08 1915.6 1699.42 1915.31 1700.65 1914.73 1701.87 1914.15 1702.88 1913.26 1703.68 1912.06L1706.12 1913.72C1705.17 1915.28 1703.87 1916.47 1702.21 1917.28 1700.55 1918.1 1698.7 1918.5 1696.64 1918.5 1694.25 1918.5 1692.11 1917.98 1690.23 1916.94 1688.34 1915.9 1686.86 1914.43 1685.79 1912.55 1684.71 1910.66 1684.18 1908.54 1684.18 1906.17 1684.18 1903.81 1684.71 1901.7 1685.79 1899.83 1686.86 1897.96 1688.34 1896.5 1690.23 1895.46 1692.11 1894.41 1694.25 1893.89 1696.64 1893.89ZM1668.08 1893.89C1671.24 1893.89 1673.66 1894.68 1675.35 1896.26 1677.03 1897.84 1677.88 1900.18 1677.88 1903.28L1677.88 1918.27 1674.75 1918.27 1674.75 1914.5C1674.01 1915.76 1672.93 1916.74 1671.51 1917.44 1670.08 1918.15 1668.39 1918.5 1666.42 1918.5 1663.72 1918.5 1661.58 1917.86 1659.98 1916.57 1658.39 1915.28 1657.59 1913.58 1657.59 1911.46 1657.59 1909.41 1658.34 1907.75 1659.82 1906.5 1661.31 1905.24 1663.68 1904.61 1666.93 1904.61L1674.61 1904.61 1674.61 1903.14C1674.61 1901.05 1674.03 1899.47 1672.86 1898.38 1671.7 1897.29 1670 1896.74 1667.76 1896.74 1666.22 1896.74 1664.75 1897 1663.34 1897.5 1661.93 1898.01 1660.72 1898.71 1659.71 1899.6L1658.24 1897.16C1659.46 1896.12 1660.93 1895.31 1662.65 1894.74 1664.37 1894.18 1666.18 1893.89 1668.08 1893.89ZM1631.31 1886.07 1653.39 1886.07 1653.39 1889.02 1634.71 1889.02 1634.71 1901.67 1651.36 1901.67 1651.36 1904.61 1634.71 1904.61 1634.71 1918.27 1631.31 1918.27ZM1751.62 1884.14 1754.88 1884.14 1754.88 1918.27 1751.62 1918.27ZM1714.27 1884.14C1714.95 1884.14 1715.51 1884.36 1715.97 1884.81 1716.43 1885.25 1716.66 1885.78 1716.66 1886.39 1716.66 1887.07 1716.43 1887.64 1715.97 1888.1 1715.51 1888.56 1714.95 1888.79 1714.27 1888.79 1713.6 1888.79 1713.03 1888.56 1712.57 1888.1 1712.11 1887.64 1711.88 1887.08 1711.88 1886.44 1711.88 1885.83 1712.11 1885.29 1712.57 1884.83 1713.03 1884.37 1713.6 1884.14 1714.27 1884.14Z" stroke="#4472C4" stroke-width="3" stroke-linejoin="round" stroke-miterlimit="10" stroke-opacity="0" fill="#FFFFFF" fill-rule="evenodd"/><text fill="#000000" fill-opacity="0" font-family="Arial,Arial_MSFontService,sans-serif" font-size="34.3619" x="1631.31" y="1914.21">Facial</text><path d="M1788.17 1951.74C1786.45 1951.74 1784.91 1952.14 1783.55 1952.92 1782.18 1953.7 1781.11 1954.81 1780.33 1956.25 1779.55 1957.69 1779.16 1959.33 1779.16 1961.17 1779.16 1963.01 1779.55 1964.66 1780.33 1966.1 1781.11 1967.54 1782.18 1968.65 1783.55 1969.43 1784.91 1970.21 1786.45 1970.6 1788.17 1970.6 1789.89 1970.6 1791.43 1970.21 1792.8 1969.43 1794.16 1968.65 1795.23 1967.54 1795.99 1966.1 1796.76 1964.66 1797.14 1963.01 1797.14 1961.17 1797.14 1959.33 1796.76 1957.69 1795.99 1956.25 1795.23 1954.81 1794.16 1953.7 1792.8 1952.92 1791.43 1952.14 1789.89 1951.74 1788.17 1951.74ZM1682.31 1951.74C1680.56 1951.74 1678.99 1952.11 1677.59 1952.85 1676.2 1953.58 1675.11 1954.63 1674.33 1955.98 1673.55 1957.33 1673.16 1958.86 1673.16 1960.58 1673.16 1962.29 1673.55 1963.83 1674.33 1965.18 1675.11 1966.53 1676.2 1967.58 1677.59 1968.33 1678.99 1969.08 1680.56 1969.45 1682.31 1969.45 1684.06 1969.45 1685.64 1969.08 1687.05 1968.33 1688.46 1967.58 1689.56 1966.53 1690.34 1965.18 1691.12 1963.83 1691.51 1962.29 1691.51 1960.58 1691.51 1958.86 1691.12 1957.33 1690.34 1956 1689.56 1954.67 1688.47 1953.62 1687.07 1952.87 1685.68 1952.12 1684.09 1951.74 1682.31 1951.74ZM1654.17 1951.74C1652.45 1951.74 1650.91 1952.14 1649.55 1952.92 1648.18 1953.7 1647.11 1954.81 1646.33 1956.25 1645.55 1957.69 1645.16 1959.33 1645.16 1961.17 1645.16 1963.01 1645.55 1964.66 1646.33 1966.1 1647.11 1967.54 1648.18 1968.65 1649.55 1969.43 1650.91 1970.21 1652.45 1970.6 1654.17 1970.6 1655.89 1970.6 1657.43 1970.21 1658.8 1969.43 1660.16 1968.65 1661.23 1967.54 1661.99 1966.1 1662.76 1964.66 1663.14 1963.01 1663.14 1961.17 1663.14 1959.33 1662.76 1957.69 1661.99 1956.25 1661.23 1954.81 1660.16 1953.7 1658.8 1952.92 1657.43 1952.14 1655.89 1951.74 1654.17 1951.74ZM1599.67 1951.7C1597.34 1951.7 1595.38 1952.44 1593.8 1953.93 1592.22 1955.42 1591.32 1957.36 1591.11 1959.75L1608.27 1959.75C1608.05 1957.36 1607.16 1955.42 1605.58 1953.93 1604 1952.44 1602.03 1951.7 1599.67 1951.7ZM1766.28 1949.08 1769.55 1949.08 1769.55 1973.27 1766.28 1973.27ZM1735.28 1949.08 1738.55 1949.08 1738.55 1973.27 1735.28 1973.27ZM1819.61 1948.89C1822.65 1948.89 1825.06 1949.77 1826.85 1951.54 1828.65 1953.3 1829.55 1955.87 1829.55 1959.24L1829.55 1973.27 1826.28 1973.27 1826.28 1959.56C1826.28 1957.05 1825.65 1955.13 1824.39 1953.81 1823.14 1952.5 1821.34 1951.84 1819.01 1951.84 1816.41 1951.84 1814.34 1952.61 1812.82 1954.16 1811.31 1955.71 1810.55 1957.85 1810.55 1960.58L1810.55 1973.27 1807.28 1973.27 1807.28 1949.08 1810.41 1949.08 1810.41 1953.54C1811.3 1952.07 1812.53 1950.92 1814.11 1950.11 1815.69 1949.3 1817.52 1948.89 1819.61 1948.89ZM1788.17 1948.89C1790.5 1948.89 1792.6 1949.41 1794.47 1950.46 1796.34 1951.5 1797.81 1952.96 1798.87 1954.83 1799.93 1956.7 1800.45 1958.81 1800.45 1961.17 1800.45 1963.54 1799.93 1965.65 1798.87 1967.52 1797.81 1969.39 1796.34 1970.86 1794.47 1971.92 1792.6 1972.97 1790.5 1973.5 1788.17 1973.5 1785.84 1973.5 1783.74 1972.97 1781.87 1971.92 1780 1970.86 1778.53 1969.39 1777.45 1967.52 1776.38 1965.65 1775.84 1963.54 1775.84 1961.17 1775.84 1958.81 1776.38 1956.7 1777.45 1954.83 1778.53 1952.96 1780 1951.5 1781.87 1950.46 1783.74 1949.41 1785.84 1948.89 1788.17 1948.89ZM1716.61 1948.89C1719.65 1948.89 1722.06 1949.77 1723.85 1951.54 1725.65 1953.3 1726.55 1955.87 1726.55 1959.24L1726.55 1973.27 1723.28 1973.27 1723.28 1959.56C1723.28 1957.05 1722.65 1955.13 1721.39 1953.81 1720.14 1952.5 1718.34 1951.84 1716.01 1951.84 1713.41 1951.84 1711.34 1952.61 1709.82 1954.16 1708.31 1955.71 1707.55 1957.85 1707.55 1960.58L1707.55 1973.27 1704.28 1973.27 1704.28 1949.08 1707.41 1949.08 1707.41 1953.54C1708.3 1952.07 1709.53 1950.92 1711.11 1950.11 1712.69 1949.3 1714.52 1948.89 1716.61 1948.89ZM1681.99 1948.89C1684.04 1948.89 1685.9 1949.31 1687.55 1950.13 1689.21 1950.96 1690.54 1952.16 1691.56 1953.72L1691.56 1949.08 1694.68 1949.08 1694.68 1970.33C1694.68 1974.44 1693.68 1977.48 1691.67 1979.46 1689.66 1981.44 1686.63 1982.43 1682.59 1982.43 1680.35 1982.43 1678.22 1982.1 1676.22 1981.44 1674.21 1980.78 1672.57 1979.87 1671.32 1978.7L1672.97 1976.22C1674.14 1977.26 1675.56 1978.07 1677.23 1978.65 1678.9 1979.24 1680.65 1979.53 1682.49 1979.53 1685.56 1979.53 1687.81 1978.82 1689.26 1977.39 1690.7 1975.96 1691.42 1973.75 1691.42 1970.74L1691.42 1967.66C1690.41 1969.19 1689.08 1970.36 1687.44 1971.16 1685.8 1971.95 1683.98 1972.35 1681.99 1972.35 1679.72 1972.35 1677.66 1971.85 1675.8 1970.86 1673.95 1969.86 1672.49 1968.47 1671.43 1966.67 1670.37 1964.88 1669.84 1962.85 1669.84 1960.58 1669.84 1958.31 1670.37 1956.28 1671.43 1954.5 1672.49 1952.73 1673.94 1951.35 1675.78 1950.36 1677.62 1949.38 1679.69 1948.89 1681.99 1948.89ZM1654.17 1948.89C1656.5 1948.89 1658.6 1949.41 1660.47 1950.46 1662.34 1951.5 1663.81 1952.96 1664.87 1954.83 1665.93 1956.7 1666.45 1958.81 1666.45 1961.17 1666.45 1963.54 1665.93 1965.65 1664.87 1967.52 1663.81 1969.39 1662.34 1970.86 1660.47 1971.92 1658.6 1972.97 1656.5 1973.5 1654.17 1973.5 1651.84 1973.5 1649.74 1972.97 1647.87 1971.92 1646 1970.86 1644.53 1969.39 1643.45 1967.52 1642.38 1965.65 1641.84 1963.54 1641.84 1961.17 1641.84 1958.81 1642.38 1956.7 1643.45 1954.83 1644.53 1952.96 1646 1951.5 1647.87 1950.46 1649.74 1949.41 1651.84 1948.89 1654.17 1948.89ZM1628.31 1948.89C1630.4 1948.89 1632.26 1949.3 1633.9 1950.11 1635.54 1950.92 1636.84 1952.11 1637.79 1953.68L1635.35 1955.33C1634.55 1954.14 1633.54 1953.24 1632.31 1952.64 1631.09 1952.04 1629.75 1951.74 1628.31 1951.74 1626.56 1951.74 1624.99 1952.14 1623.59 1952.92 1622.2 1953.7 1621.11 1954.81 1620.33 1956.25 1619.55 1957.69 1619.16 1959.33 1619.16 1961.17 1619.16 1963.05 1619.55 1964.69 1620.33 1966.12 1621.11 1967.55 1622.2 1968.65 1623.59 1969.43 1624.99 1970.21 1626.56 1970.6 1628.31 1970.6 1629.75 1970.6 1631.09 1970.31 1632.31 1969.73 1633.54 1969.15 1634.55 1968.26 1635.35 1967.06L1637.79 1968.72C1636.84 1970.28 1635.53 1971.47 1633.88 1972.28 1632.22 1973.1 1630.36 1973.5 1628.31 1973.5 1625.92 1973.5 1623.78 1972.98 1621.89 1971.94 1620.01 1970.9 1618.53 1969.43 1617.45 1967.55 1616.38 1965.66 1615.84 1963.54 1615.84 1961.17 1615.84 1958.81 1616.38 1956.7 1617.45 1954.83 1618.53 1952.96 1620.01 1951.5 1621.89 1950.46 1623.78 1949.41 1625.92 1948.89 1628.31 1948.89ZM1599.67 1948.89C1601.9 1948.89 1603.91 1949.41 1605.69 1950.46 1607.47 1951.5 1608.87 1952.95 1609.88 1954.8 1610.89 1956.66 1611.4 1958.78 1611.4 1961.17L1611.35 1962.19 1591.11 1962.19C1591.29 1964.7 1592.26 1966.73 1594.01 1968.28 1595.76 1969.83 1597.96 1970.6 1600.63 1970.6 1602.13 1970.6 1603.51 1970.34 1604.77 1969.8 1606.03 1969.26 1607.12 1968.47 1608.04 1967.43L1609.88 1969.55C1608.8 1970.83 1607.46 1971.82 1605.85 1972.49 1604.24 1973.17 1602.47 1973.5 1600.54 1973.5 1598.06 1973.5 1595.86 1972.97 1593.94 1971.92 1592.02 1970.86 1590.53 1969.39 1589.45 1967.52 1588.38 1965.65 1587.84 1963.54 1587.84 1961.17 1587.84 1958.81 1588.36 1956.7 1589.39 1954.83 1590.41 1952.96 1591.82 1951.5 1593.62 1950.46 1595.41 1949.41 1597.43 1948.89 1599.67 1948.89ZM1561.38 1944.02 1561.38 1960.16 1569.93 1960.16C1573.12 1960.16 1575.56 1959.46 1577.25 1958.05 1578.93 1956.64 1579.78 1954.66 1579.78 1952.11 1579.78 1949.51 1578.93 1947.5 1577.25 1946.11 1575.56 1944.71 1573.12 1944.02 1569.93 1944.02ZM1747.83 1943.79 1751.1 1943.79 1751.1 1949.08 1758.46 1949.08 1758.46 1951.84 1751.1 1951.84 1751.1 1966.28C1751.1 1967.72 1751.46 1968.82 1752.18 1969.57 1752.9 1970.32 1753.94 1970.7 1755.29 1970.7 1755.96 1970.7 1756.61 1970.59 1757.24 1970.37 1757.87 1970.16 1758.41 1969.85 1758.87 1969.45L1760.02 1971.8C1759.41 1972.35 1758.65 1972.77 1757.75 1973.07 1756.84 1973.36 1755.9 1973.5 1754.92 1973.5 1752.65 1973.5 1750.9 1972.89 1749.67 1971.66 1748.45 1970.44 1747.83 1968.7 1747.83 1966.46L1747.83 1951.84 1743.51 1951.84 1743.51 1949.08 1747.83 1949.08ZM1557.97 1941.07 1570.02 1941.07C1574.13 1941.07 1577.35 1942.05 1579.68 1944.02 1582.01 1945.98 1583.18 1948.68 1583.18 1952.11 1583.18 1954.63 1582.54 1956.75 1581.27 1958.48 1580 1960.22 1578.18 1961.47 1575.82 1962.23L1583.69 1973.27 1579.96 1973.27 1572.6 1962.92C1571.77 1963.01 1570.91 1963.06 1570.02 1963.06L1561.38 1963.06 1561.38 1973.27 1557.97 1973.27ZM1767.94 1939.14C1768.61 1939.14 1769.18 1939.36 1769.64 1939.81 1770.1 1940.25 1770.33 1940.78 1770.33 1941.39 1770.33 1942.07 1770.1 1942.64 1769.64 1943.1 1769.18 1943.56 1768.61 1943.79 1767.94 1943.79 1767.26 1943.79 1766.7 1943.56 1766.24 1943.1 1765.78 1942.64 1765.55 1942.08 1765.55 1941.44 1765.55 1940.83 1765.78 1940.29 1766.24 1939.83 1766.7 1939.37 1767.26 1939.14 1767.94 1939.14ZM1736.94 1939.14C1737.61 1939.14 1738.18 1939.36 1738.64 1939.81 1739.1 1940.25 1739.33 1940.78 1739.33 1941.39 1739.33 1942.07 1739.1 1942.64 1738.64 1943.1 1738.18 1943.56 1737.61 1943.79 1736.94 1943.79 1736.26 1943.79 1735.7 1943.56 1735.24 1943.1 1734.78 1942.64 1734.55 1942.08 1734.55 1941.44 1734.55 1940.83 1734.78 1940.29 1735.24 1939.83 1735.7 1939.37 1736.26 1939.14 1736.94 1939.14Z" stroke="#4472C4" stroke-width="3" stroke-linejoin="round" stroke-miterlimit="10" stroke-opacity="0" fill="#FFFFFF" fill-rule="evenodd"/><text fill="#000000" fill-opacity="0" font-family="Arial,Arial_MSFontService,sans-serif" font-size="43.286" x="1557.97" y="1977.02">Recognition</text><path d="M1866.5 1920C1866.5 1783.31 1977.31 1672.5 2114 1672.5 2250.69 1672.5 2361.5 1783.31 2361.5 1920 2361.5 2056.69 2250.69 2167.5 2114 2167.5 1977.31 2167.5 1866.5 2056.69 1866.5 1920Z" stroke="#D9D9D9" stroke-width="4.58333" stroke-miterlimit="8" fill="#FFFFFF" fill-rule="evenodd"/><path d="M1897 1919.5C1897 1798.27 1995.27 1700 2116.5 1700 2237.73 1700 2336 1798.27 2336 1919.5 2336 2040.73 2237.73 2139 2116.5 2139 1995.27 2139 1897 2040.73 1897 1919.5Z" fill="#AD3757" fill-rule="evenodd"/><path d="M2111.7 1894.1C2109.98 1894.1 2108.44 1894.49 2107.07 1895.28 2105.71 1896.06 2104.63 1897.17 2103.85 1898.61 2103.07 1900.05 2102.68 1901.69 2102.68 1903.53 2102.68 1905.37 2103.07 1907.01 2103.85 1908.46 2104.63 1909.9 2105.71 1911.01 2107.07 1911.79 2108.44 1912.57 2109.98 1912.96 2111.7 1912.96 2113.38 1912.96 2114.92 1912.57 2116.3 1911.79 2117.68 1911.01 2118.76 1909.9 2119.54 1908.46 2120.32 1907.01 2120.71 1905.37 2120.71 1903.53 2120.71 1901.69 2120.32 1900.05 2119.54 1898.61 2118.76 1897.17 2117.68 1896.06 2116.3 1895.28 2114.92 1894.49 2113.38 1894.1 2111.7 1894.1ZM2188.84 1894.06C2186.51 1894.06 2184.56 1894.8 2182.98 1896.29 2181.4 1897.78 2180.5 1899.72 2180.29 1902.11L2197.45 1902.11C2197.23 1899.72 2196.33 1897.78 2194.75 1896.29 2193.17 1894.8 2191.2 1894.06 2188.84 1894.06ZM2130.23 1891.44 2133.5 1891.44 2133.5 1905.14C2133.5 1907.69 2134.12 1909.62 2135.38 1910.94 2136.64 1912.26 2138.43 1912.92 2140.76 1912.92 2143.31 1912.92 2145.32 1912.14 2146.79 1910.59 2148.26 1909.05 2149 1906.89 2149 1904.13L2149 1891.44 2152.26 1891.44 2152.26 1915.63 2149.14 1915.63 2149.14 1911.22C2148.28 1912.69 2147.1 1913.83 2145.59 1914.64 2144.09 1915.46 2142.37 1915.86 2140.44 1915.86 2137.28 1915.86 2134.79 1914.98 2132.97 1913.22 2131.14 1911.45 2130.23 1908.87 2130.23 1905.47ZM2087.46 1891.44 2090.73 1891.44 2090.73 1915.63 2087.46 1915.63ZM2214.54 1891.25C2216.11 1891.25 2217.67 1891.46 2219.24 1891.87 2220.8 1892.29 2222.09 1892.83 2223.1 1893.51L2221.67 1896.13C2219.68 1894.75 2217.3 1894.06 2214.54 1894.06 2212.46 1894.06 2210.89 1894.43 2209.83 1895.16 2208.77 1895.9 2208.24 1896.86 2208.24 1898.06 2208.24 1898.98 2208.54 1899.72 2209.14 1900.27 2209.74 1900.82 2210.48 1901.23 2211.37 1901.49 2212.26 1901.75 2213.49 1902.02 2215.05 1902.29 2216.98 1902.66 2218.53 1903.03 2219.7 1903.4 2220.86 1903.76 2221.86 1904.39 2222.69 1905.28 2223.51 1906.17 2223.93 1907.4 2223.93 1908.96 2223.93 1911.08 2223.05 1912.76 2221.28 1914 2219.52 1915.24 2217.07 1915.86 2213.95 1915.86 2211.98 1915.86 2210.1 1915.58 2208.31 1915.01 2206.52 1914.44 2205.11 1913.73 2204.1 1912.87L2205.57 1910.3C2206.59 1911.09 2207.86 1911.74 2209.39 1912.25 2210.92 1912.76 2212.52 1913.01 2214.18 1913.01 2216.38 1913.01 2218.02 1912.66 2219.07 1911.97 2220.13 1911.28 2220.66 1910.31 2220.66 1909.05 2220.66 1908.16 2220.37 1907.47 2219.79 1906.96 2219.2 1906.45 2218.47 1906.07 2217.58 1905.81 2216.69 1905.55 2215.51 1905.3 2214.04 1905.05 2212.07 1904.68 2210.5 1904.31 2209.3 1903.92 2208.1 1903.54 2207.08 1902.89 2206.24 1901.97 2205.4 1901.05 2204.98 1899.78 2204.98 1898.15 2204.98 1896.13 2205.82 1894.47 2207.51 1893.18 2209.19 1891.9 2211.54 1891.25 2214.54 1891.25ZM2188.84 1891.25C2191.08 1891.25 2193.09 1891.77 2194.87 1892.82 2196.65 1893.86 2198.04 1895.31 2199.06 1897.16 2200.07 1899.02 2200.57 1901.14 2200.57 1903.53L2200.53 1904.55 2180.29 1904.55C2180.47 1907.06 2181.44 1909.09 2183.19 1910.64 2184.93 1912.19 2187.14 1912.96 2189.81 1912.96 2191.31 1912.96 2192.69 1912.7 2193.95 1912.16 2195.21 1911.62 2196.3 1910.83 2197.22 1909.79L2199.06 1911.91C2197.98 1913.19 2196.64 1914.18 2195.03 1914.85 2193.42 1915.52 2191.65 1915.86 2189.72 1915.86 2187.23 1915.86 2185.03 1915.33 2183.12 1914.27 2181.2 1913.22 2179.7 1911.75 2178.63 1909.88 2177.56 1908.01 2177.02 1905.9 2177.02 1903.53 2177.02 1901.17 2177.53 1899.06 2178.56 1897.19 2179.59 1895.32 2181 1893.86 2182.79 1892.82 2184.59 1891.77 2186.6 1891.25 2188.84 1891.25ZM2080.65 1891.25 2080.65 1894.43 2079.87 1894.38C2077.32 1894.38 2075.33 1895.16 2073.89 1896.73 2072.45 1898.29 2071.73 1900.48 2071.73 1903.3L2071.73 1915.63 2068.46 1915.63 2068.46 1891.44 2071.59 1891.44 2071.59 1896.17C2072.35 1894.55 2073.5 1893.32 2075.01 1892.49 2076.53 1891.67 2078.41 1891.25 2080.65 1891.25ZM2011.37 1886.97 2003.65 1904.27 2019.1 1904.27ZM2162.01 1886.15 2165.28 1886.15 2165.28 1891.44 2172.64 1891.44 2172.64 1894.2 2165.28 1894.2 2165.28 1908.64C2165.28 1910.08 2165.64 1911.18 2166.36 1911.93 2167.08 1912.68 2168.11 1913.06 2169.46 1913.06 2170.14 1913.06 2170.79 1912.95 2171.42 1912.73 2172.05 1912.52 2172.59 1912.21 2173.05 1911.81L2174.2 1914.16C2173.59 1914.71 2172.83 1915.13 2171.92 1915.42 2171.02 1915.72 2170.08 1915.86 2169.1 1915.86 2166.83 1915.86 2165.08 1915.25 2163.85 1914.02 2162.62 1912.8 2162.01 1911.06 2162.01 1908.82L2162.01 1894.2 2157.69 1894.2 2157.69 1891.44 2162.01 1891.44ZM2051.01 1886.15 2054.28 1886.15 2054.28 1891.44 2061.64 1891.44 2061.64 1894.2 2054.28 1894.2 2054.28 1908.64C2054.28 1910.08 2054.64 1911.18 2055.36 1911.93 2056.08 1912.68 2057.11 1913.06 2058.46 1913.06 2059.14 1913.06 2059.79 1912.95 2060.42 1912.73 2061.05 1912.52 2061.59 1912.21 2062.05 1911.81L2063.2 1914.16C2062.59 1914.71 2061.83 1915.13 2060.92 1915.42 2060.02 1915.72 2059.08 1915.86 2058.1 1915.86 2055.83 1915.86 2054.08 1915.25 2052.85 1914.02 2051.62 1912.8 2051.01 1911.06 2051.01 1908.82L2051.01 1894.2 2046.69 1894.2 2046.69 1891.44 2051.01 1891.44ZM2033.01 1886.15 2036.28 1886.15 2036.28 1891.44 2043.64 1891.44 2043.64 1894.2 2036.28 1894.2 2036.28 1908.64C2036.28 1910.08 2036.64 1911.18 2037.36 1911.93 2038.08 1912.68 2039.11 1913.06 2040.46 1913.06 2041.14 1913.06 2041.79 1912.95 2042.42 1912.73 2043.05 1912.52 2043.59 1912.21 2044.05 1911.81L2045.2 1914.16C2044.59 1914.71 2043.83 1915.13 2042.92 1915.42 2042.02 1915.72 2041.08 1915.86 2040.1 1915.86 2037.83 1915.86 2036.08 1915.25 2034.85 1914.02 2033.62 1912.8 2033.01 1911.06 2033.01 1908.82L2033.01 1894.2 2028.69 1894.2 2028.69 1891.44 2033.01 1891.44ZM2009.72 1883.43 2013.08 1883.43 2027.8 1915.63 2024.21 1915.63 2020.34 1907.03 2002.4 1907.03 1998.54 1915.63 1995 1915.63ZM2099.46 1881.5 2102.73 1881.5 2102.73 1896.04C2103.74 1894.47 2105.03 1893.28 2106.61 1892.47 2108.19 1891.66 2109.96 1891.25 2111.93 1891.25 2114.19 1891.25 2116.25 1891.77 2118.09 1892.79 2119.93 1893.82 2121.37 1895.27 2122.41 1897.14 2123.46 1899.01 2123.98 1901.14 2123.98 1903.53 2123.98 1905.93 2123.46 1908.06 2122.41 1909.93 2121.37 1911.8 2119.93 1913.26 2118.09 1914.3 2116.25 1915.34 2114.19 1915.86 2111.93 1915.86 2109.9 1915.86 2108.08 1915.43 2106.47 1914.57 2104.86 1913.72 2103.57 1912.47 2102.59 1910.85L2102.59 1915.63 2099.46 1915.63ZM2089.12 1881.5C2089.79 1881.5 2090.36 1881.72 2090.82 1882.17 2091.28 1882.61 2091.51 1883.14 2091.51 1883.75 2091.51 1884.43 2091.28 1885 2090.82 1885.46 2090.36 1885.92 2089.79 1886.15 2089.12 1886.15 2088.44 1886.15 2087.87 1885.92 2087.41 1885.46 2086.95 1885 2086.72 1884.44 2086.72 1883.8 2086.72 1883.19 2086.95 1882.65 2087.41 1882.19 2087.87 1881.73 2088.44 1881.5 2089.12 1881.5Z" stroke="#4472C4" stroke-width="3" stroke-linejoin="round" stroke-miterlimit="10" stroke-opacity="0" fill="#FFFFFF" fill-rule="evenodd"/><text fill="#000000" fill-opacity="0" font-family="Arial,Arial_MSFontService,sans-serif" font-size="34.3619" x="1995" y="1911.57">Attributes</text><path d="M2093.51 1959.41C2089.37 1959.41 2087.3 1960.85 2087.3 1963.73 2087.3 1965.14 2087.83 1966.25 2088.91 1967.07 2089.98 1967.88 2091.48 1968.29 2093.42 1968.29 2095.25 1968.29 2096.83 1967.86 2098.15 1967.02 2099.47 1966.18 2100.45 1964.96 2101.1 1963.36L2101.1 1959.41ZM2172.1 1946.44 2175.37 1946.44 2175.37 1970.63 2172.1 1970.63ZM2120.59 1946.44 2124 1946.44 2133.1 1967 2142.21 1946.44 2145.43 1946.44 2133.33 1973.53C2132.35 1975.8 2131.22 1977.41 2129.93 1978.36 2128.64 1979.31 2127.09 1979.79 2125.28 1979.79 2124.12 1979.79 2123.03 1979.6 2122.02 1979.23 2121.01 1978.87 2120.13 1978.31 2119.4 1977.58L2120.92 1975.14C2122.14 1976.37 2123.61 1976.98 2125.33 1976.98 2126.44 1976.98 2127.38 1976.67 2128.16 1976.06 2128.94 1975.45 2129.67 1974.4 2130.34 1972.93L2131.4 1970.59ZM2192.19 1946.25C2193.75 1946.25 2195.31 1946.46 2196.88 1946.87 2198.44 1947.29 2199.73 1947.83 2200.74 1948.51L2199.31 1951.13C2197.32 1949.75 2194.95 1949.06 2192.19 1949.06 2190.1 1949.06 2188.53 1949.43 2187.47 1950.16 2186.41 1950.9 2185.88 1951.86 2185.88 1953.06 2185.88 1953.98 2186.18 1954.72 2186.78 1955.27 2187.38 1955.82 2188.12 1956.23 2189.01 1956.49 2189.9 1956.75 2191.13 1957.02 2192.69 1957.29 2194.62 1957.66 2196.17 1958.03 2197.34 1958.4 2198.5 1958.76 2199.5 1959.39 2200.33 1960.28 2201.16 1961.17 2201.57 1962.4 2201.57 1963.96 2201.57 1966.08 2200.69 1967.76 2198.92 1969 2197.16 1970.24 2194.72 1970.86 2191.59 1970.86 2189.62 1970.86 2187.75 1970.58 2185.95 1970.01 2184.16 1969.44 2182.75 1968.73 2181.74 1967.87L2183.22 1965.3C2184.23 1966.09 2185.5 1966.74 2187.03 1967.25 2188.57 1967.76 2190.16 1968.01 2191.82 1968.01 2194.02 1968.01 2195.66 1967.66 2196.72 1966.97 2197.77 1966.28 2198.3 1965.31 2198.3 1964.05 2198.3 1963.16 2198.01 1962.47 2197.43 1961.96 2196.85 1961.45 2196.11 1961.07 2195.22 1960.81 2194.33 1960.55 2193.15 1960.3 2191.68 1960.05 2189.72 1959.68 2188.14 1959.31 2186.94 1958.92 2185.74 1958.54 2184.73 1957.89 2183.88 1956.97 2183.04 1956.05 2182.62 1954.78 2182.62 1953.15 2182.62 1951.13 2183.46 1949.47 2185.15 1948.18 2186.83 1946.9 2189.18 1946.25 2192.19 1946.25ZM2157.19 1946.25C2158.75 1946.25 2160.31 1946.46 2161.88 1946.87 2163.44 1947.29 2164.73 1947.83 2165.74 1948.51L2164.31 1951.13C2162.32 1949.75 2159.95 1949.06 2157.19 1949.06 2155.1 1949.06 2153.53 1949.43 2152.47 1950.16 2151.41 1950.9 2150.88 1951.86 2150.88 1953.06 2150.88 1953.98 2151.18 1954.72 2151.78 1955.27 2152.38 1955.82 2153.12 1956.23 2154.01 1956.49 2154.9 1956.75 2156.13 1957.02 2157.69 1957.29 2159.62 1957.66 2161.17 1958.03 2162.34 1958.4 2163.5 1958.76 2164.5 1959.39 2165.33 1960.28 2166.16 1961.17 2166.57 1962.4 2166.57 1963.96 2166.57 1966.08 2165.69 1967.76 2163.92 1969 2162.16 1970.24 2159.72 1970.86 2156.59 1970.86 2154.62 1970.86 2152.75 1970.58 2150.95 1970.01 2149.16 1969.44 2147.75 1968.73 2146.74 1967.87L2148.22 1965.3C2149.23 1966.09 2150.5 1966.74 2152.03 1967.25 2153.57 1967.76 2155.16 1968.01 2156.82 1968.01 2159.02 1968.01 2160.66 1967.66 2161.72 1966.97 2162.77 1966.28 2163.3 1965.31 2163.3 1964.05 2163.3 1963.16 2163.01 1962.47 2162.43 1961.96 2161.85 1961.45 2161.11 1961.07 2160.22 1960.81 2159.33 1960.55 2158.15 1960.3 2156.68 1960.05 2154.72 1959.68 2153.14 1959.31 2151.94 1958.92 2150.74 1958.54 2149.73 1957.89 2148.88 1956.97 2148.04 1956.05 2147.62 1954.78 2147.62 1953.15 2147.62 1951.13 2148.46 1949.47 2150.15 1948.18 2151.83 1946.9 2154.18 1946.25 2157.19 1946.25ZM2094.56 1946.25C2097.72 1946.25 2100.15 1947.04 2101.83 1948.62 2103.52 1950.2 2104.36 1952.54 2104.36 1955.64L2104.36 1970.63 2101.23 1970.63 2101.23 1966.86C2100.5 1968.12 2099.42 1969.1 2097.99 1969.8 2096.57 1970.51 2094.87 1970.86 2092.91 1970.86 2090.21 1970.86 2088.06 1970.22 2086.47 1968.93 2084.87 1967.64 2084.08 1965.94 2084.08 1963.82 2084.08 1961.77 2084.82 1960.11 2086.31 1958.86 2087.8 1957.6 2090.16 1956.97 2093.42 1956.97L2101.1 1956.97 2101.1 1955.5C2101.1 1953.41 2100.51 1951.83 2099.35 1950.74 2098.18 1949.65 2096.48 1949.1 2094.24 1949.1 2092.71 1949.1 2091.24 1949.36 2089.83 1949.86 2088.42 1950.37 2087.21 1951.07 2086.19 1951.96L2084.72 1949.52C2085.95 1948.48 2087.42 1947.67 2089.14 1947.1 2090.85 1946.54 2092.66 1946.25 2094.56 1946.25ZM2067.43 1946.25C2070.47 1946.25 2072.88 1947.13 2074.67 1948.9 2076.47 1950.66 2077.36 1953.23 2077.36 1956.6L2077.36 1970.63 2074.1 1970.63 2074.1 1956.92C2074.1 1954.41 2073.47 1952.49 2072.21 1951.17 2070.96 1949.86 2069.16 1949.2 2066.83 1949.2 2064.22 1949.2 2062.16 1949.97 2060.64 1951.52 2059.13 1953.07 2058.37 1955.21 2058.37 1957.94L2058.37 1970.63 2055.1 1970.63 2055.1 1946.44 2058.23 1946.44 2058.23 1950.9C2059.12 1949.43 2060.35 1948.28 2061.93 1947.47 2063.51 1946.66 2065.34 1946.25 2067.43 1946.25ZM2034.02 1941.97 2026.29 1959.27 2041.74 1959.27ZM2032.36 1938.43 2035.72 1938.43 2050.44 1970.63 2046.85 1970.63 2042.98 1962.03 2025.05 1962.03 2021.18 1970.63 2017.64 1970.63ZM2173.76 1936.5C2174.43 1936.5 2175 1936.72 2175.46 1937.17 2175.92 1937.61 2176.15 1938.14 2176.15 1938.75 2176.15 1939.43 2175.92 1940 2175.46 1940.46 2175 1940.92 2174.43 1941.15 2173.76 1941.15 2173.08 1941.15 2172.51 1940.92 2172.05 1940.46 2171.59 1940 2171.36 1939.44 2171.36 1938.8 2171.36 1938.19 2171.59 1937.65 2172.05 1937.19 2172.51 1936.73 2173.08 1936.5 2173.76 1936.5ZM2113.1 1936.5 2116.37 1936.5 2116.37 1970.63 2113.1 1970.63Z" stroke="#4472C4" stroke-width="3" stroke-linejoin="round" stroke-miterlimit="10" stroke-opacity="0" fill="#FFFFFF" fill-rule="evenodd"/><text fill="#000000" fill-opacity="0" font-family="Arial,Arial_MSFontService,sans-serif" font-size="43.286" x="2017.64" y="1974.38">Analysis</text><path d="M2283.5 1917.5C2283.5 1781.09 2394.31 1670.5 2531 1670.5 2667.69 1670.5 2778.5 1781.09 2778.5 1917.5 2778.5 2053.91 2667.69 2164.5 2531 2164.5 2394.31 2164.5 2283.5 2053.91 2283.5 1917.5Z" stroke="#D9D9D9" stroke-width="4.58333" stroke-miterlimit="8" fill="#FFFFFF" fill-rule="evenodd"/><path d="M2314 1917C2314 1796.05 2412.05 1698 2533 1698 2653.95 1698 2752 1796.05 2752 1917 2752 2037.95 2653.95 2136 2533 2136 2412.05 2136 2314 2037.95 2314 1917Z" fill="#7F7F7F" fill-rule="evenodd"/><path d="M2563.52 1896.94C2560.98 1898.38 2559.22 1899.68 2558.26 1900.85 2557.29 1902.01 2556.81 1903.32 2556.81 1904.76 2556.81 1906.51 2557.52 1907.91 2558.95 1908.97 2560.37 1910.02 2562.25 1910.55 2564.58 1910.55 2568.14 1910.55 2571.02 1909.34 2573.23 1906.92ZM2640.91 1891.46C2639.17 1891.46 2637.59 1891.83 2636.2 1892.57 2634.8 1893.3 2633.72 1894.35 2632.93 1895.7 2632.15 1897.04 2631.76 1898.58 2631.76 1900.3 2631.76 1902.01 2632.15 1903.55 2632.93 1904.9 2633.72 1906.24 2634.8 1907.29 2636.2 1908.05 2637.59 1908.8 2639.17 1909.17 2640.91 1909.17 2642.66 1909.17 2644.24 1908.8 2645.65 1908.05 2647.06 1907.29 2648.16 1906.24 2648.94 1904.9 2649.72 1903.55 2650.11 1902.01 2650.11 1900.3 2650.11 1898.58 2649.72 1897.05 2648.94 1895.72 2648.16 1894.38 2647.07 1893.34 2645.68 1892.59 2644.28 1891.84 2642.69 1891.46 2640.91 1891.46ZM2476.78 1891.46C2475.06 1891.46 2473.52 1891.85 2472.15 1892.64 2470.79 1893.42 2469.72 1894.53 2468.93 1895.97 2468.15 1897.41 2467.76 1899.05 2467.76 1900.89 2467.76 1902.73 2468.15 1904.37 2468.93 1905.82 2469.72 1907.26 2470.79 1908.37 2472.15 1909.15 2473.52 1909.93 2475.06 1910.32 2476.78 1910.32 2478.46 1910.32 2479.99 1909.93 2481.35 1909.15 2482.72 1908.37 2483.79 1907.26 2484.57 1905.82 2485.36 1904.37 2485.75 1902.73 2485.75 1900.89 2485.75 1899.05 2485.36 1897.41 2484.57 1895.97 2483.79 1894.53 2482.72 1893.42 2481.35 1892.64 2479.99 1891.85 2478.46 1891.46 2476.78 1891.46ZM2672.27 1891.42C2669.94 1891.42 2667.98 1892.16 2666.41 1893.65 2664.83 1895.14 2663.93 1897.08 2663.71 1899.47L2680.87 1899.47C2680.66 1897.08 2679.76 1895.14 2678.18 1893.65 2676.6 1892.16 2674.63 1891.42 2672.27 1891.42ZM2507.27 1891.42C2504.94 1891.42 2502.98 1892.16 2501.41 1893.65 2499.83 1895.14 2498.93 1897.08 2498.71 1899.47L2515.87 1899.47C2515.66 1897.08 2514.76 1895.14 2513.18 1893.65 2511.6 1892.16 2509.63 1891.42 2507.27 1891.42ZM2418.27 1891.42C2415.94 1891.42 2413.98 1892.16 2412.41 1893.65 2410.83 1895.14 2409.93 1897.08 2409.71 1899.47L2426.87 1899.47C2426.66 1897.08 2425.76 1895.14 2424.18 1893.65 2422.6 1892.16 2420.63 1891.42 2418.27 1891.42ZM2672.27 1888.61C2674.51 1888.61 2676.52 1889.13 2678.3 1890.18 2680.08 1891.22 2681.47 1892.67 2682.48 1894.52 2683.49 1896.38 2684 1898.5 2684 1900.89L2683.95 1901.91 2663.71 1901.91C2663.9 1904.42 2664.86 1906.45 2666.61 1908 2668.36 1909.55 2670.57 1910.32 2673.24 1910.32 2674.74 1910.32 2676.12 1910.05 2677.38 1909.52 2678.63 1908.98 2679.72 1908.19 2680.64 1907.15L2682.48 1909.27C2681.41 1910.55 2680.07 1911.53 2678.46 1912.21 2676.85 1912.88 2675.08 1913.22 2673.14 1913.22 2670.66 1913.22 2668.46 1912.69 2666.54 1911.63 2664.63 1910.58 2663.13 1909.11 2662.06 1907.24 2660.99 1905.37 2660.45 1903.25 2660.45 1900.89 2660.45 1898.53 2660.96 1896.42 2661.99 1894.55 2663.02 1892.67 2664.43 1891.22 2666.22 1890.18 2668.02 1889.13 2670.03 1888.61 2672.27 1888.61ZM2640.59 1888.61C2642.65 1888.61 2644.5 1889.03 2646.16 1889.85 2647.81 1890.68 2649.15 1891.88 2650.16 1893.44L2650.16 1888.8 2653.29 1888.8 2653.29 1910.05C2653.29 1914.16 2652.28 1917.2 2650.28 1919.18 2648.27 1921.16 2645.24 1922.15 2641.19 1922.15 2638.95 1922.15 2636.83 1921.82 2634.82 1921.16 2632.81 1920.5 2631.18 1919.58 2629.92 1918.42L2631.58 1915.94C2632.74 1916.98 2634.16 1917.79 2635.83 1918.37 2637.5 1918.96 2639.26 1919.25 2641.1 1919.25 2644.17 1919.25 2646.42 1918.53 2647.86 1917.11 2649.3 1915.68 2650.02 1913.47 2650.02 1910.46L2650.02 1907.38C2649.01 1908.91 2647.68 1910.08 2646.04 1910.88 2644.4 1911.67 2642.59 1912.07 2640.59 1912.07 2638.32 1912.07 2636.26 1911.57 2634.41 1910.58 2632.55 1909.58 2631.09 1908.18 2630.04 1906.39 2628.98 1904.6 2628.45 1902.56 2628.45 1900.3 2628.45 1898.03 2628.98 1896 2630.04 1894.22 2631.09 1892.44 2632.54 1891.06 2634.38 1890.08 2636.22 1889.1 2638.29 1888.61 2640.59 1888.61ZM2537.08 1888.61 2537.08 1891.79 2536.29 1891.74C2533.75 1891.74 2531.76 1892.52 2530.31 1894.09 2528.87 1895.65 2528.15 1897.84 2528.15 1900.66L2528.15 1912.99 2524.89 1912.99 2524.89 1888.8 2528.01 1888.8 2528.01 1893.53C2528.78 1891.91 2529.92 1890.68 2531.44 1889.85 2532.96 1889.03 2534.84 1888.61 2537.08 1888.61ZM2507.27 1888.61C2509.51 1888.61 2511.52 1889.13 2513.3 1890.18 2515.08 1891.22 2516.47 1892.67 2517.48 1894.52 2518.49 1896.38 2519 1898.5 2519 1900.89L2518.95 1901.91 2498.71 1901.91C2498.9 1904.42 2499.86 1906.45 2501.61 1908 2503.36 1909.55 2505.57 1910.32 2508.24 1910.32 2509.74 1910.32 2511.12 1910.05 2512.38 1909.52 2513.63 1908.98 2514.72 1908.19 2515.64 1907.15L2517.48 1909.27C2516.41 1910.55 2515.07 1911.53 2513.46 1912.21 2511.85 1912.88 2510.08 1913.22 2508.14 1913.22 2505.66 1913.22 2503.46 1912.69 2501.54 1911.63 2499.63 1910.58 2498.13 1909.11 2497.06 1907.24 2495.99 1905.37 2495.45 1903.25 2495.45 1900.89 2495.45 1898.53 2495.96 1896.42 2496.99 1894.55 2498.02 1892.67 2499.43 1891.22 2501.22 1890.18 2503.02 1889.13 2505.03 1888.61 2507.27 1888.61ZM2448.21 1888.61C2451.25 1888.61 2453.67 1889.49 2455.46 1891.26 2457.25 1893.02 2458.15 1895.59 2458.15 1898.96L2458.15 1912.99 2454.88 1912.99 2454.88 1899.28C2454.88 1896.77 2454.26 1894.85 2453 1893.53 2451.74 1892.21 2449.95 1891.56 2447.62 1891.56 2445.01 1891.56 2442.95 1892.33 2441.43 1893.88 2439.91 1895.43 2439.15 1897.57 2439.15 1900.3L2439.15 1912.99 2435.89 1912.99 2435.89 1888.8 2439.01 1888.8 2439.01 1893.26C2439.9 1891.79 2441.14 1890.64 2442.72 1889.83 2444.3 1889.02 2446.13 1888.61 2448.21 1888.61ZM2418.27 1888.61C2420.51 1888.61 2422.52 1889.13 2424.3 1890.18 2426.08 1891.22 2427.47 1892.67 2428.48 1894.52 2429.49 1896.38 2430 1898.5 2430 1900.89L2429.95 1901.91 2409.71 1901.91C2409.9 1904.42 2410.86 1906.45 2412.61 1908 2414.36 1909.55 2416.57 1910.32 2419.24 1910.32 2420.74 1910.32 2422.12 1910.05 2423.38 1909.52 2424.63 1908.98 2425.72 1908.19 2426.64 1907.15L2428.48 1909.27C2427.41 1910.55 2426.07 1911.53 2424.46 1912.21 2422.85 1912.88 2421.08 1913.22 2419.14 1913.22 2416.66 1913.22 2414.46 1912.69 2412.54 1911.63 2410.63 1910.58 2409.13 1909.11 2408.06 1907.24 2406.99 1905.37 2406.45 1903.25 2406.45 1900.89 2406.45 1898.53 2406.96 1896.42 2407.99 1894.55 2409.02 1892.67 2410.43 1891.22 2412.22 1890.18 2414.02 1889.13 2416.03 1888.61 2418.27 1888.61ZM2610.8 1884.33 2603.07 1901.63 2618.53 1901.63ZM2565.78 1883C2564.18 1883 2562.93 1883.4 2562.03 1884.2 2561.12 1884.99 2560.67 1886.05 2560.67 1887.37 2560.67 1888.32 2560.92 1889.22 2561.41 1890.08 2561.9 1890.94 2562.86 1892.11 2564.3 1893.58 2566.64 1892.23 2568.25 1891.08 2569.13 1890.13 2570.02 1889.18 2570.47 1888.14 2570.47 1887 2570.47 1885.77 2570.05 1884.8 2569.23 1884.08 2568.4 1883.36 2567.25 1883 2565.78 1883ZM2609.14 1880.79 2612.5 1880.79 2627.22 1912.99 2623.63 1912.99 2619.77 1904.39 2601.83 1904.39 2597.97 1912.99 2594.42 1912.99ZM2565.78 1880.56C2568.08 1880.56 2569.9 1881.13 2571.25 1882.26 2572.6 1883.4 2573.27 1884.96 2573.27 1886.96 2573.27 1888.55 2572.74 1889.98 2571.66 1891.26 2570.59 1892.53 2568.74 1893.93 2566.1 1895.47L2574.93 1904.57C2575.91 1902.83 2576.63 1900.76 2577.09 1898.36L2579.76 1899.19C2579.18 1902.07 2578.23 1904.54 2576.91 1906.6L2581.51 1911.34 2579.62 1913.5 2575.16 1908.9C2572.43 1911.81 2568.84 1913.27 2564.4 1913.27 2562.31 1913.27 2560.45 1912.92 2558.81 1912.23 2557.17 1911.54 2555.89 1910.58 2554.97 1909.33 2554.05 1908.09 2553.59 1906.67 2553.59 1905.08 2553.59 1903.15 2554.2 1901.41 2555.43 1899.88 2556.65 1898.35 2558.74 1896.74 2561.68 1895.05 2560.15 1893.46 2559.09 1892.1 2558.51 1890.98 2557.93 1889.86 2557.63 1888.67 2557.63 1887.42 2557.63 1885.36 2558.37 1883.7 2559.84 1882.45 2561.31 1881.19 2563.29 1880.56 2565.78 1880.56ZM2387.74 1880.52C2390.2 1880.52 2392.45 1880.91 2394.51 1881.69 2396.56 1882.47 2398.29 1883.63 2399.7 1885.16L2397.59 1887.32C2395.04 1884.81 2391.81 1883.55 2387.88 1883.55 2385.28 1883.55 2382.92 1884.13 2380.82 1885.28 2378.72 1886.43 2377.07 1888.02 2375.88 1890.06 2374.68 1892.1 2374.08 1894.38 2374.08 1896.89 2374.08 1899.41 2374.68 1901.68 2375.88 1903.7 2377.07 1905.72 2378.71 1907.32 2380.8 1908.48 2382.88 1909.65 2385.23 1910.23 2387.84 1910.23 2391.15 1910.23 2393.95 1909.4 2396.25 1907.75L2396.25 1896.89 2399.52 1896.89 2399.52 1909.17C2398.02 1910.49 2396.24 1911.5 2394.18 1912.21 2392.13 1912.91 2389.97 1913.27 2387.7 1913.27 2384.48 1913.27 2381.58 1912.56 2379 1911.15 2376.43 1909.74 2374.4 1907.79 2372.93 1905.29 2371.46 1902.79 2370.72 1899.99 2370.72 1896.89 2370.72 1893.79 2371.46 1891 2372.93 1888.5 2374.4 1886 2376.43 1884.04 2379 1882.63 2381.58 1881.22 2384.49 1880.52 2387.74 1880.52ZM2485.7 1878.86 2488.97 1878.86 2488.97 1912.99 2485.84 1912.99 2485.84 1908.21C2484.86 1909.83 2483.56 1911.07 2481.95 1911.93 2480.34 1912.79 2478.52 1913.22 2476.5 1913.22 2474.23 1913.22 2472.18 1912.7 2470.34 1911.66 2468.5 1910.61 2467.06 1909.16 2466.01 1907.29 2464.97 1905.42 2464.45 1903.29 2464.45 1900.89 2464.45 1898.5 2464.97 1896.37 2466.01 1894.5 2467.06 1892.63 2468.5 1891.18 2470.34 1890.15 2472.18 1889.12 2474.23 1888.61 2476.5 1888.61 2478.46 1888.61 2480.23 1889.02 2481.81 1889.83 2483.39 1890.64 2484.69 1891.83 2485.7 1893.4Z" stroke="#4472C4" stroke-width="3" stroke-linejoin="round" stroke-miterlimit="10" stroke-opacity="0" fill="#FFFFFF" fill-rule="evenodd"/><text fill="#000000" fill-opacity="0" font-family="Arial,Arial_MSFontService,sans-serif" font-size="43.286" x="2370.72" y="1916.73">Gender &amp; Age</text><path d="M2546.82 1956.77C2542.68 1956.77 2540.61 1958.21 2540.61 1961.09 2540.61 1962.5 2541.15 1963.61 2542.22 1964.43 2543.29 1965.24 2544.8 1965.65 2546.73 1965.65 2548.57 1965.65 2550.15 1965.22 2551.47 1964.38 2552.78 1963.54 2553.77 1962.32 2554.41 1960.72L2554.41 1956.77ZM2607.3 1946.46C2605.59 1946.46 2604.05 1946.85 2602.68 1947.64 2601.32 1948.42 2600.24 1949.53 2599.46 1950.97 2598.68 1952.41 2598.29 1954.05 2598.29 1955.89 2598.29 1957.73 2598.68 1959.37 2599.46 1960.82 2600.24 1962.26 2601.32 1963.37 2602.68 1964.15 2604.05 1964.93 2605.59 1965.32 2607.3 1965.32 2609.02 1965.32 2610.56 1964.93 2611.93 1964.15 2613.29 1963.37 2614.36 1962.26 2615.12 1960.82 2615.89 1959.37 2616.27 1957.73 2616.27 1955.89 2616.27 1954.05 2615.89 1952.41 2615.12 1950.97 2614.36 1949.53 2613.29 1948.42 2611.93 1947.64 2610.56 1946.85 2609.02 1946.46 2607.3 1946.46ZM2584.41 1943.8 2587.68 1943.8 2587.68 1967.99 2584.41 1967.99ZM2478.41 1943.8 2481.68 1943.8 2481.68 1967.99 2478.41 1967.99ZM2637.74 1943.61C2640.78 1943.61 2643.19 1944.49 2644.99 1946.26 2646.78 1948.02 2647.68 1950.59 2647.68 1953.96L2647.68 1967.99 2644.41 1967.99 2644.41 1954.28C2644.41 1951.77 2643.78 1949.85 2642.53 1948.53 2641.27 1947.21 2639.47 1946.56 2637.14 1946.56 2634.54 1946.56 2632.47 1947.33 2630.96 1948.88 2629.44 1950.43 2628.68 1952.57 2628.68 1955.3L2628.68 1967.99 2625.41 1967.99 2625.41 1943.8 2628.54 1943.8 2628.54 1948.26C2629.43 1946.79 2630.67 1945.64 2632.24 1944.83 2633.82 1944.02 2635.66 1943.61 2637.74 1943.61ZM2607.3 1943.61C2609.63 1943.61 2611.73 1944.13 2613.61 1945.18 2615.48 1946.22 2616.94 1947.67 2618 1949.55 2619.06 1951.42 2619.59 1953.53 2619.59 1955.89 2619.59 1958.25 2619.06 1960.37 2618 1962.24 2616.94 1964.11 2615.48 1965.58 2613.61 1966.63 2611.73 1967.69 2609.63 1968.22 2607.3 1968.22 2604.97 1968.22 2602.87 1967.69 2601 1966.63 2599.13 1965.58 2597.66 1964.11 2596.59 1962.24 2595.51 1960.37 2594.98 1958.25 2594.98 1955.89 2594.98 1953.53 2595.51 1951.42 2596.59 1949.55 2597.66 1947.67 2599.13 1946.22 2601 1945.18 2602.87 1944.13 2604.97 1943.61 2607.3 1943.61ZM2547.88 1943.61C2551.04 1943.61 2553.46 1944.4 2555.15 1945.98 2556.83 1947.56 2557.68 1949.9 2557.68 1953L2557.68 1967.99 2554.55 1967.99 2554.55 1964.22C2553.81 1965.48 2552.73 1966.46 2551.3 1967.16 2549.88 1967.87 2548.18 1968.22 2546.22 1968.22 2543.52 1968.22 2541.38 1967.58 2539.78 1966.29 2538.19 1965 2537.39 1963.3 2537.39 1961.18 2537.39 1959.13 2538.13 1957.47 2539.62 1956.22 2541.11 1954.96 2543.48 1954.33 2546.73 1954.33L2554.41 1954.33 2554.41 1952.86C2554.41 1950.77 2553.83 1949.18 2552.66 1948.1 2551.5 1947.01 2549.79 1946.46 2547.56 1946.46 2546.02 1946.46 2544.55 1946.72 2543.14 1947.22 2541.73 1947.73 2540.52 1948.43 2539.51 1949.32L2538.03 1946.88C2539.26 1945.83 2540.73 1945.03 2542.45 1944.46 2544.17 1943.89 2545.98 1943.61 2547.88 1943.61ZM2502.42 1943.61C2504.44 1943.61 2506.2 1944.04 2507.69 1944.9 2509.17 1945.76 2510.29 1947.03 2511.02 1948.72 2511.91 1947.12 2513.19 1945.87 2514.86 1944.97 2516.53 1944.06 2518.44 1943.61 2520.59 1943.61 2523.63 1943.61 2526.01 1944.49 2527.74 1946.23 2529.48 1947.98 2530.34 1950.56 2530.34 1953.96L2530.34 1967.99 2527.08 1967.99 2527.08 1954.28C2527.08 1951.77 2526.47 1949.85 2525.26 1948.53 2524.05 1947.21 2522.34 1946.56 2520.13 1946.56 2517.61 1946.56 2515.64 1947.33 2514.2 1948.88 2512.75 1950.43 2512.03 1952.57 2512.03 1955.3L2512.03 1967.99 2508.77 1967.99 2508.77 1954.28C2508.77 1951.77 2508.16 1949.85 2506.95 1948.53 2505.74 1947.21 2504.01 1946.56 2501.78 1946.56 2499.29 1946.56 2497.32 1947.33 2495.86 1948.88 2494.41 1950.43 2493.68 1952.57 2493.68 1955.3L2493.68 1967.99 2490.41 1967.99 2490.41 1943.8 2493.54 1943.8 2493.54 1948.21C2494.4 1946.74 2495.6 1945.6 2497.13 1944.81 2498.66 1944.01 2500.43 1943.61 2502.42 1943.61ZM2444.5 1943.61C2446.06 1943.61 2447.63 1943.82 2449.19 1944.23 2450.75 1944.65 2452.04 1945.19 2453.05 1945.87L2451.63 1948.49C2449.63 1947.11 2447.26 1946.42 2444.5 1946.42 2442.41 1946.42 2440.84 1946.79 2439.78 1947.52 2438.72 1948.26 2438.2 1949.22 2438.2 1950.42 2438.2 1951.34 2438.49 1952.08 2439.09 1952.63 2439.69 1953.18 2440.43 1953.59 2441.32 1953.85 2442.21 1954.11 2443.44 1954.38 2445 1954.65 2446.94 1955.02 2448.48 1955.39 2449.65 1955.76 2450.81 1956.12 2451.81 1956.75 2452.64 1957.64 2453.47 1958.53 2453.88 1959.76 2453.88 1961.32 2453.88 1963.44 2453 1965.12 2451.24 1966.36 2449.47 1967.6 2447.03 1968.22 2443.9 1968.22 2441.94 1968.22 2440.06 1967.94 2438.26 1967.37 2436.47 1966.8 2435.07 1966.09 2434.06 1965.23L2435.53 1962.66C2436.54 1963.45 2437.81 1964.1 2439.35 1964.61 2440.88 1965.12 2442.47 1965.37 2444.13 1965.37 2446.34 1965.37 2447.97 1965.02 2449.03 1964.33 2450.09 1963.64 2450.62 1962.67 2450.62 1961.41 2450.62 1960.52 2450.32 1959.83 2449.74 1959.32 2449.16 1958.81 2448.42 1958.43 2447.53 1958.17 2446.64 1957.91 2445.46 1957.66 2443.99 1957.41 2442.03 1957.04 2440.45 1956.67 2439.25 1956.28 2438.06 1955.9 2437.04 1955.25 2436.19 1954.33 2435.35 1953.41 2434.93 1952.14 2434.93 1950.51 2434.93 1948.49 2435.77 1946.83 2437.46 1945.54 2439.15 1944.26 2441.49 1943.61 2444.5 1943.61ZM2566.97 1938.51 2570.23 1938.51 2570.23 1943.8 2577.59 1943.8 2577.59 1946.56 2570.23 1946.56 2570.23 1961C2570.23 1962.44 2570.59 1963.54 2571.31 1964.29 2572.03 1965.04 2573.07 1965.42 2574.42 1965.42 2575.09 1965.42 2575.74 1965.31 2576.37 1965.09 2577 1964.88 2577.55 1964.57 2578.01 1964.17L2579.16 1966.52C2578.54 1967.07 2577.78 1967.49 2576.88 1967.78 2575.97 1968.08 2575.03 1968.22 2574.05 1968.22 2571.78 1968.22 2570.03 1967.61 2568.81 1966.38 2567.58 1965.15 2566.97 1963.42 2566.97 1961.18L2566.97 1946.56 2562.64 1946.56 2562.64 1943.8 2566.97 1943.8ZM2459.97 1938.51 2463.23 1938.51 2463.23 1943.8 2470.59 1943.8 2470.59 1946.56 2463.23 1946.56 2463.23 1961C2463.23 1962.44 2463.59 1963.54 2464.31 1964.29 2465.03 1965.04 2466.07 1965.42 2467.42 1965.42 2468.09 1965.42 2468.74 1965.31 2469.37 1965.09 2470 1964.88 2470.55 1964.57 2471.01 1964.17L2472.16 1966.52C2471.54 1967.07 2470.78 1967.49 2469.88 1967.78 2468.97 1968.08 2468.03 1968.22 2467.05 1968.22 2464.78 1968.22 2463.03 1967.61 2461.81 1966.38 2460.58 1965.15 2459.97 1963.42 2459.97 1961.18L2459.97 1946.56 2455.64 1946.56 2455.64 1943.8 2459.97 1943.8ZM2407.1 1935.79 2429.18 1935.79 2429.18 1938.74 2410.51 1938.74 2410.51 1950.19 2427.16 1950.19 2427.16 1953.09 2410.51 1953.09 2410.51 1965.05 2429.87 1965.05 2429.87 1967.99 2407.1 1967.99ZM2586.07 1933.86C2586.74 1933.86 2587.31 1934.08 2587.77 1934.53 2588.23 1934.97 2588.46 1935.5 2588.46 1936.11 2588.46 1936.79 2588.23 1937.36 2587.77 1937.82 2587.31 1938.28 2586.74 1938.51 2586.07 1938.51 2585.4 1938.51 2584.83 1938.28 2584.37 1937.82 2583.91 1937.36 2583.68 1936.8 2583.68 1936.16 2583.68 1935.55 2583.91 1935.01 2584.37 1934.55 2584.83 1934.09 2585.4 1933.86 2586.07 1933.86ZM2480.07 1933.86C2480.74 1933.86 2481.31 1934.08 2481.77 1934.53 2482.23 1934.97 2482.46 1935.5 2482.46 1936.11 2482.46 1936.79 2482.23 1937.36 2481.77 1937.82 2481.31 1938.28 2480.74 1938.51 2480.07 1938.51 2479.4 1938.51 2478.83 1938.28 2478.37 1937.82 2477.91 1937.36 2477.68 1936.8 2477.68 1936.16 2477.68 1935.55 2477.91 1935.01 2478.37 1934.55 2478.83 1934.09 2479.4 1933.86 2480.07 1933.86Z" stroke="#4472C4" stroke-width="3" stroke-linejoin="round" stroke-miterlimit="10" stroke-opacity="0" fill="#FFFFFF" fill-rule="evenodd"/><text fill="#000000" fill-opacity="0" font-family="Arial,Arial_MSFontService,sans-serif" font-size="34.3619" x="2407.1" y="1963.93">Estimation</text><path d="M2700.5 1915C2700.5 1778.31 2811.31 1667.5 2948 1667.5 3084.69 1667.5 3195.5 1778.31 3195.5 1915 3195.5 2051.69 3084.69 2162.5 2948 2162.5 2811.31 2162.5 2700.5 2051.69 2700.5 1915Z" stroke="#D9D9D9" stroke-width="4.58333" stroke-miterlimit="8" fill="#FFFFFF" fill-rule="evenodd"/><path d="M2731 1914.5C2731 1793.27 2829.05 1695 2950 1695 3070.95 1695 3169 1793.27 3169 1914.5 3169 2035.73 3070.95 2134 2950 2134 2829.05 2134 2731 2035.73 2731 1914.5Z" fill="#AD3757" fill-rule="evenodd"/><path d="M3011.58 1866.29C3007.44 1866.29 3005.37 1867.73 3005.37 1870.61 3005.37 1872.02 3005.91 1873.13 3006.98 1873.95 3008.05 1874.76 3009.56 1875.17 3011.49 1875.17 3013.33 1875.17 3014.91 1874.74 3016.23 1873.9 3017.54 1873.06 3018.53 1871.84 3019.17 1870.24L3019.17 1866.29ZM2972.94 1853.32 2976.21 1853.32 2976.21 1867.02C2976.21 1869.57 2976.84 1871.5 2978.1 1872.82 2979.35 1874.14 2981.15 1874.8 2983.48 1874.8 2986.02 1874.8 2988.03 1874.02 2989.5 1872.47 2990.98 1870.93 2991.71 1868.77 2991.71 1866.01L2991.71 1853.32 2994.98 1853.32 2994.98 1877.51 2991.85 1877.51 2991.85 1873.1C2990.99 1874.57 2989.81 1875.71 2988.31 1876.52 2986.81 1877.33 2985.09 1877.74 2983.16 1877.74 2980 1877.74 2977.51 1876.86 2975.68 1875.1 2973.86 1873.33 2972.94 1870.75 2972.94 1867.35ZM2919.94 1853.32 2923.21 1853.32 2923.21 1867.02C2923.21 1869.57 2923.84 1871.5 2925.1 1872.82 2926.35 1874.14 2928.15 1874.8 2930.48 1874.8 2933.02 1874.8 2935.03 1874.02 2936.5 1872.47 2937.98 1870.93 2938.71 1868.77 2938.71 1866.01L2938.71 1853.32 2941.98 1853.32 2941.98 1877.51 2938.85 1877.51 2938.85 1873.1C2937.99 1874.57 2936.81 1875.71 2935.31 1876.52 2933.81 1877.33 2932.09 1877.74 2930.16 1877.74 2927 1877.74 2924.51 1876.86 2922.68 1875.1 2920.86 1873.33 2919.94 1870.75 2919.94 1867.35ZM3012.64 1853.13C3015.8 1853.13 3018.22 1853.92 3019.91 1855.5 3021.59 1857.08 3022.44 1859.42 3022.44 1862.52L3022.44 1877.51 3019.31 1877.51 3019.31 1873.74C3018.57 1875 3017.49 1875.98 3016.07 1876.68 3014.64 1877.39 3012.94 1877.74 3010.98 1877.74 3008.28 1877.74 3006.14 1877.1 3004.54 1875.81 3002.95 1874.52 3002.15 1872.82 3002.15 1870.7 3002.15 1868.65 3002.89 1866.99 3004.38 1865.74 3005.87 1864.48 3008.24 1863.85 3011.49 1863.85L3019.17 1863.85 3019.17 1862.38C3019.17 1860.29 3018.59 1858.7 3017.42 1857.62 3016.26 1856.53 3014.55 1855.98 3012.32 1855.98 3010.78 1855.98 3009.31 1856.24 3007.9 1856.74 3006.49 1857.25 3005.28 1857.95 3004.27 1858.84L3002.79 1856.4C3004.02 1855.35 3005.49 1854.55 3007.21 1853.98 3008.93 1853.41 3010.74 1853.13 3012.64 1853.13ZM2958.26 1853.13C2959.82 1853.13 2961.39 1853.34 2962.95 1853.75 2964.51 1854.17 2965.8 1854.71 2966.81 1855.39L2965.39 1858.01C2963.39 1856.63 2961.02 1855.94 2958.26 1855.94 2956.17 1855.94 2954.6 1856.31 2953.54 1857.04 2952.49 1857.78 2951.96 1858.74 2951.96 1859.94 2951.96 1860.86 2952.26 1861.6 2952.85 1862.15 2953.45 1862.7 2954.19 1863.11 2955.08 1863.37 2955.97 1863.63 2957.2 1863.9 2958.76 1864.17 2960.7 1864.54 2962.24 1864.91 2963.41 1865.28 2964.58 1865.64 2965.57 1866.27 2966.4 1867.16 2967.23 1868.05 2967.64 1869.28 2967.64 1870.84 2967.64 1872.96 2966.76 1874.64 2965 1875.88 2963.23 1877.12 2960.79 1877.74 2957.66 1877.74 2955.7 1877.74 2953.82 1877.46 2952.03 1876.89 2950.23 1876.32 2948.83 1875.61 2947.82 1874.75L2949.29 1872.18C2950.3 1872.97 2951.57 1873.62 2953.11 1874.13 2954.64 1874.64 2956.23 1874.89 2957.89 1874.89 2960.1 1874.89 2961.73 1874.54 2962.79 1873.85 2963.85 1873.16 2964.38 1872.19 2964.38 1870.93 2964.38 1870.04 2964.08 1869.35 2963.5 1868.84 2962.92 1868.33 2962.18 1867.95 2961.29 1867.69 2960.4 1867.43 2959.22 1867.18 2957.75 1866.93 2955.79 1866.56 2954.21 1866.19 2953.01 1865.8 2951.82 1865.42 2950.8 1864.77 2949.96 1863.85 2949.11 1862.93 2948.69 1861.66 2948.69 1860.03 2948.69 1858.01 2949.53 1856.35 2951.22 1855.06 2952.91 1853.78 2955.25 1853.13 2958.26 1853.13ZM2901.5 1853.13C2904.54 1853.13 2906.95 1854.01 2908.75 1855.78 2910.54 1857.54 2911.44 1860.11 2911.44 1863.48L2911.44 1877.51 2908.17 1877.51 2908.17 1863.8C2908.17 1861.29 2907.54 1859.37 2906.29 1858.05 2905.03 1856.73 2903.23 1856.08 2900.9 1856.08 2898.3 1856.08 2896.24 1856.85 2894.72 1858.4 2893.2 1859.95 2892.44 1862.09 2892.44 1864.82L2892.44 1877.51 2889.17 1877.51 2889.17 1853.32 2892.3 1853.32 2892.3 1857.78C2893.19 1856.31 2894.43 1855.16 2896.01 1854.35 2897.58 1853.54 2899.42 1853.13 2901.5 1853.13ZM2853.59 1845.31 2856.99 1845.31 2856.99 1863.62C2856.99 1867.36 2857.84 1870.15 2859.52 1871.99 2861.21 1873.83 2863.65 1874.75 2866.84 1874.75 2870.06 1874.75 2872.51 1873.83 2874.2 1871.99 2875.88 1870.15 2876.73 1867.36 2876.73 1863.62L2876.73 1845.31 2880.04 1845.31 2880.04 1863.76C2880.04 1868.33 2878.88 1871.81 2876.57 1874.2 2874.25 1876.59 2871.01 1877.79 2866.84 1877.79 2862.67 1877.79 2859.41 1876.59 2857.08 1874.2 2854.75 1871.81 2853.59 1868.33 2853.59 1863.76ZM3031.17 1843.38 3034.44 1843.38 3034.44 1877.51 3031.17 1877.51Z" stroke="#4472C4" stroke-width="3" stroke-linejoin="round" stroke-miterlimit="10" stroke-opacity="0" fill="#FFFFFF" fill-rule="evenodd"/><text fill="#000000" fill-opacity="0" font-family="Arial,Arial_MSFontService,sans-serif" font-size="34.408" x="2853.59" y="1873.49">Unusual</text><path d="M3007.17 1921.29C3003.03 1921.29 3000.96 1922.73 3000.96 1925.61 3000.96 1927.02 3001.49 1928.13 3002.57 1928.95 3003.64 1929.76 3005.14 1930.17 3007.08 1930.17 3008.92 1930.17 3010.49 1929.74 3011.81 1928.9 3013.13 1928.06 3014.11 1926.84 3014.76 1925.24L3014.76 1921.29ZM3067.65 1910.98C3065.93 1910.98 3064.39 1911.37 3063.03 1912.16 3061.66 1912.94 3060.59 1914.05 3059.81 1915.49 3059.03 1916.93 3058.64 1918.57 3058.64 1920.41 3058.64 1922.25 3059.03 1923.89 3059.81 1925.34 3060.59 1926.78 3061.66 1927.89 3063.03 1928.67 3064.39 1929.45 3065.93 1929.84 3067.65 1929.84 3069.34 1929.84 3070.86 1929.45 3072.23 1928.67 3073.59 1927.89 3074.67 1926.78 3075.45 1925.34 3076.23 1923.89 3076.62 1922.25 3076.62 1920.41 3076.62 1918.57 3076.23 1916.93 3075.45 1915.49 3074.67 1914.05 3073.59 1912.94 3072.23 1912.16 3070.86 1911.37 3069.34 1910.98 3067.65 1910.98ZM2851.65 1910.98C2849.93 1910.98 2848.39 1911.37 2847.03 1912.16 2845.66 1912.94 2844.59 1914.05 2843.81 1915.49 2843.03 1916.93 2842.64 1918.57 2842.64 1920.41 2842.64 1922.25 2843.03 1923.89 2843.81 1925.34 2844.59 1926.78 2845.66 1927.89 2847.03 1928.67 2848.39 1929.45 2849.93 1929.84 2851.65 1929.84 2853.37 1929.84 2854.91 1929.45 2856.27 1928.67 2857.64 1927.89 2858.7 1926.78 2859.47 1925.34 2860.24 1923.89 2860.62 1922.25 2860.62 1920.41 2860.62 1918.57 2860.24 1916.93 2859.47 1915.49 2858.7 1914.05 2857.64 1912.94 2856.27 1912.16 2854.91 1911.37 2853.37 1910.98 2851.65 1910.98ZM2969.15 1910.94C2966.81 1910.94 2964.86 1911.68 2963.28 1913.17 2961.7 1914.66 2960.8 1916.6 2960.59 1918.99L2977.75 1918.99C2977.53 1916.6 2976.64 1914.66 2975.06 1913.17 2973.48 1911.68 2971.51 1910.94 2969.15 1910.94ZM2910.53 1908.32 2913.8 1908.32 2913.8 1922.02C2913.8 1924.57 2914.43 1926.5 2915.68 1927.82 2916.94 1929.14 2918.73 1929.8 2921.07 1929.8 2923.61 1929.8 2925.62 1929.02 2927.09 1927.47 2928.56 1925.93 2929.3 1923.77 2929.3 1921.01L2929.3 1908.32 2932.57 1908.32 2932.57 1932.51 2929.44 1932.51 2929.44 1928.1C2928.58 1929.57 2927.4 1930.71 2925.9 1931.52 2924.39 1932.33 2922.68 1932.74 2920.74 1932.74 2917.58 1932.74 2915.09 1931.86 2913.27 1930.1 2911.44 1928.33 2910.53 1925.75 2910.53 1922.35ZM3039.09 1908.13C3042.13 1908.13 3044.54 1909.01 3046.33 1910.78 3048.13 1912.54 3049.03 1915.11 3049.03 1918.48L3049.03 1932.51 3045.76 1932.51 3045.76 1918.8C3045.76 1916.29 3045.13 1914.37 3043.87 1913.05 3042.62 1911.73 3040.82 1911.08 3038.49 1911.08 3035.88 1911.08 3033.82 1911.85 3032.3 1913.4 3030.79 1914.95 3030.03 1917.09 3030.03 1919.82L3030.03 1932.51 3026.76 1932.51 3026.76 1908.32 3029.89 1908.32 3029.89 1912.78C3030.78 1911.31 3032.01 1910.16 3033.59 1909.35 3035.17 1908.54 3037 1908.13 3039.09 1908.13ZM3008.23 1908.13C3011.38 1908.13 3013.81 1908.92 3015.49 1910.5 3017.18 1912.08 3018.02 1914.42 3018.02 1917.52L3018.02 1932.51 3014.9 1932.51 3014.9 1928.74C3014.16 1930 3013.08 1930.98 3011.65 1931.68 3010.23 1932.39 3008.53 1932.74 3006.57 1932.74 3003.87 1932.74 3001.72 1932.1 3000.13 1930.81 2998.53 1929.52 2997.74 1927.82 2997.74 1925.7 2997.74 1923.65 2998.48 1921.99 2999.97 1920.74 3001.46 1919.48 3003.82 1918.85 3007.08 1918.85L3014.76 1918.85 3014.76 1917.38C3014.76 1915.29 3014.17 1913.7 3013.01 1912.62 3011.84 1911.53 3010.14 1910.98 3007.9 1910.98 3006.37 1910.98 3004.9 1911.24 3003.49 1911.74 3002.08 1912.25 3000.87 1912.95 2999.85 1913.84L2998.38 1911.4C2999.61 1910.35 3001.08 1909.55 3002.8 1908.98 3004.51 1908.41 3006.32 1908.13 3008.23 1908.13ZM2969.15 1908.13C2971.38 1908.13 2973.39 1908.65 2975.17 1909.7 2976.95 1910.74 2978.35 1912.19 2979.36 1914.04 2980.37 1915.9 2980.88 1918.02 2980.88 1920.41L2980.83 1921.43 2960.59 1921.43C2960.77 1923.94 2961.74 1925.97 2963.49 1927.52 2965.24 1929.07 2967.44 1929.84 2970.11 1929.84 2971.61 1929.84 2972.99 1929.57 2974.25 1929.04 2975.51 1928.5 2976.6 1927.71 2977.52 1926.67L2979.36 1928.79C2978.28 1930.07 2976.94 1931.05 2975.33 1931.73 2973.72 1932.4 2971.95 1932.74 2970.02 1932.74 2967.54 1932.74 2965.34 1932.21 2963.42 1931.15 2961.5 1930.1 2960.01 1928.63 2958.93 1926.76 2957.86 1924.89 2957.32 1922.77 2957.32 1920.41 2957.32 1918.05 2957.84 1915.94 2958.86 1914.07 2959.89 1912.19 2961.3 1910.74 2963.1 1909.7 2964.89 1908.65 2966.91 1908.13 2969.15 1908.13ZM2953.95 1908.13 2953.95 1911.31 2953.17 1911.26C2950.62 1911.26 2948.63 1912.04 2947.19 1913.61 2945.75 1915.17 2945.03 1917.36 2945.03 1920.18L2945.03 1932.51 2941.76 1932.51 2941.76 1908.32 2944.89 1908.32 2944.89 1913.05C2945.66 1911.43 2946.8 1910.2 2948.32 1909.37 2949.83 1908.55 2951.71 1908.13 2953.95 1908.13ZM2876.85 1908.13C2878.41 1908.13 2879.97 1908.34 2881.54 1908.75 2883.1 1909.17 2884.39 1909.71 2885.4 1910.39L2883.98 1913.01C2881.98 1911.63 2879.61 1910.94 2876.85 1910.94 2874.76 1910.94 2873.19 1911.31 2872.13 1912.04 2871.07 1912.78 2870.54 1913.74 2870.54 1914.94 2870.54 1915.86 2870.84 1916.6 2871.44 1917.15 2872.04 1917.7 2872.78 1918.11 2873.67 1918.37 2874.56 1918.63 2875.79 1918.9 2877.35 1919.17 2879.28 1919.54 2880.83 1919.91 2882 1920.28 2883.16 1920.64 2884.16 1921.27 2884.99 1922.16 2885.82 1923.05 2886.23 1924.28 2886.23 1925.84 2886.23 1927.96 2885.35 1929.64 2883.58 1930.88 2881.82 1932.12 2879.38 1932.74 2876.25 1932.74 2874.28 1932.74 2872.41 1932.46 2870.61 1931.89 2868.82 1931.32 2867.42 1930.61 2866.4 1929.75L2867.88 1927.18C2868.89 1927.97 2870.16 1928.62 2871.69 1929.13 2873.23 1929.64 2874.82 1929.89 2876.48 1929.89 2878.69 1929.89 2880.32 1929.54 2881.38 1928.85 2882.43 1928.16 2882.96 1927.19 2882.96 1925.93 2882.96 1925.04 2882.67 1924.35 2882.09 1923.84 2881.51 1923.33 2880.77 1922.95 2879.88 1922.69 2878.99 1922.43 2877.81 1922.18 2876.34 1921.93 2874.38 1921.56 2872.8 1921.19 2871.6 1920.8 2870.41 1920.42 2869.39 1919.77 2868.54 1918.85 2867.7 1917.93 2867.28 1916.66 2867.28 1915.03 2867.28 1913.01 2868.12 1911.35 2869.81 1910.06 2871.49 1908.78 2873.84 1908.13 2876.85 1908.13ZM2851.65 1908.13C2853.98 1908.13 2856.08 1908.65 2857.95 1909.7 2859.82 1910.74 2861.29 1912.19 2862.35 1914.07 2863.4 1915.94 2863.93 1918.05 2863.93 1920.41 2863.93 1922.77 2863.4 1924.89 2862.35 1926.76 2861.29 1928.63 2859.82 1930.1 2857.95 1931.15 2856.08 1932.21 2853.98 1932.74 2851.65 1932.74 2849.32 1932.74 2847.22 1932.21 2845.35 1931.15 2843.48 1930.1 2842.01 1928.63 2840.93 1926.76 2839.86 1924.89 2839.32 1922.77 2839.32 1920.41 2839.32 1918.05 2839.86 1915.94 2840.93 1914.07 2842.01 1912.19 2843.48 1910.74 2845.35 1909.7 2847.22 1908.65 2849.32 1908.13 2851.65 1908.13ZM2812.86 1903.26 2812.86 1919.36 2821.41 1919.36C2824.6 1919.36 2827.04 1918.66 2828.73 1917.26 2830.41 1915.87 2831.26 1913.9 2831.26 1911.35 2831.26 1908.74 2830.41 1906.74 2828.73 1905.35 2827.04 1903.95 2824.6 1903.26 2821.41 1903.26ZM2893.31 1903.03 2896.58 1903.03 2896.58 1908.32 2903.94 1908.32 2903.94 1911.08 2896.58 1911.08 2896.58 1925.52C2896.58 1926.96 2896.94 1928.06 2897.66 1928.81 2898.38 1929.56 2899.42 1929.94 2900.77 1929.94 2901.44 1929.94 2902.09 1929.83 2902.72 1929.61 2903.35 1929.4 2903.89 1929.09 2904.35 1928.69L2905.5 1931.04C2904.89 1931.59 2904.13 1932.01 2903.23 1932.3 2902.32 1932.6 2901.38 1932.74 2900.4 1932.74 2898.13 1932.74 2896.38 1932.13 2895.15 1930.9 2893.93 1929.67 2893.31 1927.94 2893.31 1925.7L2893.31 1911.08 2888.99 1911.08 2888.99 1908.32 2893.31 1908.32ZM2809.45 1900.31 2821.5 1900.31C2825.61 1900.31 2828.83 1901.29 2831.16 1903.26 2833.49 1905.22 2834.66 1907.92 2834.66 1911.35 2834.66 1914.79 2833.49 1917.48 2831.16 1919.42 2828.83 1921.37 2825.61 1922.35 2821.5 1922.35L2812.86 1922.35 2812.86 1932.51 2809.45 1932.51ZM3076.58 1898.38 3079.84 1898.38 3079.84 1932.51 3076.71 1932.51 3076.71 1927.73C3075.73 1929.35 3074.44 1930.59 3072.83 1931.45 3071.22 1932.31 3069.4 1932.74 3067.38 1932.74 3065.11 1932.74 3063.05 1932.22 3061.21 1931.18 3059.37 1930.13 3057.93 1928.68 3056.89 1926.81 3055.84 1924.94 3055.32 1922.81 3055.32 1920.41 3055.32 1918.02 3055.84 1915.89 3056.89 1914.02 3057.93 1912.15 3059.37 1910.7 3061.21 1909.67 3063.05 1908.64 3065.11 1908.13 3067.38 1908.13 3069.34 1908.13 3071.11 1908.54 3072.69 1909.35 3074.27 1910.16 3075.56 1911.35 3076.58 1912.92Z" stroke="#4472C4" stroke-width="3" stroke-linejoin="round" stroke-miterlimit="10" stroke-opacity="0" fill="#FFFFFF" fill-rule="evenodd"/><text fill="#000000" fill-opacity="0" font-family="Arial,Arial_MSFontService,sans-serif" font-size="34.3619" x="2809.45" y="1928.45">Posture and </text><path d="M2975.91 1965.98C2974.19 1965.98 2972.65 1966.37 2971.29 1967.16 2969.92 1967.94 2968.85 1969.05 2968.07 1970.49 2967.29 1971.93 2966.9 1973.57 2966.9 1975.41 2966.9 1977.25 2967.29 1978.89 2968.07 1980.34 2968.85 1981.78 2969.92 1982.89 2971.29 1983.67 2972.65 1984.45 2974.19 1984.84 2975.91 1984.84 2977.6 1984.84 2979.12 1984.45 2980.49 1983.67 2981.85 1982.89 2982.93 1981.78 2983.71 1980.34 2984.49 1978.89 2984.88 1977.25 2984.88 1975.41 2984.88 1973.57 2984.49 1971.93 2983.71 1970.49 2982.93 1969.05 2981.85 1967.94 2980.49 1967.16 2979.12 1966.37 2977.6 1965.98 2975.91 1965.98ZM3006.41 1965.94C3004.08 1965.94 3002.12 1966.68 3000.54 1968.17 2998.96 1969.66 2998.06 1971.6 2997.85 1973.99L3015.01 1973.99C3014.79 1971.6 3013.9 1969.66 3012.32 1968.17 3010.74 1966.68 3008.77 1965.94 3006.41 1965.94ZM2934.79 1963.32 2938.06 1963.32 2938.06 1977.02C2938.06 1979.57 2938.69 1981.5 2939.94 1982.82 2941.2 1984.14 2943 1984.8 2945.33 1984.8 2947.87 1984.8 2949.88 1984.02 2951.35 1982.47 2952.82 1980.93 2953.56 1978.77 2953.56 1976.01L2953.56 1963.32 2956.83 1963.32 2956.83 1987.51 2953.7 1987.51 2953.7 1983.1C2952.84 1984.57 2951.66 1985.71 2950.16 1986.52 2948.65 1987.33 2946.94 1987.74 2945 1987.74 2941.85 1987.74 2939.35 1986.86 2937.53 1985.1 2935.7 1983.33 2934.79 1980.75 2934.79 1977.35ZM3037.21 1963.13 3037.21 1966.31 3036.43 1966.26C3033.88 1966.26 3031.89 1967.04 3030.45 1968.61 3029.01 1970.17 3028.29 1972.36 3028.29 1975.18L3028.29 1987.51 3025.02 1987.51 3025.02 1963.32 3028.15 1963.32 3028.15 1968.05C3028.92 1966.43 3030.06 1965.2 3031.58 1964.37 3033.09 1963.55 3034.97 1963.13 3037.21 1963.13ZM3006.41 1963.13C3008.64 1963.13 3010.65 1963.65 3012.43 1964.7 3014.21 1965.74 3015.61 1967.19 3016.62 1969.04 3017.63 1970.9 3018.14 1973.02 3018.14 1975.41L3018.09 1976.43 2997.85 1976.43C2998.03 1978.94 2999 1980.97 3000.75 1982.52 3002.5 1984.07 3004.7 1984.84 3007.37 1984.84 3008.87 1984.84 3010.25 1984.57 3011.51 1984.04 3012.77 1983.5 3013.86 1982.71 3014.78 1981.67L3016.62 1983.79C3015.54 1985.07 3014.2 1986.05 3012.59 1986.73 3010.98 1987.4 3009.21 1987.74 3007.28 1987.74 3004.8 1987.74 3002.6 1987.21 3000.68 1986.15 2998.76 1985.1 2997.27 1983.63 2996.19 1981.76 2995.12 1979.89 2994.58 1977.77 2994.58 1975.41 2994.58 1973.05 2995.1 1970.94 2996.12 1969.07 2997.15 1967.19 2998.56 1965.74 3000.36 1964.7 3002.15 1963.65 3004.17 1963.13 3006.41 1963.13ZM2929.21 1963.13 2929.21 1966.31 2928.43 1966.26C2925.88 1966.26 2923.89 1967.04 2922.45 1968.61 2921.01 1970.17 2920.29 1972.36 2920.29 1975.18L2920.29 1987.51 2917.02 1987.51 2917.02 1963.32 2920.15 1963.32 2920.15 1968.05C2920.92 1966.43 2922.06 1965.2 2923.58 1964.37 2925.09 1963.55 2926.97 1963.13 2929.21 1963.13ZM2880.35 1963.13C2883.39 1963.13 2885.8 1964.01 2887.59 1965.78 2889.39 1967.54 2890.29 1970.11 2890.29 1973.48L2890.29 1987.51 2887.02 1987.51 2887.02 1973.8C2887.02 1971.29 2886.39 1969.37 2885.13 1968.05 2883.88 1966.73 2882.08 1966.08 2879.75 1966.08 2877.15 1966.08 2875.08 1966.85 2873.56 1968.4 2872.05 1969.95 2871.29 1972.09 2871.29 1974.82L2871.29 1987.51 2868.02 1987.51 2868.02 1963.32 2871.15 1963.32 2871.15 1967.78C2872.04 1966.31 2873.27 1965.16 2874.85 1964.35 2876.43 1963.54 2878.26 1963.13 2880.35 1963.13ZM2899.57 1958.03 2902.84 1958.03 2902.84 1963.32 2910.2 1963.32 2910.2 1966.08 2902.84 1966.08 2902.84 1980.52C2902.84 1981.96 2903.2 1983.06 2903.92 1983.81 2904.64 1984.56 2905.68 1984.94 2907.03 1984.94 2907.7 1984.94 2908.35 1984.83 2908.98 1984.61 2909.61 1984.4 2910.15 1984.09 2910.61 1983.69L2911.76 1986.04C2911.15 1986.59 2910.39 1987.01 2909.49 1987.3 2908.58 1987.6 2907.64 1987.74 2906.66 1987.74 2904.39 1987.74 2902.64 1987.13 2901.41 1985.9 2900.19 1984.67 2899.57 1982.94 2899.57 1980.7L2899.57 1966.08 2895.25 1966.08 2895.25 1963.32 2899.57 1963.32ZM2854.71 1955.31 2858.12 1955.31 2858.12 1987.51 2854.71 1987.51ZM2984.84 1953.38 2988.1 1953.38 2988.1 1987.51 2984.97 1987.51 2984.97 1982.73C2983.99 1984.35 2982.7 1985.59 2981.09 1986.45 2979.48 1987.31 2977.66 1987.74 2975.64 1987.74 2973.37 1987.74 2971.31 1987.22 2969.47 1986.18 2967.63 1985.13 2966.19 1983.68 2965.15 1981.81 2964.11 1979.94 2963.58 1977.81 2963.58 1975.41 2963.58 1973.02 2964.11 1970.89 2965.15 1969.02 2966.19 1967.15 2967.63 1965.7 2969.47 1964.67 2971.31 1963.64 2973.37 1963.13 2975.64 1963.13 2977.6 1963.13 2979.37 1963.54 2980.95 1964.35 2982.53 1965.16 2983.82 1966.35 2984.84 1967.92Z" stroke="#4472C4" stroke-width="3" stroke-linejoin="round" stroke-miterlimit="10" stroke-opacity="0" fill="#FFFFFF" fill-rule="evenodd"/><text fill="#000000" fill-opacity="0" font-family="Arial,Arial_MSFontService,sans-serif" font-size="34.3619" x="2854.71" y="1983.45">Intruder </text><path d="M3012.73 2020.98C3011.01 2020.98 3009.47 2021.37 3008.11 2022.16 3006.74 2022.94 3005.67 2024.05 3004.89 2025.49 3004.11 2026.93 3003.71 2028.57 3003.71 2030.41 3003.71 2032.25 3004.11 2033.89 3004.89 2035.34 3005.67 2036.78 3006.74 2037.89 3008.11 2038.67 3009.47 2039.45 3011.01 2039.84 3012.73 2039.84 3014.45 2039.84 3015.99 2039.45 3017.35 2038.67 3018.72 2037.89 3019.78 2036.78 3020.55 2035.34 3021.32 2033.89 3021.7 2032.25 3021.7 2030.41 3021.7 2028.57 3021.32 2026.93 3020.55 2025.49 3019.78 2024.05 3018.72 2022.94 3017.35 2022.16 3015.99 2021.37 3014.45 2020.98 3012.73 2020.98ZM2928.22 2020.94C2925.89 2020.94 2923.94 2021.68 2922.36 2023.17 2920.78 2024.66 2919.88 2026.6 2919.67 2028.99L2936.83 2028.99C2936.61 2026.6 2935.71 2024.66 2934.14 2023.17 2932.56 2021.68 2930.59 2020.94 2928.22 2020.94ZM2882.22 2020.94C2879.89 2020.94 2877.94 2021.68 2876.36 2023.17 2874.78 2024.66 2873.88 2026.6 2873.67 2028.99L2890.83 2028.99C2890.61 2026.6 2889.71 2024.66 2888.14 2023.17 2886.56 2021.68 2884.59 2020.94 2882.22 2020.94ZM2989.84 2018.32 2993.11 2018.32 2993.11 2042.51 2989.84 2042.51ZM3044.17 2018.13C3047.2 2018.13 3049.62 2019.01 3051.41 2020.78 3053.21 2022.54 3054.1 2025.11 3054.1 2028.48L3054.1 2042.51 3050.84 2042.51 3050.84 2028.8C3050.84 2026.29 3050.21 2024.37 3048.95 2023.05 3047.7 2021.73 3045.9 2021.08 3043.57 2021.08 3040.96 2021.08 3038.9 2021.85 3037.38 2023.4 3035.87 2024.95 3035.11 2027.09 3035.11 2029.82L3035.11 2042.51 3031.84 2042.51 3031.84 2018.32 3034.97 2018.32 3034.97 2022.78C3035.86 2021.31 3037.09 2020.16 3038.67 2019.35 3040.25 2018.54 3042.08 2018.13 3044.17 2018.13ZM3012.73 2018.13C3015.06 2018.13 3017.16 2018.65 3019.03 2019.7 3020.9 2020.74 3022.37 2022.19 3023.43 2024.07 3024.48 2025.94 3025.01 2028.05 3025.01 2030.41 3025.01 2032.77 3024.48 2034.89 3023.43 2036.76 3022.37 2038.63 3020.9 2040.1 3019.03 2041.15 3017.16 2042.21 3015.06 2042.74 3012.73 2042.74 3010.4 2042.74 3008.3 2042.21 3006.43 2041.15 3004.56 2040.1 3003.09 2038.63 3002.01 2036.76 3000.94 2034.89 3000.4 2032.77 3000.4 2030.41 3000.4 2028.05 3000.94 2025.94 3002.01 2024.07 3003.09 2022.19 3004.56 2020.74 3006.43 2019.7 3008.3 2018.65 3010.4 2018.13 3012.73 2018.13ZM2955.87 2018.13C2957.95 2018.13 2959.82 2018.54 2961.46 2019.35 2963.1 2020.16 2964.39 2021.35 2965.34 2022.92L2962.91 2024.57C2962.11 2023.38 2961.1 2022.48 2959.87 2021.88 2958.64 2021.28 2957.31 2020.98 2955.87 2020.98 2954.12 2020.98 2952.55 2021.37 2951.15 2022.16 2949.76 2022.94 2948.67 2024.05 2947.89 2025.49 2947.11 2026.93 2946.71 2028.57 2946.71 2030.41 2946.71 2032.28 2947.11 2033.93 2947.89 2035.36 2948.67 2036.78 2949.76 2037.89 2951.15 2038.67 2952.55 2039.45 2954.12 2039.84 2955.87 2039.84 2957.31 2039.84 2958.64 2039.55 2959.87 2038.97 2961.1 2038.39 2962.11 2037.5 2962.91 2036.3L2965.34 2037.96C2964.39 2039.52 2963.09 2040.71 2961.43 2041.52 2959.78 2042.33 2957.92 2042.74 2955.87 2042.74 2953.48 2042.74 2951.34 2042.22 2949.45 2041.18 2947.57 2040.13 2946.09 2038.67 2945.01 2036.78 2943.94 2034.9 2943.4 2032.77 2943.4 2030.41 2943.4 2028.05 2943.94 2025.94 2945.01 2024.07 2946.09 2022.19 2947.57 2020.74 2949.45 2019.7 2951.34 2018.65 2953.48 2018.13 2955.87 2018.13ZM2928.22 2018.13C2930.46 2018.13 2932.47 2018.65 2934.25 2019.7 2936.03 2020.74 2937.42 2022.19 2938.44 2024.04 2939.45 2025.9 2939.95 2028.02 2939.95 2030.41L2939.91 2031.43 2919.67 2031.43C2919.85 2033.94 2920.82 2035.97 2922.57 2037.52 2924.31 2039.07 2926.52 2039.84 2929.19 2039.84 2930.69 2039.84 2932.07 2039.57 2933.33 2039.04 2934.59 2038.5 2935.68 2037.71 2936.6 2036.67L2938.44 2038.79C2937.36 2040.07 2936.02 2041.05 2934.41 2041.73 2932.8 2042.4 2931.03 2042.74 2929.1 2042.74 2926.61 2042.74 2924.41 2042.21 2922.5 2041.15 2920.58 2040.1 2919.09 2038.63 2918.01 2036.76 2916.94 2034.89 2916.4 2032.77 2916.4 2030.41 2916.4 2028.05 2916.92 2025.94 2917.94 2024.07 2918.97 2022.19 2920.38 2020.74 2922.18 2019.7 2923.97 2018.65 2925.99 2018.13 2928.22 2018.13ZM2882.22 2018.13C2884.46 2018.13 2886.47 2018.65 2888.25 2019.7 2890.03 2020.74 2891.42 2022.19 2892.44 2024.04 2893.45 2025.9 2893.95 2028.02 2893.95 2030.41L2893.91 2031.43 2873.67 2031.43C2873.85 2033.94 2874.82 2035.97 2876.57 2037.52 2878.31 2039.07 2880.52 2039.84 2883.19 2039.84 2884.69 2039.84 2886.07 2039.57 2887.33 2039.04 2888.59 2038.5 2889.68 2037.71 2890.6 2036.67L2892.44 2038.79C2891.36 2040.07 2890.02 2041.05 2888.41 2041.73 2886.8 2042.4 2885.03 2042.74 2883.1 2042.74 2880.61 2042.74 2878.41 2042.21 2876.5 2041.15 2874.58 2040.1 2873.09 2038.63 2872.01 2036.76 2870.94 2034.89 2870.4 2032.77 2870.4 2030.41 2870.4 2028.05 2870.92 2025.94 2871.94 2024.07 2872.97 2022.19 2874.38 2020.74 2876.18 2019.7 2877.97 2018.65 2879.99 2018.13 2882.22 2018.13ZM2838.93 2013.26 2838.93 2039.57 2848.46 2039.57C2851.28 2039.57 2853.75 2039.01 2855.86 2037.89 2857.98 2036.77 2859.62 2035.22 2860.78 2033.24 2861.95 2031.26 2862.53 2028.99 2862.53 2026.41 2862.53 2023.84 2861.95 2021.56 2860.78 2019.58 2859.62 2017.6 2857.98 2016.05 2855.86 2014.93 2853.75 2013.81 2851.28 2013.26 2848.46 2013.26ZM2972.39 2013.03 2975.66 2013.03 2975.66 2018.32 2983.02 2018.32 2983.02 2021.08 2975.66 2021.08 2975.66 2035.52C2975.66 2036.96 2976.02 2038.06 2976.74 2038.81 2977.46 2039.56 2978.5 2039.94 2979.84 2039.94 2980.52 2039.94 2981.17 2039.83 2981.8 2039.61 2982.43 2039.4 2982.97 2039.09 2983.43 2038.69L2984.58 2041.04C2983.97 2041.59 2983.21 2042.01 2982.31 2042.3 2981.4 2042.6 2980.46 2042.74 2979.48 2042.74 2977.21 2042.74 2975.46 2042.13 2974.23 2040.9 2973.01 2039.67 2972.39 2037.94 2972.39 2035.7L2972.39 2021.08 2968.07 2021.08 2968.07 2018.32 2972.39 2018.32ZM2900.39 2013.03 2903.66 2013.03 2903.66 2018.32 2911.02 2018.32 2911.02 2021.08 2903.66 2021.08 2903.66 2035.52C2903.66 2036.96 2904.02 2038.06 2904.74 2038.81 2905.46 2039.56 2906.5 2039.94 2907.84 2039.94 2908.52 2039.94 2909.17 2039.83 2909.8 2039.61 2910.43 2039.4 2910.97 2039.09 2911.43 2038.69L2912.58 2041.04C2911.97 2041.59 2911.21 2042.01 2910.31 2042.3 2909.4 2042.6 2908.46 2042.74 2907.48 2042.74 2905.21 2042.74 2903.46 2042.13 2902.23 2040.9 2901.01 2039.67 2900.39 2037.94 2900.39 2035.7L2900.39 2021.08 2896.07 2021.08 2896.07 2018.32 2900.39 2018.32ZM2835.53 2010.31 2848.64 2010.31C2852.04 2010.31 2855.05 2010.99 2857.66 2012.36 2860.26 2013.72 2862.29 2015.62 2863.73 2018.06 2865.17 2020.5 2865.89 2023.28 2865.89 2026.41 2865.89 2029.54 2865.17 2032.32 2863.73 2034.76 2862.29 2037.2 2860.26 2039.1 2857.66 2040.46 2855.05 2041.83 2852.04 2042.51 2848.64 2042.51L2835.53 2042.51ZM2991.5 2008.38C2992.17 2008.38 2992.74 2008.6 2993.2 2009.05 2993.66 2009.49 2993.89 2010.02 2993.89 2010.63 2993.89 2011.31 2993.66 2011.88 2993.2 2012.34 2992.74 2012.8 2992.17 2013.03 2991.5 2013.03 2990.82 2013.03 2990.25 2012.8 2989.79 2012.34 2989.33 2011.88 2989.1 2011.32 2989.1 2010.68 2989.1 2010.07 2989.33 2009.53 2989.79 2009.07 2990.25 2008.61 2990.82 2008.38 2991.5 2008.38Z" stroke="#4472C4" stroke-width="3" stroke-linejoin="round" stroke-miterlimit="10" stroke-opacity="0" fill="#FFFFFF" fill-rule="evenodd"/><text fill="#000000" fill-opacity="0" font-family="Arial,Arial_MSFontService,sans-serif" font-size="34.3619" x="2835.53" y="2038.45">Detection</text></g></svg>