<svg id="svg" version="1.1" xmlns="http://www.w3.org/2000/svg" xmlns:xlink="http://www.w3.org/1999/xlink" width="400" height="380.0904977375566" viewBox="0, 0, 400,380.0904977375566"><g id="svgg"><path id="path0" d="M164.396 81.530 C 154.328 83.431,150.161 88.014,143.971 103.992 C 143.241 105.875,142.041 108.973,141.302 110.877 C 140.564 112.782,138.653 117.658,137.056 121.714 C 135.458 125.769,133.221 131.483,132.084 134.411 C 130.947 137.338,129.687 140.504,129.283 141.445 C 128.880 142.386,127.758 145.209,126.790 147.719 C 125.822 150.228,124.104 154.634,122.971 157.510 C 121.839 160.385,119.986 165.090,118.854 167.966 C 117.721 170.841,116.003 175.247,115.035 177.757 C 114.068 180.266,112.948 183.089,112.547 184.030 C 112.146 184.971,110.712 188.565,109.361 192.015 C 103.606 206.712,101.790 211.346,100.940 213.498 C 95.562 227.121,95.553 231.910,100.898 237.562 C 104.136 240.987,107.281 242.351,111.977 242.365 C 121.292 242.394,122.711 240.324,133.658 210.739 L 136.648 202.657 168.594 202.755 L 200.540 202.852 203.152 209.696 C 204.588 213.460,206.156 217.652,206.636 219.011 C 207.117 220.371,207.784 222.082,208.118 222.814 C 208.453 223.546,209.513 226.027,210.474 228.327 C 215.017 239.201,218.517 242.355,226.046 242.364 C 230.873 242.369,233.661 241.186,236.952 237.736 C 242.747 231.661,242.678 226.641,236.593 211.597 C 235.662 209.297,233.271 203.394,231.280 198.479 C 229.289 193.565,227.189 188.346,226.614 186.882 C 226.039 185.418,224.454 181.483,223.090 178.137 C 221.727 174.791,218.987 168.032,217.002 163.118 C 215.016 158.203,211.592 149.734,209.394 144.297 C 207.195 138.859,204.608 132.443,203.643 130.038 C 202.679 127.633,201.729 125.323,201.532 124.905 C 201.336 124.487,200.675 122.861,200.063 121.293 C 188.414 91.404,186.830 88.470,180.005 84.122 C 176.327 81.779,169.276 80.608,164.396 81.530 M273.194 83.018 C 258.504 87.914,259.493 107.853,274.548 110.304 C 281.018 111.357,287.273 108.518,290.040 103.273 C 291.509 100.488,291.577 92.867,290.158 89.984 C 287.433 84.447,279.133 81.039,273.194 83.018 M170.990 121.483 C 171.918 123.992,173.509 128.356,174.526 131.179 C 175.543 134.002,177.258 138.707,178.338 141.635 C 179.418 144.563,180.442 147.386,180.614 147.909 C 180.785 148.432,181.722 150.998,182.695 153.612 C 183.668 156.226,185.296 160.675,186.312 163.498 C 187.328 166.321,188.950 170.770,189.917 173.384 C 190.884 175.998,191.709 178.308,191.750 178.517 C 191.799 178.766,183.806 178.931,168.536 178.995 C 149.180 179.077,145.247 179.007,145.247 178.580 C 145.247 178.067,145.558 177.143,148.022 170.342 C 148.742 168.356,150.883 162.367,152.781 157.034 C 154.678 151.702,156.852 145.627,157.611 143.536 C 158.370 141.445,159.840 137.338,160.877 134.411 C 161.914 131.483,163.178 127.975,163.686 126.616 C 164.193 125.257,165.307 122.177,166.160 119.772 C 167.014 117.367,167.811 115.143,167.932 114.829 C 168.195 114.147,168.613 115.054,170.990 121.483 M271.863 125.365 C 268.078 126.672,264.890 130.255,263.537 134.723 C 262.666 137.599,262.416 224.989,263.265 229.908 C 266.008 245.800,286.719 247.156,290.678 231.702 C 291.200 229.662,291.257 223.894,291.167 182.282 L 291.065 135.171 290.025 132.952 C 286.813 126.095,279.092 122.870,271.863 125.365 M92.478 268.458 C 87.313 269.386,84.419 272.618,84.413 277.464 C 84.406 282.592,87.666 284.933,96.198 285.925 C 102.314 286.636,103.802 287.484,103.802 290.258 C 103.802 294.767,94.296 295.557,85.057 291.816 C 84.433 291.564,84.382 291.756,84.486 293.953 C 84.669 297.802,88.852 299.501,97.264 299.142 C 106.238 298.760,109.857 296.030,109.878 289.627 C 109.897 283.515,106.818 281.229,97.036 280.093 C 91.440 279.442,90.494 278.968,90.494 276.812 C 90.494 273.373,97.193 272.296,105.941 274.330 C 108.673 274.965,108.745 274.920,108.745 272.588 C 108.745 270.712,108.731 270.689,107.063 269.974 C 103.331 268.374,96.750 267.690,92.478 268.458 M158.126 268.425 C 149.717 269.953,147.831 273.829,147.997 289.244 L 148.099 298.669 151.141 298.669 L 154.183 298.669 154.382 288.213 C 154.649 274.188,155.103 273.380,162.735 273.386 C 169.114 273.391,171.119 275.494,170.315 281.336 C 169.894 284.397,169.007 284.791,162.526 284.791 L 157.034 284.791 157.034 286.852 L 157.034 288.913 159.601 289.215 C 171.429 290.606,176.797 287.614,176.804 279.623 C 176.812 270.943,169.244 266.406,158.126 268.425 M189.006 268.311 C 183.426 269.525,182.319 272.724,182.319 287.643 L 182.319 298.669 185.361 298.669 L 188.403 298.669 188.593 287.262 C 188.832 272.944,188.415 273.764,195.455 273.764 L 199.620 273.764 199.620 271.315 C 199.620 269.968,199.464 268.770,199.274 268.652 C 198.792 268.355,190.129 268.066,189.006 268.311 M211.890 268.440 C 204.537 269.989,201.415 275.413,202.023 285.579 C 202.574 294.771,206.534 298.617,215.970 299.123 C 220.038 299.342,226.069 298.329,228.244 297.062 C 229.384 296.398,230.435 292.015,229.455 292.015 C 229.323 292.015,227.828 292.369,226.134 292.802 C 221.435 294.001,213.965 293.956,211.713 292.713 C 209.099 291.271,208.331 288.954,208.457 282.890 C 208.619 275.051,209.765 273.667,216.275 273.447 C 222.923 273.222,224.525 274.145,224.525 278.198 C 224.525 281.534,224.062 281.749,216.878 281.749 L 211.027 281.749 211.027 283.806 L 211.027 285.863 214.309 286.137 C 226.478 287.150,231.906 284.206,231.015 277.076 C 230.145 270.109,221.818 266.349,211.890 268.440 M288.567 268.422 C 287.612 268.596,285.944 269.188,284.860 269.737 L 282.890 270.735 282.890 272.868 L 282.890 275.000 284.125 274.746 C 300.042 271.471,304.203 273.382,304.173 283.954 C 304.154 290.886,302.561 293.324,297.909 293.544 C 290.064 293.915,288.206 293.155,288.133 289.544 C 288.051 285.512,288.147 285.457,295.817 285.188 L 301.711 284.981 301.711 283.460 L 301.711 281.939 298.859 281.310 C 286.594 278.605,278.788 284.036,282.381 292.776 C 285.119 299.436,299.562 301.613,305.868 296.316 C 311.243 291.800,312.316 278.681,307.811 272.563 C 305.037 268.796,296.544 266.969,288.567 268.422 M243.178 268.988 C 237.468 271.101,235.983 277.433,237.132 294.772 L 237.377 298.479 239.981 298.479 L 242.586 298.479 242.588 288.308 C 242.591 274.255,242.864 273.577,248.424 273.829 C 253.506 274.058,253.612 274.358,253.612 288.451 L 253.612 298.479 256.442 298.479 L 259.273 298.479 259.389 287.480 C 259.531 274.084,260.133 272.752,265.683 273.572 C 269.874 274.191,270.337 275.675,270.340 288.498 L 270.342 298.479 273.236 298.479 L 276.129 298.479 275.979 287.357 L 275.829 276.236 274.629 273.758 C 272.092 268.515,264.647 266.598,258.586 269.626 L 256.215 270.811 254.248 269.733 C 251.840 268.413,245.824 268.008,243.178 268.988 M115.209 279.151 C 115.209 296.865,116.492 298.930,127.651 299.178 C 140.406 299.463,141.348 297.973,141.147 277.852 L 141.065 269.582 138.213 269.582 L 135.361 269.582 135.361 279.823 C 135.361 290.821,135.237 291.666,133.495 292.567 C 131.454 293.623,123.896 293.396,122.550 292.239 L 121.483 291.322 121.371 280.452 L 121.259 269.582 118.234 269.582 L 115.209 269.582 115.209 279.151 " stroke="none" fill="#faf9fa" fill-rule="evenodd"></path><path id="path1" d="M0.000 190.114 L 0.000 380.228 200.000 380.228 L 400.000 380.228 400.000 190.114 L 400.000 0.000 200.000 0.000 L 0.000 0.000 0.000 190.114 M174.221 81.411 C 182.642 83.176,187.639 88.935,193.319 103.422 C 194.508 106.454,195.638 109.278,195.829 109.696 C 196.020 110.114,196.528 111.397,196.958 112.548 C 197.388 113.698,197.903 114.981,198.103 115.399 C 198.303 115.817,199.563 118.897,200.904 122.243 C 202.245 125.589,204.838 132.006,206.665 136.502 C 208.493 140.998,210.460 145.875,211.037 147.338 C 212.216 150.331,218.001 164.644,221.872 174.144 C 223.278 177.595,224.899 181.616,225.475 183.080 C 226.051 184.544,227.677 188.565,229.087 192.015 C 230.498 195.466,232.123 199.487,232.698 200.951 C 233.273 202.414,235.024 206.778,236.589 210.646 C 243.192 226.962,243.287 231.729,237.137 238.129 C 232.725 242.721,225.465 244.087,219.499 241.447 C 216.192 239.985,212.838 235.431,210.277 228.928 C 209.831 227.795,209.128 226.125,208.714 225.217 C 208.301 224.310,207.191 221.473,206.247 218.913 C 205.304 216.353,204.372 213.916,204.176 213.498 C 203.980 213.080,203.408 211.625,202.906 210.266 C 202.403 208.907,201.586 206.725,201.091 205.419 L 200.190 203.043 168.597 203.042 L 137.003 203.042 136.001 205.608 C 135.450 207.020,134.392 209.800,133.650 211.787 C 132.908 213.774,131.882 216.511,131.369 217.871 C 130.856 219.230,129.828 221.968,129.083 223.954 C 123.360 239.227,120.365 242.582,112.357 242.694 C 107.045 242.768,103.150 240.972,99.739 236.875 C 95.087 231.288,95.518 225.016,101.516 211.027 C 101.919 210.086,103.032 207.262,103.988 204.753 C 104.945 202.243,106.059 199.420,106.464 198.479 C 106.869 197.538,107.992 194.715,108.960 192.205 C 110.643 187.840,112.228 183.791,116.848 172.053 C 118.001 169.125,120.248 163.394,121.843 159.316 C 123.437 155.238,125.071 151.131,125.473 150.190 C 125.875 149.249,126.993 146.426,127.959 143.916 C 128.924 141.407,130.459 137.471,131.369 135.171 C 132.279 132.871,133.812 128.935,134.775 126.426 C 135.738 123.916,136.857 121.093,137.262 120.152 C 137.667 119.211,138.784 116.388,139.743 113.878 C 140.703 111.369,141.888 108.375,142.377 107.224 C 142.867 106.074,143.393 104.705,143.546 104.183 C 148.688 86.607,159.768 78.382,174.221 81.411 M283.735 83.558 C 290.958 86.880,294.030 95.463,290.604 102.750 C 285.500 113.603,269.062 113.820,263.787 103.104 C 257.713 90.765,271.031 77.715,283.735 83.558 M167.735 116.459 C 167.470 117.131,166.163 120.760,164.830 124.525 C 163.498 128.289,161.820 132.994,161.101 134.981 C 160.382 136.968,158.812 141.331,157.613 144.677 C 156.414 148.023,154.878 152.300,154.200 154.183 C 153.522 156.065,151.412 162.002,149.510 167.378 C 147.609 172.753,145.866 177.501,145.637 177.929 L 145.220 178.707 168.238 178.707 C 184.458 178.707,191.255 178.586,191.255 178.297 C 191.255 178.071,190.834 176.831,190.321 175.540 C 189.807 174.250,188.536 170.798,187.496 167.871 C 186.456 164.943,184.811 160.409,183.840 157.795 C 182.869 155.181,181.230 150.646,180.196 147.719 C 179.162 144.791,178.152 142.053,177.951 141.635 C 177.581 140.869,175.274 134.569,174.329 131.749 C 174.048 130.913,173.112 128.346,172.247 126.046 C 171.383 123.745,170.175 120.425,169.562 118.667 C 168.224 114.825,168.329 114.952,167.735 116.459 M283.127 125.459 C 287.628 127.532,290.791 131.847,291.640 137.072 C 292.117 140.005,292.129 225.532,291.654 228.820 C 289.027 246.985,265.655 247.849,262.740 229.890 C 262.239 226.800,262.228 139.793,262.728 136.735 C 264.372 126.700,274.120 121.311,283.127 125.459 M104.007 268.603 C 108.398 269.625,109.125 270.250,109.125 272.998 C 109.125 274.256,108.997 275.285,108.840 275.285 C 108.683 275.285,107.186 275.010,105.513 274.674 C 101.049 273.778,93.242 273.752,91.904 274.629 C 89.572 276.156,90.607 278.765,93.726 279.222 C 107.929 281.307,110.517 282.937,110.412 289.734 C 110.309 296.486,106.063 299.371,96.198 299.391 C 87.223 299.410,84.030 297.919,84.030 293.707 C 84.030 291.090,84.186 290.927,85.855 291.779 C 91.237 294.525,102.635 294.113,103.191 291.152 C 103.772 288.053,102.829 287.337,97.113 286.540 C 86.771 285.098,83.671 282.684,84.119 276.425 C 84.633 269.242,92.854 266.009,104.007 268.603 M169.865 268.632 C 179.397 271.900,179.905 286.816,170.567 289.238 C 168.559 289.759,162.045 289.895,158.650 289.487 L 156.654 289.248 156.654 286.829 L 156.654 284.411 162.315 284.411 C 169.718 284.411,169.772 284.375,169.772 279.541 C 169.772 274.580,168.177 273.461,161.655 273.840 C 155.103 274.222,154.616 275.247,154.429 289.068 L 154.292 299.240 150.910 299.240 L 147.529 299.240 147.531 290.019 C 147.536 275.584,148.569 272.155,153.699 269.537 C 157.395 267.652,165.657 267.189,169.865 268.632 M197.212 268.100 L 199.620 268.519 199.620 271.292 L 199.620 274.064 195.071 274.199 C 188.649 274.390,189.204 273.192,188.973 287.370 L 188.783 299.049 186.130 299.164 C 184.670 299.227,183.076 299.178,182.588 299.055 L 181.700 298.832 181.819 287.144 L 181.939 275.456 183.178 272.941 C 185.436 268.357,189.882 266.823,197.212 268.100 M224.666 268.603 C 231.592 270.825,233.827 281.169,228.158 284.765 C 225.268 286.598,217.875 287.353,212.357 286.380 L 210.837 286.112 210.723 283.740 L 210.610 281.369 216.307 281.369 C 224.111 281.369,224.765 281.003,224.163 276.984 C 223.518 272.687,211.918 272.290,209.628 276.488 C 208.560 278.445,208.609 288.229,209.696 290.074 C 211.516 293.164,217.216 294.079,225.287 292.578 C 230.263 291.653,230.208 291.649,230.354 292.931 C 230.874 297.485,227.312 299.219,217.414 299.233 C 206.071 299.248,202.280 295.825,201.634 284.981 C 201.195 277.625,203.382 271.832,207.414 269.664 C 211.118 267.673,220.053 267.124,224.666 268.603 M301.253 268.280 C 308.393 270.130,310.775 273.962,310.807 283.650 C 310.843 294.578,306.934 298.906,296.774 299.185 C 287.287 299.445,282.505 296.863,281.366 290.863 C 279.774 282.479,286.731 278.708,299.525 281.021 L 301.901 281.450 301.901 283.501 L 301.901 285.551 295.990 285.551 C 289.184 285.551,288.213 285.955,288.213 288.785 C 288.213 292.303,289.609 293.156,295.367 293.155 C 302.010 293.154,303.311 291.951,303.686 285.458 C 304.311 274.639,301.407 272.554,288.403 274.489 C 285.475 274.925,282.866 275.282,282.605 275.283 C 281.774 275.287,282.008 271.740,282.915 270.587 C 283.618 269.693,286.182 268.667,289.544 267.935 C 291.556 267.496,299.085 267.718,301.253 268.280 M251.365 268.448 C 252.487 268.660,254.045 269.168,254.827 269.576 L 256.250 270.318 258.237 269.287 C 262.722 266.960,270.928 268.039,273.607 271.308 C 275.880 274.082,276.046 275.194,276.046 287.703 L 276.046 298.859 273.042 298.859 L 270.039 298.859 269.905 287.911 C 269.742 274.492,269.601 274.125,264.598 274.086 C 259.998 274.050,259.699 274.906,259.697 288.118 L 259.696 298.859 256.490 298.859 L 253.283 298.859 253.151 287.738 C 252.992 274.320,252.924 274.144,247.964 274.144 C 243.161 274.144,242.966 274.693,242.966 288.175 L 242.966 298.859 239.704 298.859 L 236.443 298.859 236.568 287.357 C 236.707 274.438,236.853 273.682,239.792 270.666 C 241.940 268.462,246.664 267.556,251.365 268.448 M121.361 279.563 C 121.521 293.151,121.327 292.776,128.189 292.776 C 135.261 292.776,134.981 293.326,134.981 279.411 L 134.981 269.202 138.433 269.202 L 141.885 269.202 141.760 280.513 L 141.635 291.825 140.572 294.096 C 138.361 298.818,137.409 299.220,128.410 299.231 C 116.032 299.246,115.084 297.934,114.899 280.513 L 114.778 269.202 118.008 269.202 L 121.238 269.202 121.361 279.563 " stroke="none" fill="#5c1c54" fill-rule="evenodd"></path><path id="path2" d="M275.961 82.408 C 276.855 82.488,278.224 82.487,279.002 82.406 C 279.781 82.324,279.049 82.258,277.376 82.260 C 275.703 82.261,275.066 82.328,275.961 82.408 M266.332 86.787 L 264.829 88.403 266.445 86.900 C 267.948 85.502,268.236 85.171,267.948 85.171 C 267.886 85.171,267.159 85.898,266.332 86.787 M287.072 85.670 C 287.072 85.736,287.628 86.292,288.308 86.906 L 289.544 88.023 288.427 86.787 C 287.386 85.635,287.072 85.377,287.072 85.670 M291.749 96.578 C 291.749 97.728,291.820 98.199,291.907 97.624 C 291.994 97.048,291.994 96.107,291.907 95.532 C 291.820 94.957,291.749 95.428,291.749 96.578 M266.160 106.654 C 266.869 107.386,267.535 107.985,267.640 107.985 C 267.744 107.985,267.249 107.386,266.540 106.654 C 265.831 105.922,265.165 105.323,265.060 105.323 C 264.955 105.323,265.450 105.922,266.160 106.654 M276.335 124.223 C 276.808 124.314,277.493 124.311,277.856 124.216 C 278.220 124.120,277.833 124.046,276.996 124.050 C 276.160 124.054,275.862 124.132,276.335 124.223 M266.706 128.232 L 265.589 129.468 266.825 128.351 C 267.505 127.737,268.061 127.181,268.061 127.115 C 268.061 126.821,267.747 127.080,266.706 128.232 M287.072 128.327 C 287.782 129.059,288.448 129.658,288.552 129.658 C 288.657 129.658,288.162 129.059,287.452 128.327 C 286.743 127.595,286.077 126.996,285.972 126.996 C 285.868 126.996,286.363 127.595,287.072 128.327 M262.453 139.354 C 262.458 140.190,262.535 140.488,262.626 140.015 C 262.717 139.542,262.714 138.857,262.619 138.494 C 262.523 138.130,262.449 138.517,262.453 139.354 M291.819 182.890 C 291.819 207.462,291.864 217.514,291.920 205.228 C 291.976 192.942,291.976 172.837,291.920 160.551 C 291.864 148.265,291.819 158.317,291.819 182.890 M136.755 202.915 C 136.616 203.054,136.505 203.354,136.508 203.580 C 136.511 203.826,136.635 203.802,136.814 203.519 C 137.049 203.150,144.041 203.025,168.842 202.947 L 200.570 202.847 168.790 202.754 C 151.310 202.703,136.895 202.776,136.755 202.915 M241.559 228.137 C 241.559 229.287,241.630 229.758,241.717 229.183 C 241.804 228.607,241.804 227.666,241.717 227.091 C 241.630 226.516,241.559 226.987,241.559 228.137 M262.446 227.376 C 262.446 228.108,262.524 228.408,262.620 228.042 C 262.715 227.676,262.715 227.077,262.620 226.711 C 262.524 226.345,262.446 226.644,262.446 227.376 M214.829 237.762 C 214.829 237.827,215.385 238.383,216.065 238.997 L 217.300 240.114 216.184 238.878 C 215.143 237.726,214.829 237.468,214.829 237.762 M111.122 242.848 C 111.488 242.943,112.087 242.943,112.452 242.848 C 112.818 242.752,112.519 242.674,111.787 242.674 C 111.055 242.674,110.756 242.752,111.122 242.848 M276.141 242.848 C 276.507 242.943,277.106 242.943,277.471 242.848 C 277.837 242.752,277.538 242.674,276.806 242.674 C 276.074 242.674,275.775 242.752,276.141 242.848 M95.913 267.958 C 96.697 268.040,97.980 268.040,98.764 267.958 C 99.548 267.876,98.907 267.808,97.338 267.808 C 95.770 267.808,95.128 267.876,95.913 267.958 M161.515 267.961 C 162.620 268.038,164.331 268.038,165.317 267.960 C 166.303 267.882,165.399 267.818,163.308 267.819 C 161.217 267.820,160.410 267.884,161.515 267.961 M191.160 267.959 C 192.048 268.039,193.503 268.039,194.392 267.959 C 195.280 267.879,194.553 267.813,192.776 267.813 C 190.998 267.813,190.271 267.879,191.160 267.959 M214.360 267.956 C 215.044 268.041,216.070 268.039,216.642 267.952 C 217.213 267.866,216.654 267.796,215.399 267.798 C 214.144 267.801,213.677 267.872,214.360 267.956 M219.112 267.953 C 219.690 268.041,220.545 268.039,221.013 267.948 C 221.480 267.858,221.008 267.787,219.962 267.789 C 218.916 267.792,218.534 267.866,219.112 267.953 M290.784 267.950 C 291.257 268.040,291.941 268.037,292.305 267.942 C 292.668 267.847,292.281 267.772,291.445 267.776 C 290.608 267.781,290.311 267.859,290.784 267.950 M297.628 267.950 C 298.101 268.040,298.785 268.037,299.149 267.942 C 299.512 267.847,299.125 267.772,298.289 267.776 C 297.452 267.781,297.155 267.859,297.628 267.950 M247.060 268.336 C 247.743 268.421,248.770 268.419,249.341 268.333 C 249.913 268.246,249.354 268.177,248.099 268.179 C 246.844 268.181,246.377 268.252,247.060 268.336 M263.413 268.340 C 264.307 268.420,265.676 268.419,266.455 268.337 C 267.234 268.256,266.502 268.190,264.829 268.191 C 263.156 268.193,262.519 268.259,263.413 268.340 M135.147 279.087 C 135.147 284.629,135.200 286.896,135.265 284.125 C 135.330 281.355,135.330 276.820,135.265 274.049 C 135.200 271.279,135.147 273.546,135.147 279.087 M141.612 279.658 C 141.612 285.513,141.665 287.856,141.729 284.863 C 141.794 281.870,141.793 277.079,141.729 274.217 C 141.664 271.354,141.612 273.802,141.612 279.658 M108.249 270.355 C 108.498 270.676,108.765 271.960,108.842 273.207 L 108.982 275.475 109.054 273.145 C 109.110 271.320,108.981 270.702,108.460 270.294 C 107.877 269.837,107.851 269.844,108.249 270.355 M173.764 271.293 C 174.474 272.025,175.140 272.624,175.244 272.624 C 175.349 272.624,174.854 272.025,174.144 271.293 C 173.435 270.561,172.769 269.962,172.665 269.962 C 172.560 269.962,173.055 270.561,173.764 271.293 M227.376 270.081 C 227.376 270.146,227.933 270.702,228.612 271.317 L 229.848 272.433 228.731 271.198 C 227.690 270.046,227.376 269.787,227.376 270.081 M282.243 273.384 C 282.243 274.534,282.314 275.005,282.402 274.430 C 282.489 273.855,282.489 272.913,282.402 272.338 C 282.314 271.763,282.243 272.234,282.243 273.384 M162.072 273.646 C 162.438 273.742,163.037 273.742,163.403 273.646 C 163.769 273.550,163.470 273.472,162.738 273.472 C 162.006 273.472,161.706 273.550,162.072 273.646 M215.885 273.663 C 216.779 273.743,218.148 273.742,218.926 273.660 C 219.705 273.579,218.973 273.513,217.300 273.514 C 215.627 273.516,214.990 273.583,215.885 273.663 M294.966 273.653 C 295.439 273.744,296.124 273.740,296.487 273.645 C 296.851 273.550,296.464 273.476,295.627 273.480 C 294.791 273.484,294.493 273.562,294.966 273.653 M93.251 274.026 C 93.617 274.122,94.216 274.122,94.582 274.026 C 94.948 273.931,94.648 273.852,93.916 273.852 C 93.184 273.852,92.885 273.931,93.251 274.026 M100.285 274.033 C 100.756 274.123,101.526 274.123,101.996 274.033 C 102.467 273.942,102.082 273.868,101.141 273.868 C 100.200 273.868,99.815 273.942,100.285 274.033 M194.783 274.044 C 195.783 274.123,197.323 274.122,198.205 274.042 C 199.088 273.962,198.270 273.898,196.388 273.899 C 194.506 273.900,193.784 273.966,194.783 274.044 M211.575 274.356 C 210.848 274.937,210.849 274.941,211.597 274.597 C 212.015 274.405,212.614 274.152,212.928 274.036 C 213.420 273.853,213.417 273.820,212.905 273.794 C 212.579 273.778,211.981 274.030,211.575 274.356 M246.863 274.037 C 247.438 274.124,248.379 274.124,248.954 274.037 C 249.529 273.949,249.059 273.878,247.909 273.878 C 246.759 273.878,246.288 273.949,246.863 274.037 M264.670 273.901 C 264.758 273.976,265.513 274.142,266.350 274.270 C 267.386 274.429,267.689 274.387,267.300 274.140 C 266.781 273.808,264.301 273.583,264.670 273.901 M290.404 274.033 C 290.877 274.124,291.561 274.121,291.925 274.026 C 292.288 273.930,291.901 273.856,291.065 273.860 C 290.228 273.864,289.931 273.942,290.404 274.033 M298.131 273.901 C 298.218 273.976,298.802 274.152,299.430 274.293 C 300.263 274.479,300.417 274.444,300.000 274.162 C 299.487 273.814,297.749 273.572,298.131 273.901 M260.484 275.527 C 260.050 276.078,259.701 276.719,259.707 276.952 C 259.714 277.186,259.909 277.034,260.141 276.616 C 260.373 276.198,260.822 275.556,261.139 275.190 C 261.456 274.824,261.615 274.525,261.493 274.525 C 261.372 274.525,260.917 274.976,260.484 275.527 M181.917 287.833 C 181.917 294.002,181.969 296.526,182.033 293.441 C 182.097 290.356,182.097 285.309,182.033 282.224 C 181.969 279.140,181.917 281.663,181.917 287.833 M188.682 287.722 L 188.593 298.829 185.456 298.957 L 182.319 299.085 185.468 299.162 C 189.362 299.258,189.007 300.475,188.878 287.448 L 188.771 276.616 188.682 287.722 M170.076 279.468 C 170.076 280.618,170.147 281.088,170.234 280.513 C 170.321 279.938,170.321 278.997,170.234 278.422 C 170.147 277.847,170.076 278.317,170.076 279.468 M236.669 288.213 C 236.669 294.173,236.722 296.611,236.786 293.631 C 236.850 290.651,236.850 285.775,236.786 282.795 C 236.722 279.815,236.669 282.253,236.669 288.213 M259.482 288.783 C 259.482 294.430,259.535 296.793,259.600 294.034 C 259.664 291.276,259.665 286.656,259.600 283.768 C 259.535 280.880,259.482 283.137,259.482 288.783 M95.152 279.730 C 95.518 279.825,96.117 279.825,96.483 279.730 C 96.849 279.634,96.549 279.556,95.817 279.556 C 95.086 279.556,94.786 279.634,95.152 279.730 M201.658 283.650 C 201.658 285.637,201.722 286.450,201.800 285.456 C 201.879 284.463,201.879 282.837,201.800 281.844 C 201.722 280.851,201.658 281.663,201.658 283.650 M310.764 282.319 C 310.766 283.574,310.837 284.042,310.922 283.358 C 311.007 282.675,311.005 281.648,310.918 281.077 C 310.831 280.505,310.762 281.065,310.764 282.319 M303.920 283.840 C 303.922 285.095,303.993 285.563,304.078 284.879 C 304.162 284.196,304.161 283.169,304.074 282.598 C 303.987 282.026,303.918 282.586,303.920 283.840 M208.461 283.840 C 208.465 284.677,208.543 284.974,208.634 284.501 C 208.725 284.028,208.721 283.344,208.626 282.980 C 208.531 282.617,208.457 283.004,208.461 283.840 M282.816 283.555 C 282.146 284.335,281.644 285.171,281.845 285.171 C 281.923 285.171,282.366 284.658,282.830 284.030 C 283.746 282.791,283.738 282.483,282.816 283.555 M210.783 284.762 C 210.816 285.563,211.056 286.122,211.407 286.216 C 211.792 286.320,211.834 286.267,211.536 286.054 C 211.294 285.881,211.013 285.226,210.912 284.600 C 210.745 283.556,210.734 283.569,210.783 284.762 M159.428 284.694 C 161.058 284.765,163.625 284.765,165.131 284.693 C 166.638 284.621,165.304 284.562,162.167 284.563 C 159.030 284.563,157.798 284.622,159.428 284.694 M310.735 286.312 C 310.735 287.044,310.813 287.343,310.908 286.977 C 311.004 286.611,311.004 286.012,310.908 285.646 C 310.813 285.280,310.735 285.580,310.735 286.312 M213.783 286.574 C 214.149 286.670,214.748 286.670,215.114 286.574 C 215.480 286.478,215.181 286.400,214.449 286.400 C 213.717 286.400,213.417 286.478,213.783 286.574 M281.077 288.593 C 281.077 289.325,281.155 289.625,281.251 289.259 C 281.346 288.893,281.346 288.294,281.251 287.928 C 281.155 287.562,281.077 287.861,281.077 288.593 M229.353 291.871 C 229.792 292.002,230.045 292.573,230.144 293.655 L 230.290 295.247 230.259 293.540 C 230.233 292.123,230.099 291.819,229.468 291.755 C 228.913 291.699,228.882 291.731,229.353 291.871 M126.331 293.055 C 127.324 293.133,128.950 293.133,129.943 293.055 C 130.936 292.977,130.124 292.913,128.137 292.913 C 126.150 292.913,125.337 292.977,126.331 293.055 M216.267 293.437 C 217.372 293.514,219.083 293.513,220.070 293.435 C 221.056 293.357,220.152 293.294,218.061 293.295 C 215.970 293.296,215.163 293.360,216.267 293.437 M294.212 293.435 C 295.106 293.515,296.475 293.514,297.253 293.432 C 298.032 293.351,297.300 293.285,295.627 293.286 C 293.954 293.288,293.317 293.354,294.212 293.435 M94.202 293.816 C 95.299 293.893,97.096 293.893,98.194 293.816 C 99.292 293.740,98.394 293.677,96.198 293.677 C 94.002 293.677,93.104 293.740,94.202 293.816 M306.630 295.913 L 305.513 297.148 306.749 296.032 C 307.429 295.417,307.985 294.861,307.985 294.796 C 307.985 294.502,307.671 294.761,306.630 295.913 M206.844 297.145 C 206.844 297.405,209.172 298.559,209.346 298.385 C 209.429 298.303,208.899 297.951,208.170 297.603 C 207.441 297.255,206.844 297.049,206.844 297.145 M149.144 299.139 C 150.138 299.217,151.763 299.217,152.757 299.139 C 153.750 299.060,152.937 298.996,150.951 298.996 C 148.964 298.996,148.151 299.060,149.144 299.139 M94.202 299.518 C 95.090 299.598,96.545 299.598,97.433 299.518 C 98.322 299.438,97.595 299.372,95.817 299.372 C 94.040 299.372,93.313 299.438,94.202 299.518 " stroke="none" fill="#946f92" fill-rule="evenodd"></path><path id="path3" d="M182.890 86.051 C 182.890 86.116,183.446 86.672,184.125 87.286 L 185.361 88.403 184.244 87.167 C 183.203 86.015,182.890 85.757,182.890 86.051 M291.380 96.388 C 291.381 97.852,291.450 98.404,291.532 97.615 C 291.615 96.826,291.613 95.628,291.529 94.953 C 291.445 94.279,291.378 94.924,291.380 96.388 M287.619 106.559 L 286.502 107.795 287.738 106.678 C 288.417 106.064,288.973 105.508,288.973 105.442 C 288.973 105.148,288.660 105.407,287.619 106.559 M275.562 124.609 C 276.237 124.693,277.435 124.694,278.223 124.612 C 279.012 124.530,278.460 124.461,276.996 124.459 C 275.532 124.458,274.887 124.525,275.562 124.609 M291.439 183.270 C 291.439 208.260,291.484 218.484,291.540 205.989 C 291.595 193.493,291.595 173.047,291.540 160.551 C 291.484 148.056,291.439 158.279,291.439 183.270 M100.951 238.023 C 101.767 238.859,102.521 239.544,102.626 239.544 C 102.730 239.544,102.148 238.859,101.331 238.023 C 100.514 237.186,99.760 236.502,99.656 236.502 C 99.551 236.502,100.134 237.186,100.951 238.023 M236.502 238.213 C 235.578 239.154,234.908 239.924,235.013 239.924 C 235.117 239.924,235.959 239.154,236.882 238.213 C 237.806 237.272,238.476 236.502,238.371 236.502 C 238.267 236.502,237.425 237.272,236.502 238.213 M215.970 238.593 C 216.679 239.325,217.345 239.924,217.450 239.924 C 217.554 239.924,217.059 239.325,216.350 238.593 C 215.640 237.861,214.974 237.262,214.870 237.262 C 214.765 237.262,215.260 237.861,215.970 238.593 M114.994 269.699 C 114.889 269.973,114.858 272.240,114.925 274.737 L 115.046 279.278 115.127 274.445 L 115.209 269.613 118.346 269.484 L 121.483 269.356 118.334 269.279 C 116.034 269.222,115.134 269.336,114.994 269.699 M138.204 269.477 L 141.050 269.613 141.163 277.677 L 141.277 285.741 141.266 277.567 L 141.255 269.392 138.307 269.366 L 135.359 269.340 138.204 269.477 M282.578 273.099 C 282.520 274.956,282.610 275.284,283.175 275.279 C 283.620 275.275,283.691 275.179,283.389 274.987 C 283.141 274.829,282.873 273.848,282.793 272.806 L 282.647 270.913 282.578 273.099 M95.924 273.664 C 96.924 273.743,98.464 273.742,99.346 273.662 C 100.229 273.582,99.411 273.518,97.529 273.519 C 95.646 273.520,94.924 273.585,95.924 273.664 M263.973 273.646 C 264.339 273.742,264.938 273.742,265.304 273.646 C 265.670 273.550,265.371 273.472,264.639 273.472 C 263.907 273.472,263.607 273.550,263.973 273.646 M84.119 277.567 C 84.119 278.298,84.197 278.598,84.293 278.232 C 84.388 277.866,84.388 277.267,84.293 276.901 C 84.197 276.535,84.119 276.835,84.119 277.567 M224.430 278.137 C 224.435 278.973,224.513 279.271,224.604 278.798 C 224.694 278.325,224.691 277.640,224.596 277.277 C 224.501 276.913,224.426 277.300,224.430 278.137 M253.413 288.118 L 253.422 298.669 256.464 298.697 L 259.506 298.724 256.565 298.586 L 253.624 298.447 253.514 288.007 L 253.404 277.566 253.413 288.118 M270.143 288.308 L 270.152 298.669 273.004 298.693 L 275.856 298.717 273.105 298.582 L 270.354 298.447 270.244 288.197 L 270.133 277.946 270.143 288.308 M176.902 279.658 C 176.906 280.494,176.984 280.792,177.075 280.319 C 177.166 279.846,177.162 279.161,177.067 278.798 C 176.972 278.434,176.898 278.821,176.902 279.658 M208.453 279.848 C 208.453 280.580,208.531 280.879,208.627 280.513 C 208.723 280.147,208.723 279.548,208.627 279.183 C 208.531 278.817,208.453 279.116,208.453 279.848 M310.354 280.608 C 310.354 281.340,310.433 281.640,310.528 281.274 C 310.624 280.908,310.624 280.309,310.528 279.943 C 310.433 279.577,310.354 279.876,310.354 280.608 M221.008 281.631 C 221.374 281.727,221.972 281.727,222.338 281.631 C 222.704 281.535,222.405 281.457,221.673 281.457 C 220.941 281.457,220.642 281.535,221.008 281.631 M147.605 289.997 C 147.563 294.637,147.657 298.514,147.814 298.611 C 147.971 298.709,148.055 296.195,148.001 293.025 C 147.822 282.524,147.683 281.453,147.605 289.997 M156.772 286.882 C 156.774 288.137,156.845 288.604,156.930 287.921 C 157.014 287.238,157.012 286.211,156.926 285.640 C 156.839 285.068,156.770 285.627,156.772 286.882 M296.008 285.171 L 290.304 285.392 295.890 285.472 C 299.293 285.520,301.568 285.403,301.711 285.171 C 301.840 284.962,301.893 284.827,301.829 284.870 C 301.764 284.914,299.144 285.049,296.008 285.171 M217.767 286.586 C 218.442 286.670,219.640 286.672,220.429 286.589 C 221.218 286.507,220.665 286.438,219.202 286.437 C 217.738 286.435,217.092 286.502,217.767 286.586 M109.982 289.544 C 109.986 290.380,110.064 290.678,110.155 290.205 C 110.246 289.732,110.242 289.047,110.147 288.684 C 110.052 288.320,109.978 288.707,109.982 289.544 M141.161 289.544 C 141.165 290.380,141.243 290.678,141.334 290.205 C 141.425 289.732,141.421 289.047,141.326 288.684 C 141.231 288.320,141.156 288.707,141.161 289.544 M103.526 290.114 C 103.526 291.055,103.600 291.440,103.690 290.970 C 103.781 290.499,103.781 289.729,103.690 289.259 C 103.600 288.788,103.526 289.173,103.526 290.114 M161.692 289.616 C 162.058 289.711,162.657 289.711,163.023 289.616 C 163.389 289.520,163.089 289.442,162.357 289.442 C 161.625 289.442,161.326 289.520,161.692 289.616 M84.148 293.726 C 84.150 294.981,84.221 295.448,84.306 294.765 C 84.391 294.082,84.389 293.055,84.302 292.484 C 84.215 291.912,84.146 292.471,84.148 293.726 M229.772 293.916 C 229.772 295.067,229.843 295.537,229.930 294.962 C 230.017 294.387,230.017 293.446,229.930 292.871 C 229.843 292.296,229.772 292.766,229.772 293.916 M236.957 296.103 L 236.882 298.859 239.829 298.784 L 242.776 298.708 240.036 298.577 L 237.296 298.446 237.164 295.896 L 237.031 293.346 236.957 296.103 M284.030 295.627 C 284.740 296.359,285.406 296.958,285.510 296.958 C 285.615 296.958,285.120 296.359,284.411 295.627 C 283.701 294.895,283.035 294.297,282.931 294.297 C 282.826 294.297,283.321 294.895,284.030 295.627 M204.563 294.796 C 204.563 294.861,205.119 295.417,205.798 296.032 L 207.034 297.148 205.917 295.913 C 204.876 294.761,204.563 294.502,204.563 294.796 " stroke="none" fill="#b194ac" fill-rule="evenodd"></path><path id="path4" d="M262.541 183.460 C 262.541 207.091,262.587 216.703,262.643 204.819 C 262.698 192.935,262.698 173.600,262.643 161.853 C 262.587 150.106,262.541 159.829,262.541 183.460 M156.939 178.992 C 163.265 179.051,173.617 179.051,179.943 178.992 C 186.269 178.934,181.093 178.886,168.441 178.886 C 155.789 178.886,150.613 178.934,156.939 178.992 M293.828 267.956 C 294.512 268.041,295.538 268.039,296.109 267.952 C 296.681 267.866,296.122 267.796,294.867 267.798 C 293.612 267.801,293.145 267.872,293.828 267.956 M242.752 288.593 C 242.752 294.135,242.805 296.402,242.870 293.631 C 242.935 290.860,242.935 286.326,242.870 283.555 C 242.805 280.784,242.752 283.051,242.752 288.593 M114.978 284.030 C 114.978 286.854,115.038 288.009,115.111 286.597 C 115.184 285.185,115.184 282.875,115.111 281.464 C 115.038 280.052,114.978 281.207,114.978 284.030 M210.792 281.917 C 210.677 282.218,210.662 282.775,210.760 283.153 C 210.878 283.607,210.953 283.490,210.983 282.806 L 211.027 281.772 215.875 281.653 L 220.722 281.534 215.863 281.451 C 211.926 281.385,210.963 281.473,210.792 281.917 " stroke="none" fill="#ac8cac" fill-rule="evenodd"></path></g></svg>