<svg width="2295" height="1854" xmlns="http://www.w3.org/2000/svg" xmlns:xlink="http://www.w3.org/1999/xlink" xml:space="preserve" overflow="hidden"><defs><clipPath id="clip0"><rect x="193" y="457" width="2295" height="1854"/></clipPath></defs><g clip-path="url(#clip0)" transform="translate(-193 -457)"><path d="M195.299 459.55 1219.43 459.55 1219.43 518.695 195.299 518.695Z" fill="#A12944" fill-rule="evenodd"/><path d="M1219.43 459.55 2482.86 459.55 2482.86 518.695 1219.43 518.695Z" fill="#A12944" fill-rule="evenodd"/><path d="M195.299 1340.04 625.429 1340.04 625.429 1604.77 195.299 1604.77Z" fill="#FFFFFF" fill-rule="evenodd"/><path d="M625.429 516.977 625.429 2199.63" stroke="#FFFFFF" stroke-width="4.58333" stroke-linejoin="round" stroke-miterlimit="10" fill="none" fill-rule="evenodd"/><path d="M1219.43 457.258 1219.43 2306.1" stroke="#FFFFFF" stroke-width="4.58333" stroke-linejoin="round" stroke-miterlimit="10" fill="none" fill-rule="evenodd"/><path d="M193.007 518.695 2485.15 518.695" stroke="#A12944" stroke-width="3.4375" stroke-linejoin="round" stroke-miterlimit="10" fill="none" fill-rule="evenodd"/><path d="M623.137 602.641 2485.15 602.641" stroke="#A12944" stroke-width="3.4375" stroke-linejoin="round" stroke-miterlimit="10" fill="none" fill-rule="evenodd"/><path d="M623.137 655.587 2485.15 655.587" stroke="#A12944" stroke-width="3.4375" stroke-linejoin="round" stroke-miterlimit="10" fill="none" fill-rule="evenodd"/><path d="M623.137 708.532 2485.15 708.532" stroke="#A12944" stroke-width="3.4375" stroke-linejoin="round" stroke-miterlimit="10" fill="none" fill-rule="evenodd"/><path d="M623.137 761.478 2485.15 761.478" stroke="#A12944" stroke-width="3.4375" stroke-linejoin="round" stroke-miterlimit="10" fill="none" fill-rule="evenodd"/><path d="M623.137 814.423 2485.15 814.423" stroke="#A12944" stroke-width="3.4375" stroke-linejoin="round" stroke-miterlimit="10" fill="none" fill-rule="evenodd"/><path d="M623.137 867.368 2485.15 867.368" stroke="#A12944" stroke-width="3.4375" stroke-linejoin="round" stroke-miterlimit="10" fill="none" fill-rule="evenodd"/><path d="M623.137 920.314 2485.15 920.314" stroke="#A12944" stroke-width="3.4375" stroke-linejoin="round" stroke-miterlimit="10" fill="none" fill-rule="evenodd"/><path d="M623.137 1004.26 2485.15 1004.26" stroke="#A12944" stroke-width="3.4375" stroke-linejoin="round" stroke-miterlimit="10" fill="none" fill-rule="evenodd"/><path d="M623.137 1119.21 2485.15 1119.21" stroke="#A12944" stroke-width="3.4375" stroke-linejoin="round" stroke-miterlimit="10" fill="none" fill-rule="evenodd"/><path d="M193.007 1172.15 2485.15 1172.15" stroke="#A12944" stroke-width="3.4375" stroke-linejoin="round" stroke-miterlimit="10" fill="none" fill-rule="evenodd"/><path d="M623.137 1225.1 2485.15 1225.1" stroke="#A12944" stroke-width="3.4375" stroke-linejoin="round" stroke-miterlimit="10" fill="none" fill-rule="evenodd"/><path d="M193.007 1340.04 2485.15 1340.04" stroke="#A12944" stroke-width="3.4375" stroke-linejoin="round" stroke-miterlimit="10" fill="none" fill-rule="evenodd"/><path d="M1217.14 1392.99 2485.15 1392.99" stroke="#A12944" stroke-width="3.4375" stroke-linejoin="round" stroke-miterlimit="10" fill="none" fill-rule="evenodd"/><path d="M1217.14 1445.93 2485.15 1445.93" stroke="#A12944" stroke-width="3.4375" stroke-linejoin="round" stroke-miterlimit="10" fill="none" fill-rule="evenodd"/><path d="M623.137 1498.88 2485.15 1498.88" stroke="#A12944" stroke-width="3.4375" stroke-linejoin="round" stroke-miterlimit="10" fill="none" fill-rule="evenodd"/><path d="M623.137 1551.83 2485.15 1551.83" stroke="#A12944" stroke-width="3.4375" stroke-linejoin="round" stroke-miterlimit="10" fill="none" fill-rule="evenodd"/><path d="M193.007 1604.77 2485.15 1604.77" stroke="#A12944" stroke-width="3.4375" stroke-linejoin="round" stroke-miterlimit="10" fill="none" fill-rule="evenodd"/><path d="M623.137 1657.72 2485.15 1657.72" stroke="#A12944" stroke-width="3.4375" stroke-linejoin="round" stroke-miterlimit="10" fill="none" fill-rule="evenodd"/><path d="M623.137 1741.66 2485.15 1741.66" stroke="#A12944" stroke-width="3.4375" stroke-linejoin="round" stroke-miterlimit="10" fill="none" fill-rule="evenodd"/><path d="M623.137 1825.61 2485.15 1825.61" stroke="#A12944" stroke-width="3.4375" stroke-linejoin="round" stroke-miterlimit="10" fill="none" fill-rule="evenodd"/><path d="M623.137 1878.55 2485.15 1878.55" stroke="#A12944" stroke-width="3.4375" stroke-linejoin="round" stroke-miterlimit="10" fill="none" fill-rule="evenodd"/><path d="M193.007 2030.02 627.721 2030.02" stroke="#FFFFFF" stroke-width="4.58333" stroke-linejoin="round" stroke-miterlimit="10" fill="none" fill-rule="evenodd"/><path d="M627.721 2030.02 2485.15 2030.02" stroke="#A12944" stroke-width="3.4375" stroke-linejoin="round" stroke-miterlimit="10" fill="none" fill-rule="evenodd"/><path d="M623.137 2082.97 2485.15 2082.97" stroke="#A12944" stroke-width="3.4375" stroke-linejoin="round" stroke-miterlimit="10" fill="none" fill-rule="evenodd"/><path d="M193.007 2197.91 2485.15 2197.91" stroke="#A12944" stroke-width="3.4375" stroke-linejoin="round" stroke-miterlimit="10" fill="none" fill-rule="evenodd"/><path d="M193.007 2250.86 2485.15 2250.86" stroke="#A12944" stroke-width="3.4375" stroke-linejoin="round" stroke-miterlimit="10" fill="none" fill-rule="evenodd"/><path d="M195.299 457.258 195.299 2306.1" stroke="#FFFFFF" stroke-width="4.58333" stroke-linejoin="round" stroke-miterlimit="10" fill="none" fill-rule="evenodd"/><path d="M2482.86 457.258 2482.86 2306.1" stroke="#FFFFFF" stroke-width="4.58333" stroke-linejoin="round" stroke-miterlimit="10" fill="none" fill-rule="evenodd"/><path d="M193.007 459.55 2485.15 459.55" stroke="#FFFFFF" stroke-width="4.58333" stroke-linejoin="round" stroke-miterlimit="10" fill="none" fill-rule="evenodd"/><path d="M193.007 2303.8 2485.15 2303.8" stroke="#FFFFFF" stroke-width="4.58333" stroke-linejoin="round" stroke-miterlimit="10" fill="none" fill-rule="evenodd"/><text fill="#FFFFFF" font-family="Montserrat,Montserrat_MSFontService,sans-serif" font-weight="400" font-size="32" transform="matrix(1 0 0 1 1695.88 501)">Q</text><text fill="#FFFFFF" font-family="Montserrat,Montserrat_MSFontService,sans-serif" font-weight="400" font-size="32" transform="matrix(1 0 0 1 1722.81 501)">-</text><text fill="#FFFFFF" font-family="Montserrat,Montserrat_MSFontService,sans-serif" font-weight="400" font-size="32" transform="matrix(1 0 0 1 1734.84 501)">Face Pro Module</text><text fill="#FFFFFF" font-family="Montserrat,Montserrat_MSFontService,sans-serif" font-weight="400" font-size="32" transform="matrix(1 0 0 1 2006.4 501)">​</text><text fill="#FFFFFF" font-family="Montserrat,Montserrat_MSFontService,sans-serif" font-weight="400" font-size="32" transform="matrix(1 0 0 1 661.53 501)">Items</text><text fill="#FFFFFF" font-family="Montserrat,Montserrat_MSFontService,sans-serif" font-weight="400" font-size="32" transform="matrix(1 0 0 1 753.197 501)">​</text><text fill="#7F7F7F" font-family="Montserrat,Montserrat_MSFontService,sans-serif" font-weight="400" font-size="28" transform="matrix(1 0 0 1 1238.9 570)">Quad</text><text fill="#7F7F7F" font-family="Montserrat,Montserrat_MSFontService,sans-serif" font-weight="400" font-size="28" transform="matrix(1 0 0 1 1315.09 570)">-</text><text fill="#7F7F7F" font-family="Montserrat,Montserrat_MSFontService,sans-serif" font-weight="400" font-size="28" transform="matrix(1 0 0 1 1325.41 570)">core ARM Cortex</text><text fill="#7F7F7F" font-family="Montserrat,Montserrat_MSFontService,sans-serif" font-weight="400" font-size="28" transform="matrix(1 0 0 1 1556.86 570)">-</text><text fill="#7F7F7F" font-family="Montserrat,Montserrat_MSFontService,sans-serif" font-weight="400" font-size="28" transform="matrix(1 0 0 1 1567.18 570)">A7 32bit 1.5Ghz</text><text fill="#7F7F7F" font-family="Montserrat,Montserrat_MSFontService,sans-serif" font-weight="400" font-size="28" transform="matrix(1 0 0 1 1778.01 570)">NPU (up to 2TOPS)</text><text fill="#7F7F7F" font-family="Montserrat,Montserrat_MSFontService,sans-serif" font-weight="400" font-size="28" transform="matrix(1 0 0 1 2038.69 570)">​</text><text fill="#7F7F7F" font-family="Montserrat,Montserrat_MSFontService,sans-serif" font-weight="400" font-size="28" transform="matrix(1 0 0 1 644.896 570)">CPU</text><text fill="#7F7F7F" font-family="Montserrat,Montserrat_MSFontService,sans-serif" font-weight="400" font-size="28" transform="matrix(1 0 0 1 706.198 570)">​</text><text fill="#7F7F7F" font-family="Montserrat,Montserrat_MSFontService,sans-serif" font-weight="400" font-size="28" transform="matrix(1 0 0 1 356.796 855)">General</text><text fill="#7F7F7F" font-family="Montserrat,Montserrat_MSFontService,sans-serif" font-weight="400" font-size="28" transform="matrix(1 0 0 1 463.931 855)">​</text><text fill="#7F7F7F" font-family="Montserrat,Montserrat_MSFontService,sans-serif" font-weight="400" font-size="28" transform="matrix(1 0 0 1 1238.9 639)">USB 2.0</text><text fill="#7F7F7F" font-family="Montserrat,Montserrat_MSFontService,sans-serif" font-weight="400" font-size="28" transform="matrix(1 0 0 1 1345.46 639)">​</text><text fill="#7F7F7F" font-family="Montserrat,Montserrat_MSFontService,sans-serif" font-weight="400" font-size="28" transform="matrix(1 0 0 1 644.896 639)">Communication Interface</text><text fill="#7F7F7F" font-family="Montserrat,Montserrat_MSFontService,sans-serif" font-weight="400" font-size="28" transform="matrix(1 0 0 1 999.532 639)">​</text><text fill="#7F7F7F" font-family="Montserrat,Montserrat_MSFontService,sans-serif" font-weight="400" font-size="28" transform="matrix(1 0 0 1 1238.9 692)">&lt; 5W (max)</text><text fill="#7F7F7F" font-family="Montserrat,Montserrat_MSFontService,sans-serif" font-weight="400" font-size="28" transform="matrix(1 0 0 1 1394.16 692)">​</text><text fill="#7F7F7F" font-family="Montserrat,Montserrat_MSFontService,sans-serif" font-weight="400" font-size="28" transform="matrix(1 0 0 1 644.896 692)">Power Consumption</text><text fill="#7F7F7F" font-family="Montserrat,Montserrat_MSFontService,sans-serif" font-weight="400" font-size="28" transform="matrix(1 0 0 1 929.636 692)">​</text><text fill="#7F7F7F" font-family="Montserrat,Montserrat_MSFontService,sans-serif" font-weight="400" font-size="28" transform="matrix(1 0 0 1 1238.9 745)">DC5V 1A</text><text fill="#7F7F7F" font-family="Montserrat,Montserrat_MSFontService,sans-serif" font-weight="400" font-size="28" transform="matrix(1 0 0 1 1360.93 745)">​</text><text fill="#7F7F7F" font-family="Montserrat,Montserrat_MSFontService,sans-serif" font-weight="400" font-size="28" transform="matrix(1 0 0 1 644.896 745)">Power Supply</text><text fill="#7F7F7F" font-family="Montserrat,Montserrat_MSFontService,sans-serif" font-weight="400" font-size="28" transform="matrix(1 0 0 1 836.25 745)">​</text><text fill="#7F7F7F" font-family="Montserrat,Montserrat_MSFontService,sans-serif" font-weight="400" font-size="28" transform="matrix(1 0 0 1 1238.9 797)">-</text><text fill="#7F7F7F" font-family="Montserrat,Montserrat_MSFontService,sans-serif" font-weight="400" font-size="28" transform="matrix(1 0 0 1 1249.21 797)">10</text><text fill="#7F7F7F" font-family="Montserrat,Montserrat_MSFontService,sans-serif" font-weight="400" font-size="28" transform="matrix(1 0 0 1 1277.28 797)">°</text><text fill="#7F7F7F" font-family="Montserrat,Montserrat_MSFontService,sans-serif" font-weight="400" font-size="28" transform="matrix(1 0 0 1 1288.74 797)">C ~ 50</text><text fill="#7F7F7F" font-family="Montserrat,Montserrat_MSFontService,sans-serif" font-weight="400" font-size="28" transform="matrix(1 0 0 1 1373.53 797)">°</text><text fill="#7F7F7F" font-family="Montserrat,Montserrat_MSFontService,sans-serif" font-weight="400" font-size="28" transform="matrix(1 0 0 1 1384.99 797)">C</text><text fill="#7F7F7F" font-family="Montserrat,Montserrat_MSFontService,sans-serif" font-weight="400" font-size="28" transform="matrix(1 0 0 1 1405.04 797)">​</text><text fill="#7F7F7F" font-family="Montserrat,Montserrat_MSFontService,sans-serif" font-weight="400" font-size="28" transform="matrix(1 0 0 1 644.896 797)">Operating Temperature</text><text fill="#7F7F7F" font-family="Montserrat,Montserrat_MSFontService,sans-serif" font-weight="400" font-size="28" transform="matrix(1 0 0 1 974.323 797)">​</text><text fill="#7F7F7F" font-family="Montserrat,Montserrat_MSFontService,sans-serif" font-weight="400" font-size="28" transform="matrix(1 0 0 1 1238.9 850)">0 ~ 90% RH</text><text fill="#7F7F7F" font-family="Montserrat,Montserrat_MSFontService,sans-serif" font-weight="400" font-size="28" transform="matrix(1 0 0 1 1395.88 850)">​</text><text fill="#7F7F7F" font-family="Montserrat,Montserrat_MSFontService,sans-serif" font-weight="400" font-size="28" transform="matrix(1 0 0 1 644.896 850)">Operating Humidity</text><text fill="#7F7F7F" font-family="Montserrat,Montserrat_MSFontService,sans-serif" font-weight="400" font-size="28" transform="matrix(1 0 0 1 922.761 850)">​</text><text fill="#7F7F7F" font-family="Montserrat,Montserrat_MSFontService,sans-serif" font-weight="400" font-size="28" transform="matrix(1 0 0 1 1238.9 903)">92mm x 30mm x 17mm (W x H x D)</text><text fill="#7F7F7F" font-family="Montserrat,Montserrat_MSFontService,sans-serif" font-weight="400" font-size="28" transform="matrix(1 0 0 1 1726.45 903)">​</text><text fill="#7F7F7F" font-family="Montserrat,Montserrat_MSFontService,sans-serif" font-weight="400" font-size="28" transform="matrix(1 0 0 1 644.896 903)">Dimension</text><text fill="#7F7F7F" font-family="Montserrat,Montserrat_MSFontService,sans-serif" font-weight="400" font-size="28" transform="matrix(1 0 0 1 795.573 903)">​</text><text fill="#7F7F7F" font-family="Montserrat,Montserrat_MSFontService,sans-serif" font-weight="400" font-size="28" transform="matrix(1 0 0 1 1238.9 972)">By designed steal panel and power</text><text fill="#7F7F7F" font-family="Montserrat,Montserrat_MSFontService,sans-serif" font-weight="400" font-size="28" transform="matrix(1 0 0 1 1730.46 972)">management logic in S/W</text><text fill="#7F7F7F" font-family="Montserrat,Montserrat_MSFontService,sans-serif" font-weight="400" font-size="28" transform="matrix(1 0 0 1 2099.42 972)">​</text><text fill="#7F7F7F" font-family="Montserrat,Montserrat_MSFontService,sans-serif" font-weight="400" font-size="28" transform="matrix(1 0 0 1 644.896 972)">Heat Sink Control</text><text fill="#7F7F7F" font-family="Montserrat,Montserrat_MSFontService,sans-serif" font-weight="400" font-size="28" transform="matrix(1 0 0 1 887.24 972)">​</text><text fill="#7F7F7F" font-family="Montserrat,Montserrat_MSFontService,sans-serif" font-weight="400" font-size="28" transform="matrix(1 0 0 1 1238.9 1071)">UVC &amp; RNDIS protocol ( video streaming</text><text fill="#7F7F7F" font-family="Montserrat,Montserrat_MSFontService,sans-serif" font-weight="400" font-size="28" transform="matrix(1 0 0 1 1802.07 1071)">and control module ) / UART ( commands</text><text fill="#7F7F7F" font-family="Montserrat,Montserrat_MSFontService,sans-serif" font-weight="400" font-size="28" transform="matrix(1 0 0 1 2382.44 1071)">only )</text><text fill="#7F7F7F" font-family="Montserrat,Montserrat_MSFontService,sans-serif" font-weight="400" font-size="28" transform="matrix(1 0 0 1 2456.92 1071)">​</text><text fill="#7F7F7F" font-family="Montserrat,Montserrat_MSFontService,sans-serif" font-weight="400" font-size="28" transform="matrix(1 0 0 1 644.896 1071)">Communication protocol</text><text fill="#7F7F7F" font-family="Montserrat,Montserrat_MSFontService,sans-serif" font-weight="400" font-size="28" transform="matrix(1 0 0 1 992.657 1071)">​</text><text fill="#7F7F7F" font-family="Montserrat,Montserrat_MSFontService,sans-serif" font-weight="400" font-size="28" transform="matrix(1 0 0 1 1238.9 1155)">0.01 lux to 65,000 lux</text><text fill="#7F7F7F" font-family="Montserrat,Montserrat_MSFontService,sans-serif" font-weight="400" font-size="28" transform="matrix(1 0 0 1 1523.06 1155)">​</text><text fill="#7F7F7F" font-family="Montserrat,Montserrat_MSFontService,sans-serif" font-weight="400" font-size="28" transform="matrix(1 0 0 1 644.896 1155)">Luminance</text><text fill="#7F7F7F" font-family="Montserrat,Montserrat_MSFontService,sans-serif" font-weight="400" font-size="28" transform="matrix(1 0 0 1 800.73 1155)">​</text><text fill="#7F7F7F" font-family="Montserrat,Montserrat_MSFontService,sans-serif" font-weight="400" font-size="28" transform="matrix(1 0 0 1 1238.9 1208)">Linux</text><text fill="#7F7F7F" font-family="Montserrat,Montserrat_MSFontService,sans-serif" font-weight="400" font-size="28" transform="matrix(1 0 0 1 1313.95 1208)">​</text><text fill="#7F7F7F" font-family="Montserrat,Montserrat_MSFontService,sans-serif" font-weight="400" font-size="28" transform="matrix(1 0 0 1 644.896 1208)">Device (Module)</text><text fill="#7F7F7F" font-family="Montserrat,Montserrat_MSFontService,sans-serif" font-weight="400" font-size="28" transform="matrix(1 0 0 1 869.48 1208)">​</text><text fill="#7F7F7F" font-family="Montserrat,Montserrat_MSFontService,sans-serif" font-weight="400" font-size="28" transform="matrix(1 0 0 1 390.312 1266)">OS</text><text fill="#7F7F7F" font-family="Montserrat,Montserrat_MSFontService,sans-serif" font-weight="400" font-size="28" transform="matrix(1 0 0 1 430.416 1266)">​</text><text fill="#7F7F7F" font-family="Montserrat,Montserrat_MSFontService,sans-serif" font-weight="400" font-size="28" transform="matrix(1 0 0 1 1238.9 1292)">Supports Windows 10 or later / Android</text><text fill="#7F7F7F" font-family="Montserrat,Montserrat_MSFontService,sans-serif" font-weight="400" font-size="28" transform="matrix(1 0 0 1 1784.31 1292)">8.0</text><text fill="#7F7F7F" font-family="Montserrat,Montserrat_MSFontService,sans-serif" font-weight="400" font-size="28" transform="matrix(1 0 0 1 1833.58 1292)">or later / Linux kernel v4.X or later</text><text fill="#7F7F7F" font-family="Montserrat,Montserrat_MSFontService,sans-serif" font-weight="400" font-size="28" transform="matrix(1 0 0 1 2293.06 1292)">​</text><text fill="#7F7F7F" font-family="Montserrat,Montserrat_MSFontService,sans-serif" font-weight="400" font-size="28" transform="matrix(1 0 0 1 644.896 1292)">Host</text><text fill="#7F7F7F" font-family="Montserrat,Montserrat_MSFontService,sans-serif" font-weight="400" font-size="28" transform="matrix(1 0 0 1 708.49 1292)">​</text><text fill="#7F7F7F" font-family="Montserrat,Montserrat_MSFontService,sans-serif" font-weight="400" font-size="28" transform="matrix(1 0 0 1 1238.9 1376)">Dual camera system ( RGB + IR )</text><text fill="#7F7F7F" font-family="Montserrat,Montserrat_MSFontService,sans-serif" font-weight="400" font-size="28" transform="matrix(1 0 0 1 1682.33 1376)">​</text><text fill="#7F7F7F" font-family="Montserrat,Montserrat_MSFontService,sans-serif" font-weight="400" font-size="28" transform="matrix(1 0 0 1 644.896 1429)">Camera System</text><text fill="#7F7F7F" font-family="Montserrat,Montserrat_MSFontService,sans-serif" font-weight="400" font-size="28" transform="matrix(1 0 0 1 863.177 1429)">​</text><text fill="#7F7F7F" font-family="Montserrat,Montserrat_MSFontService,sans-serif" font-weight="400" font-size="28" transform="matrix(1 0 0 1 363.671 1482)">Sensor</text><text fill="#7F7F7F" font-family="Montserrat,Montserrat_MSFontService,sans-serif" font-weight="400" font-size="28" transform="matrix(1 0 0 1 457.056 1482)">​</text><text fill="#7F7F7F" font-family="Montserrat,Montserrat_MSFontService,sans-serif" font-weight="400" font-size="28" transform="matrix(1 0 0 1 1238.9 1429)">1/2.8 CMOS</text><text fill="#7F7F7F" font-family="Montserrat,Montserrat_MSFontService,sans-serif" font-weight="400" font-size="28" transform="matrix(1 0 0 1 1390.72 1429)">​</text><text fill="#7F7F7F" font-family="Montserrat,Montserrat_MSFontService,sans-serif" font-weight="400" font-size="28" transform="matrix(1 0 0 1 1238.9 1482)">4EA IR LED ( 850nm )</text><text fill="#7F7F7F" font-family="Montserrat,Montserrat_MSFontService,sans-serif" font-weight="400" font-size="28" transform="matrix(1 0 0 1 1535.09 1482)">​</text><text fill="#7F7F7F" font-family="Montserrat,Montserrat_MSFontService,sans-serif" font-weight="400" font-size="28" transform="matrix(1 0 0 1 1238.9 1535)">Vertical viewing angle of 65</text><text fill="#7F7F7F" font-family="Montserrat,Montserrat_MSFontService,sans-serif" font-weight="400" font-size="28" transform="matrix(1 0 0 1 1616.45 1535)">°</text><text fill="#7F7F7F" font-family="Montserrat,Montserrat_MSFontService,sans-serif" font-weight="400" font-size="28" transform="matrix(1 0 0 1 1627.91 1535)">​</text><text fill="#7F7F7F" font-family="Montserrat,Montserrat_MSFontService,sans-serif" font-weight="400" font-size="28" transform="matrix(1 0 0 1 644.896 1535)">Angle of view</text><text fill="#7F7F7F" font-family="Montserrat,Montserrat_MSFontService,sans-serif" font-weight="400" font-size="28" transform="matrix(1 0 0 1 829.948 1535)">​</text><text fill="#7F7F7F" font-family="Montserrat,Montserrat_MSFontService,sans-serif" font-weight="400" font-size="28" transform="matrix(1 0 0 1 1238.9 1588)">720*1280</text><text fill="#7F7F7F" font-family="Montserrat,Montserrat_MSFontService,sans-serif" font-weight="400" font-size="28" transform="matrix(1 0 0 1 1360.93 1588)">​</text><text fill="#7F7F7F" font-family="Montserrat,Montserrat_MSFontService,sans-serif" font-weight="400" font-size="28" transform="matrix(1 0 0 1 644.896 1588)">Image Resolution (W*H)</text><text fill="#7F7F7F" font-family="Montserrat,Montserrat_MSFontService,sans-serif" font-weight="400" font-size="28" transform="matrix(1 0 0 1 977.188 1588)">​</text><text fill="#7F7F7F" font-family="Montserrat,Montserrat_MSFontService,sans-serif" font-weight="400" font-size="28" transform="matrix(1 0 0 1 1238.9 1641)">Yes</text><text fill="#7F7F7F" font-family="Montserrat,Montserrat_MSFontService,sans-serif" font-weight="400" font-size="28" transform="matrix(1 0 0 1 1285.88 1641)">​</text><text fill="#7F7F7F" font-family="Montserrat,Montserrat_MSFontService,sans-serif" font-weight="400" font-size="28" transform="matrix(1 0 0 1 644.896 1641)">Anti</text><text fill="#7F7F7F" font-family="Montserrat,Montserrat_MSFontService,sans-serif" font-weight="400" font-size="28" transform="matrix(1 0 0 1 701.042 1641)">-</text><text fill="#7F7F7F" font-family="Montserrat,Montserrat_MSFontService,sans-serif" font-weight="400" font-size="28" transform="matrix(1 0 0 1 711.355 1641)">spoofing</text><text fill="#7F7F7F" font-family="Montserrat,Montserrat_MSFontService,sans-serif" font-weight="400" font-size="28" transform="matrix(1 0 0 1 831.667 1641)">​</text><text fill="#7F7F7F" font-family="Montserrat,Montserrat_MSFontService,sans-serif" font-weight="400" font-size="28" transform="matrix(1 0 0 1 338.761 1641)">Biometric</text><text fill="#7F7F7F" font-family="Montserrat,Montserrat_MSFontService,sans-serif" font-weight="400" font-size="28" transform="matrix(1 0 0 1 481.99 1641)">​</text><text fill="#7F7F7F" font-family="Montserrat,Montserrat_MSFontService,sans-serif" font-weight="400" font-size="28" transform="matrix(1 0 0 1 316.692 1674)">Performance</text><text fill="#7F7F7F" font-family="Montserrat,Montserrat_MSFontService,sans-serif" font-weight="400" font-size="28" transform="matrix(1 0 0 1 504.036 1674)">​</text><text fill="#7F7F7F" font-family="Montserrat,Montserrat_MSFontService,sans-serif" font-weight="400" font-size="28" transform="matrix(1 0 0 1 1238.9 1709)">1:N</text><text fill="#7F7F7F" font-family="Montserrat,Montserrat_MSFontService,sans-serif" font-weight="400" font-size="28" transform="matrix(1 0 0 1 1291.6 1709)">: 50,000 users (max)</text><text fill="#7F7F7F" font-family="Montserrat,Montserrat_MSFontService,sans-serif" font-weight="400" font-size="28" transform="matrix(1 0 0 1 1579.78 1709)">/</text><text fill="#7F7F7F" font-family="Montserrat,Montserrat_MSFontService,sans-serif" font-weight="400" font-size="28" transform="matrix(1 0 0 1 1596.4 1709)">1:1 100,000 users</text><text fill="#7F7F7F" font-family="Montserrat,Montserrat_MSFontService,sans-serif" font-weight="400" font-size="28" transform="matrix(1 0 0 1 1823.27 1709)">(max)</text><text fill="#7F7F7F" font-family="Montserrat,Montserrat_MSFontService,sans-serif" font-weight="400" font-size="28" transform="matrix(1 0 0 1 1901.76 1709)">​</text><text fill="#7F7F7F" font-family="Montserrat,Montserrat_MSFontService,sans-serif" font-weight="400" font-size="28" transform="matrix(1 0 0 1 644.896 1709)">Capacity</text><text fill="#7F7F7F" font-family="Montserrat,Montserrat_MSFontService,sans-serif" font-weight="400" font-size="28" transform="matrix(1 0 0 1 764.636 1709)">​</text><text fill="#7F7F7F" font-family="Montserrat,Montserrat_MSFontService,sans-serif" font-weight="400" font-size="28" transform="matrix(1 0 0 1 1238.9 1793)">FRR 1% @ FAR 0.000001% (1/100,000,000)</text><text fill="#7F7F7F" font-family="Montserrat,Montserrat_MSFontService,sans-serif" font-weight="400" font-size="28" transform="matrix(1 0 0 1 1804.94 1793)">​</text><text fill="#7F7F7F" font-family="Montserrat,Montserrat_MSFontService,sans-serif" font-weight="400" font-size="28" transform="matrix(1 0 0 1 644.896 1793)">Accuracy</text><text fill="#7F7F7F" font-family="Montserrat,Montserrat_MSFontService,sans-serif" font-weight="400" font-size="28" transform="matrix(1 0 0 1 770.938 1793)">​</text><text fill="#7F7F7F" font-family="Montserrat,Montserrat_MSFontService,sans-serif" font-weight="400" font-size="28" transform="matrix(1 0 0 1 1238.9 1862)">0.5m ~ 1.3m</text><text fill="#7F7F7F" font-family="Montserrat,Montserrat_MSFontService,sans-serif" font-weight="400" font-size="28" transform="matrix(1 0 0 1 1398.74 1862)">​</text><text fill="#7F7F7F" font-family="Montserrat,Montserrat_MSFontService,sans-serif" font-weight="400" font-size="28" transform="matrix(1 0 0 1 644.896 1862)">Recognition Distance</text><text fill="#7F7F7F" font-family="Montserrat,Montserrat_MSFontService,sans-serif" font-weight="400" font-size="28" transform="matrix(1 0 0 1 941.094 1862)">​</text><text fill="#7F7F7F" font-family="Montserrat,Montserrat_MSFontService,sans-serif" font-weight="400" font-size="28" transform="matrix(1 0 0 1 1238.9 1914)">Total : &lt; 500</text><text fill="#7F7F7F" font-family="Montserrat,Montserrat_MSFontService,sans-serif" font-weight="400" font-size="28" transform="matrix(1 0 0 1 1410.2 1914)">ms</text><text fill="#7F7F7F" font-family="Montserrat,Montserrat_MSFontService,sans-serif" font-weight="400" font-size="28" transform="matrix(1 0 0 1 1460.04 1914)">​</text><text fill="#7F7F7F" font-family="Montserrat,Montserrat_MSFontService,sans-serif" font-weight="400" font-size="28" transform="matrix(1 0 0 1 1246.34 1947)">-</text><text fill="#7F7F7F" font-family="Montserrat,Montserrat_MSFontService,sans-serif" font-weight="400" font-size="28" transform="matrix(1 0 0 1 1264.1 1947)">Face Detection : &lt; 50ms</text><text fill="#7F7F7F" font-family="Montserrat,Montserrat_MSFontService,sans-serif" font-weight="400" font-size="28" transform="matrix(1 0 0 1 1600.98 1947)">​</text><text fill="#7F7F7F" font-family="Montserrat,Montserrat_MSFontService,sans-serif" font-weight="400" font-size="28" transform="matrix(1 0 0 1 1246.34 1980)">-</text><text fill="#7F7F7F" font-family="Montserrat,Montserrat_MSFontService,sans-serif" font-weight="400" font-size="28" transform="matrix(1 0 0 1 1264.1 1980)">Recognition (Extraction + Matching) :</text><text fill="#7F7F7F" font-family="Montserrat,Montserrat_MSFontService,sans-serif" font-weight="400" font-size="28" transform="matrix(1 0 0 1 1781.45 1980)">&lt; 450ms ( less than 300ms @1:10,000</text><text fill="#7F7F7F" font-family="Montserrat,Montserrat_MSFontService,sans-serif" font-weight="400" font-size="28" transform="matrix(1 0 0 1 2294.78 1980)">users )</text><text fill="#7F7F7F" font-family="Montserrat,Montserrat_MSFontService,sans-serif" font-weight="400" font-size="28" transform="matrix(1 0 0 1 2391.03 1980)">​</text><text fill="#7F7F7F" font-family="Montserrat,Montserrat_MSFontService,sans-serif" font-weight="400" font-size="28" transform="matrix(1 0 0 1 1238.9 2013)">​</text><text fill="#7F7F7F" font-family="Montserrat,Montserrat_MSFontService,sans-serif" font-weight="400" font-size="28" transform="matrix(1 0 0 1 644.896 1964)">Recognition Time</text><text fill="#7F7F7F" font-family="Montserrat,Montserrat_MSFontService,sans-serif" font-weight="400" font-size="28" transform="matrix(1 0 0 1 889.532 1964)">​</text><text fill="#7F7F7F" font-family="Montserrat,Montserrat_MSFontService,sans-serif" font-weight="400" font-size="28" transform="matrix(1 0 0 1 1238.9 2066)">Storing encryption key</text><text fill="#7F7F7F" font-family="Montserrat,Montserrat_MSFontService,sans-serif" font-weight="400" font-size="28" transform="matrix(1 0 0 1 1551.71 2066)">​</text><text fill="#7F7F7F" font-family="Montserrat,Montserrat_MSFontService,sans-serif" font-weight="400" font-size="28" transform="matrix(1 0 0 1 644.896 2066)">Secure Element</text><text fill="#7F7F7F" font-family="Montserrat,Montserrat_MSFontService,sans-serif" font-weight="400" font-size="28" transform="matrix(1 0 0 1 864.896 2066)">​</text><text fill="#7F7F7F" font-family="Montserrat,Montserrat_MSFontService,sans-serif" font-weight="400" font-size="28" transform="matrix(1 0 0 1 317.838 2123)">Data Security</text><text fill="#7F7F7F" font-family="Montserrat,Montserrat_MSFontService,sans-serif" font-weight="400" font-size="28" transform="matrix(1 0 0 1 502.89 2123)">​</text><text fill="#7F7F7F" font-family="Montserrat,Montserrat_MSFontService,sans-serif" font-weight="400" font-size="28" transform="matrix(1 0 0 1 1238.9 2150)">AES256 ( FIPS197 validated algorithm ),</text><text fill="#7F7F7F" font-family="Montserrat,Montserrat_MSFontService,sans-serif" font-weight="400" font-size="28" transform="matrix(1 0 0 1 1778.01 2150)">ED25519 ( key exchange algorithm )</text><text fill="#7F7F7F" font-family="Montserrat,Montserrat_MSFontService,sans-serif" font-weight="400" font-size="28" transform="matrix(1 0 0 1 2267.28 2150)">​</text><text fill="#7F7F7F" font-family="Montserrat,Montserrat_MSFontService,sans-serif" font-weight="400" font-size="28" transform="matrix(1 0 0 1 644.896 2150)">Template and</text><text fill="#7F7F7F" font-family="Montserrat,Montserrat_MSFontService,sans-serif" font-weight="400" font-size="28" transform="matrix(1 0 0 1 844.844 2150)">Channel</text><text fill="#7F7F7F" font-family="Montserrat,Montserrat_MSFontService,sans-serif" font-weight="400" font-size="28" transform="matrix(1 0 0 1 967.448 2150)">Encryption</text><text fill="#7F7F7F" font-family="Montserrat,Montserrat_MSFontService,sans-serif" font-weight="400" font-size="28" transform="matrix(1 0 0 1 1118.13 2150)">​</text><text fill="#7F7F7F" font-family="Montserrat,Montserrat_MSFontService,sans-serif" font-weight="400" font-size="28" transform="matrix(1 0 0 1 1238.9 2234)">Yes</text><text fill="#7F7F7F" font-family="Montserrat,Montserrat_MSFontService,sans-serif" font-weight="400" font-size="28" transform="matrix(1 0 0 1 1285.88 2234)">​</text><text fill="#7F7F7F" font-family="Montserrat,Montserrat_MSFontService,sans-serif" font-weight="400" font-size="28" transform="matrix(1 0 0 1 574.447 2234)">QR code detection</text><text fill="#7F7F7F" font-family="Montserrat,Montserrat_MSFontService,sans-serif" font-weight="400" font-size="28" transform="matrix(1 0 0 1 840.28 2234)">​</text><text fill="#7F7F7F" font-family="Montserrat,Montserrat_MSFontService,sans-serif" font-weight="400" font-size="28" transform="matrix(1 0 0 1 1238.9 2287)">CE, FCC, RoHS, REACH, WEEE</text><text fill="#7F7F7F" font-family="Montserrat,Montserrat_MSFontService,sans-serif" font-weight="400" font-size="28" transform="matrix(1 0 0 1 1649.68 2287)">​</text><text fill="#7F7F7F" font-family="Montserrat,Montserrat_MSFontService,sans-serif" font-weight="400" font-size="28" transform="matrix(1 0 0 1 616.843 2287)">Certifications</text><text fill="#7F7F7F" font-family="Montserrat,Montserrat_MSFontService,sans-serif" font-weight="400" font-size="28" transform="matrix(1 0 0 1 797.885 2287)">​</text></g></svg>